<svg width="849" height="480" viewBox="0 0 849 480" fill="none" xmlns="http://www.w3.org/2000/svg">
<path d="M793.076 121.367C758.235 85.908 709.739 63.9067 656.098 63.9067H192.046C85.9817 63.9067 0 149.889 0 255.953V255.955C0 291.037 9.41307 323.919 25.8437 352.223L793.076 121.367Z" fill="#4D61B7"/>
<path d="M25.8438 352.223C59.0844 409.487 121.066 448 192.046 448H656.098C762.163 448 848.144 362.019 848.144 255.955V255.953C848.144 203.529 827.13 156.021 793.076 121.367L25.8438 352.223Z" fill="#3E4B80"/>
<path d="M524.191 168.953C524.191 151.849 475.462 137.984 415.35 137.984C355.238 137.984 306.507 151.849 306.507 168.953C306.507 186.057 355.238 199.923 415.35 199.923C475.462 199.923 524.191 186.057 524.191 168.953Z" fill="#D5D7D4"/>
<path d="M384.844 160.673L306.768 172.613L323.681 207.583H507.018L524.192 168.953L384.844 160.673" fill="#D5D7D4"/>
<path d="M507.018 207.583C507.018 193.177 465.977 181.5 415.35 181.5C364.722 181.5 323.681 193.177 323.681 207.583C323.681 221.987 364.722 233.665 415.35 233.665C465.977 233.665 507.018 221.987 507.018 207.583Z" fill="white"/>
<path d="M495.268 207.583C495.268 195.024 459.487 184.843 415.35 184.843C371.211 184.843 335.43 195.024 335.43 207.583C335.43 220.141 371.211 230.321 415.35 230.321C459.487 230.321 495.268 220.141 495.268 207.583Z" fill="#D5D7D4"/>
<path d="M482.079 207.583C482.079 197.096 452.203 188.595 415.35 188.595C378.495 188.595 348.619 197.096 348.619 207.583C348.619 218.068 378.495 226.568 415.35 226.568C452.203 226.568 482.079 218.068 482.079 207.583Z" fill="white"/>
<path d="M405.708 206.488H358.693V205.613H405.708V206.488Z" fill="#2F3032"/>
<path d="M405.708 210.311H358.693V209.435H405.708V210.311Z" fill="#2F3032"/>
<path d="M405.708 214.132H368.948V213.257H405.708V214.132Z" fill="#2F3032"/>
<path d="M405.708 217.681H379.201V216.807H405.708V217.681Z" fill="#2F3032"/>
<path d="M424.201 206.488H471.216V205.613H424.201V206.488Z" fill="#2F3032"/>
<path d="M424.201 210.311H471.216V209.435H424.201V210.311Z" fill="#2F3032"/>
<path d="M424.201 214.132H460.961V213.257H424.201V214.132Z" fill="#2F3032"/>
<path d="M424.201 217.681H450.708V216.807H424.201V217.681Z" fill="#2F3032"/>
<path d="M422.019 221.62C422.019 220.413 418.581 219.436 414.344 219.436C410.104 219.436 406.668 220.413 406.668 221.62C406.668 222.827 410.104 223.804 414.344 223.804C418.581 223.804 422.019 222.827 422.019 221.62Z" fill="#EC173A"/>
<path d="M516.175 230.621L541.197 272.617L539.431 272.376L555.697 255.347L557.32 253.649L558.38 255.828L579.744 299.759L575.871 298.488L592.307 288.857L595.14 287.197L596.743 290.229L619.96 334.117L612.175 338.009L590.993 293.104L595.429 294.477L578.569 303.345L575.856 304.771L574.693 302.073L555.363 257.211L558.044 257.693L541.015 273.96L539.931 274.995L539.247 273.719L516.175 230.621" fill="white"/>
<path d="M563.238 169.739L611.245 160.519L610.417 162.097L599.948 141.003L598.905 138.9L601.314 138.645L649.896 133.524L647.381 136.733L643.925 117.999L643.33 114.771L646.728 114.295L695.898 107.42L696.906 116.064L647.47 120.68L650.273 116.979L652.866 135.851L653.284 138.887L650.35 139.061L601.586 141.952L602.953 139.596L612.446 161.149L613.049 162.52L611.617 162.728L563.238 169.739" fill="white"/>
<path d="M378.808 265.776L367.623 313.365L367.292 314.773L365.977 314.053L345.331 302.724L347.796 301.568L340.681 349.897L340.252 352.803L337.264 352.123L318.688 347.9L322.621 345.432L313.728 394.279L305.204 392.525L316.324 344.136L317.092 340.793L320.256 341.667L338.62 346.735L335.204 348.961L344.525 301.009L344.988 298.631L346.992 299.852L367.099 312.115L365.455 312.803L378.808 265.776" fill="white"/>
<path d="M284.13 184.523L242.763 210.572L241.539 211.344L241.109 209.908L234.35 187.348L236.919 188.255L197.932 217.689L195.588 219.459L193.936 216.877L183.667 200.833L188.2 201.833L147.584 230.389L142.743 223.157L184.626 196.491L187.518 194.649L189.159 197.492L198.683 213.991L194.687 213.179L234.982 185.561L236.981 184.192L237.551 186.469L243.268 209.315L241.614 208.651L284.13 184.523" fill="white"/>
<path d="M227.443 319.823L230.374 317.884C233.878 315.571 237.005 311.755 235.273 307.985C234.489 306.277 233.451 306.08 232.739 306.08C231.517 306.08 229.946 306.727 227.931 308.059L224.778 310.144L227.443 319.823ZM232.102 336.829L235.962 334.28C238.45 332.636 243.993 328.277 241.738 323.369C241.039 321.847 240.03 321.108 238.653 321.108C237.314 321.108 235.641 321.764 233.681 323.059L229.138 326.063L232.102 336.829ZM227.778 346.995C227.639 346.995 227.502 346.971 227.369 346.921C227.018 346.791 226.753 346.5 226.654 346.141L216.41 309.095C216.277 308.607 216.47 308.089 216.891 307.811L225.382 302.199C229.193 299.681 232.53 298.405 235.305 298.405C238.297 298.405 240.571 299.913 241.882 302.764C243.429 306.136 243.151 310.141 241.193 313.841L241.495 313.837C244.773 313.837 247.077 315.385 248.539 318.572C251.738 325.531 247.881 333.941 238.713 340L228.421 346.803C228.227 346.929 228.003 346.995 227.778 346.995" fill="#EF3821"/>
<path d="M230.487 326.569L234.324 324.032C236.524 322.579 237.894 322.273 238.654 322.273C239.295 322.273 240.039 322.461 240.68 323.855C242.559 327.945 237.556 331.828 235.319 333.308L232.799 334.972L230.487 326.569ZM226.126 310.651L228.574 309.031C230.367 307.847 231.768 307.245 232.739 307.245C233.079 307.245 233.65 307.245 234.214 308.472C235.639 311.573 232.69 314.957 229.732 316.913L228.14 317.965L226.126 310.651ZM235.304 297.239C232.298 297.239 228.743 298.58 224.739 301.225L216.248 306.839C215.406 307.396 215.018 308.431 215.288 309.404L225.531 346.452C225.731 347.171 226.262 347.752 226.96 348.013C227.226 348.113 227.503 348.161 227.778 348.161C228.23 348.161 228.678 348.031 229.064 347.776L239.355 340.973C249.028 334.579 253.05 325.595 249.598 318.084C248.176 314.985 245.952 313.204 242.972 312.773C244.395 309.217 244.418 305.495 242.942 302.279C241.448 299.029 238.736 297.239 235.304 297.239V297.239ZM231.406 338.688L236.604 335.253C241.492 332.021 244.922 327.505 242.798 322.881C241.946 321.025 240.583 319.943 238.654 319.943C237.14 319.943 235.279 320.607 233.039 322.087L227.791 325.557L231.406 338.688V338.688ZM226.747 321.683L231.018 318.857C235.648 315.796 238.135 311.423 236.332 307.499C235.458 305.593 234.16 304.915 232.739 304.915C230.924 304.915 228.904 306.019 227.288 307.087L223.428 309.639L226.747 321.683V321.683ZM235.304 299.571C237.68 299.571 239.63 300.656 240.823 303.251C242.324 306.521 242.047 311.029 238.907 315.289C239.844 315.101 240.704 315.003 241.495 315.003C244.275 315.003 246.179 316.223 247.479 319.057C250.611 325.872 246.303 333.585 238.071 339.028L227.779 345.831L217.535 308.784L226.024 303.171C229.342 300.98 232.599 299.571 235.304 299.571Z" fill="white"/>
<path d="M256.756 327.841C256.619 327.841 256.48 327.817 256.348 327.767C255.999 327.637 255.733 327.347 255.632 326.987L245.388 289.943C245.253 289.456 245.448 288.937 245.868 288.659L266.043 275.327C266.283 275.168 266.557 275.085 266.835 275.085C268.133 275.085 268.536 276.66 268.731 277.419L268.853 278.008C269.129 279.263 269.419 280.576 268.367 281.275L253.735 290.947L256.479 300.939L268.209 293.185C268.46 293.021 268.739 292.936 269.02 292.936C270.332 292.936 270.747 294.515 270.924 295.188L271.083 295.827C271.305 296.701 271.725 298.34 270.581 299.097L258.216 307.268L261.128 317.647L275.387 308.223C275.631 308.061 275.908 307.976 276.189 307.976C277.455 307.976 277.829 309.433 278.031 310.217L278.205 310.887C278.441 311.779 278.885 313.451 277.724 314.215L257.4 327.649C257.205 327.776 256.981 327.841 256.756 327.841" fill="#EF3821"/>
<path d="M266.837 273.919H266.835C266.329 273.919 265.833 274.069 265.401 274.356L245.229 287.687C244.386 288.244 243.997 289.28 244.266 290.253L254.511 327.297C254.71 328.016 255.241 328.596 255.941 328.859C256.205 328.957 256.482 329.007 256.758 329.007C257.209 329.007 257.657 328.876 258.043 328.621L278.37 315.187C280.226 313.957 279.599 311.593 279.333 310.584L279.158 309.919C278.943 309.076 278.362 306.809 276.191 306.809C275.681 306.809 275.179 306.963 274.742 307.253L261.819 315.793L259.571 307.772L271.225 300.072C273.059 298.853 272.445 296.44 272.211 295.532L272.061 294.923C271.85 294.119 271.23 291.771 269.022 291.771C268.513 291.771 268.011 291.923 267.574 292.209L257.179 299.08L255.083 291.453L269.01 282.248C270.731 281.107 270.286 279.083 269.99 277.743L269.886 277.236L269.861 277.129C269.658 276.335 269.038 273.919 266.837 273.919V273.919ZM266.837 276.249C267.131 276.249 267.383 276.853 267.602 277.707L267.713 278.244C267.958 279.355 268.085 280.064 267.723 280.304L252.387 290.44L255.782 302.799L268.853 294.159L269.022 294.103C269.311 294.103 269.569 294.612 269.797 295.484L269.954 296.108C270.205 297.096 270.297 297.888 269.939 298.127L256.866 306.764L260.438 319.501L276.031 309.196L276.191 309.141C276.47 309.141 276.687 309.669 276.903 310.508L277.078 311.18C277.351 312.212 277.446 313.003 277.085 313.241L256.758 326.676L246.514 289.632L266.687 276.299L266.837 276.249" fill="white"/>
<path d="M284.191 309.709C284.053 309.709 283.915 309.685 283.783 309.636C283.432 309.505 283.167 309.215 283.068 308.856L272.825 271.809C272.691 271.321 272.885 270.804 273.305 270.525L293.48 257.193C293.717 257.036 293.992 256.951 294.269 256.951C295.563 256.951 295.969 258.525 296.167 259.281L296.291 259.872C296.567 261.132 296.853 262.445 295.799 263.144L281.168 272.815L283.915 282.807L295.647 275.053C295.892 274.891 296.175 274.804 296.459 274.804C297.765 274.804 298.181 276.381 298.357 277.055L298.517 277.696C298.728 278.507 299.168 280.212 298.012 280.968L285.653 289.137L288.563 299.513L302.821 290.091C303.067 289.928 303.345 289.841 303.627 289.841C304.895 289.841 305.265 291.303 305.465 292.088L305.639 292.752C305.876 293.647 306.317 295.317 305.161 296.081L284.835 309.517C284.64 309.645 284.416 309.709 284.191 309.709" fill="#EF3821"/>
<path d="M294.271 255.785H294.27C293.763 255.785 293.266 255.936 292.835 256.223L272.664 269.553C271.822 270.109 271.432 271.147 271.702 272.12L281.946 309.167C282.144 309.885 282.676 310.467 283.375 310.728C283.639 310.828 283.916 310.876 284.192 310.876C284.643 310.876 285.091 310.745 285.478 310.489L305.804 297.053C307.66 295.824 307.034 293.46 306.766 292.451L306.592 291.787C306.379 290.947 305.803 288.676 303.627 288.676C303.116 288.676 302.615 288.829 302.178 289.12L289.254 297.66L287.007 289.641L298.66 281.937C300.504 280.728 299.88 278.308 299.646 277.396L299.494 276.788C299.283 275.985 298.664 273.639 296.46 273.639C295.944 273.639 295.44 273.792 295.002 274.084L284.615 280.948L282.516 273.32L296.443 264.116C298.164 262.976 297.722 260.952 297.428 259.612L297.319 259.093L297.295 258.989C297.07 258.113 296.466 255.785 294.271 255.785V255.785ZM294.271 258.117C294.566 258.116 294.818 258.72 295.038 259.573L295.151 260.109C295.395 261.223 295.518 261.931 295.158 262.171L279.822 272.308L283.218 284.665L296.291 276.027L296.46 275.969C296.747 275.969 297.002 276.48 297.232 277.352L297.388 277.977C297.642 278.965 297.735 279.757 297.375 279.993L284.303 288.633L287.871 301.368L303.464 291.063L303.627 291.008C303.906 291.008 304.124 291.536 304.336 292.375L304.512 293.048C304.787 294.081 304.88 294.869 304.518 295.109L284.192 308.545L273.95 271.497L294.124 258.165L294.271 258.117" fill="white"/>
<path d="M312.12 267.428C313.44 266.692 314.787 265.873 316.072 265.025C320.731 261.945 322.321 257.196 320.225 252.632C319.273 250.556 318.04 250.317 317.196 250.317C315.856 250.317 314.145 251.017 311.965 252.46L308.605 254.68L312.12 267.428ZM311.693 291.188C311.036 291.188 310.498 290.795 310.324 290.185L300.258 253.675C300.125 253.188 300.319 252.671 300.74 252.392L308.975 246.952C313.371 244.045 316.929 242.635 319.853 242.635C323.072 242.635 325.473 244.308 326.99 247.608C330.704 255.691 327.405 264.952 318.78 270.655C317.195 271.701 315.463 272.748 313.82 273.656L317.352 286.389C317.725 287.653 316.393 288.66 314.996 289.581L314.484 289.921C312.893 290.973 312.217 291.188 311.693 291.188" fill="#EF3821"/>
<path d="M309.955 255.185L312.608 253.433C314.565 252.139 316.108 251.483 317.197 251.483C317.624 251.483 318.416 251.483 319.168 253.117C321.033 257.183 319.636 261.271 315.428 264.053C314.585 264.609 313.716 265.152 312.845 265.668L309.955 255.185ZM319.855 241.468C316.693 241.469 312.924 242.944 308.332 245.98L300.097 251.42C299.256 251.976 298.867 253.012 299.135 253.984L309.196 290.484C309.523 291.615 310.524 292.353 311.693 292.353C312.585 292.353 313.516 291.957 315.127 290.895L315.643 290.551C316.855 289.752 319.12 288.259 318.465 286.04L315.188 274.225C316.611 273.416 318.069 272.521 319.421 271.628C328.547 265.596 332.013 255.748 328.051 247.123C325.903 242.449 322.408 241.468 319.855 241.468V241.468ZM311.387 269.151C313.169 268.216 315.016 267.119 316.715 265.997C321.911 262.561 323.601 257.187 321.287 252.144C320.269 249.931 318.795 249.151 317.197 249.151C315.223 249.151 313.057 250.34 311.323 251.488L307.257 254.173L311.387 269.151V269.151ZM319.853 243.8C322.429 243.8 324.536 245.06 325.932 248.096C329.191 255.191 326.783 263.967 318.136 269.683C316.336 270.872 314.336 272.068 312.449 273.073L316.229 286.701C316.349 287.107 315.691 287.727 314.353 288.608L313.841 288.949C312.817 289.625 312.067 290.023 311.693 290.023C311.56 290.023 311.475 289.972 311.444 289.864L301.383 253.365L309.619 247.925C313.396 245.428 316.928 243.8 319.853 243.8" fill="white"/>
<path d="M338.191 261.741C337.545 261.741 337.004 261.32 336.843 260.696L328.812 235.653C328.331 234.159 330.1 232.988 331.522 232.047L332.241 231.573C333.795 230.547 334.579 230.183 335.236 230.183C335.965 230.183 336.547 230.663 336.679 231.376L342.964 257.58C343.292 258.831 341.949 259.717 340.967 260.367L340.403 260.741C339.255 261.499 338.719 261.741 338.191 261.741V261.741ZM341.237 271.945C339.817 271.945 338.619 271.179 338.027 269.895C337.084 267.84 337.709 264.656 340.392 262.885C341.275 262.301 342.212 261.991 343.1 261.991C344.508 261.991 345.703 262.764 346.299 264.061C347.241 266.115 346.615 269.296 343.933 271.064C343.064 271.641 342.129 271.945 341.237 271.945Z" fill="#EF3821"/>
<path d="M335.238 229.017C334.311 229.017 333.394 229.416 331.601 230.6L330.882 231.075C329.317 232.109 326.955 233.672 327.703 236.009L335.741 261.081C336.067 262.177 337.041 262.907 338.193 262.907C338.321 262.907 338.446 262.899 338.571 262.883C336.571 264.907 335.855 267.956 336.969 270.38C337.754 272.091 339.35 273.112 341.238 273.112C342.361 273.112 343.517 272.74 344.579 272.036C347.782 269.924 348.509 266.075 347.358 263.575C346.569 261.853 344.975 260.825 343.102 260.825H343.101C342.823 260.825 342.543 260.848 342.262 260.895C343.301 260.141 344.529 258.964 344.089 257.267L337.809 231.08C337.545 229.861 336.499 229.017 335.238 229.017V229.017ZM343.101 263.156C344.049 263.156 344.83 263.655 345.239 264.549C345.947 266.085 345.506 268.632 343.294 270.092C342.587 270.559 341.878 270.78 341.238 270.78C340.291 270.78 339.497 270.296 339.087 269.408C338.338 267.772 338.925 265.252 341.034 263.859C341.757 263.38 342.466 263.156 343.101 263.156V263.156ZM335.238 231.348C335.411 231.348 335.505 231.432 335.533 231.589L341.833 257.852C341.926 258.216 341.405 258.681 340.326 259.395L339.758 259.771C338.947 260.307 338.454 260.576 338.193 260.576L337.973 260.404L329.923 235.299C329.762 234.793 330.518 234.111 332.166 233.02L332.886 232.545C334.142 231.716 334.87 231.348 335.238 231.348Z" fill="white"/>
<path d="M438.039 331.995C439.879 332.932 441.716 333.428 443.351 333.428H443.352C444.903 333.428 447.04 332.968 448.416 330.775C449.085 329.708 449.295 328.768 449.055 327.903C448.697 326.612 447.351 325.385 444.936 324.155L441.817 322.568L435.015 330.455L438.039 331.995ZM427.145 346.164C429.46 347.343 431.671 347.967 433.54 347.967C435.841 347.967 437.601 347.02 438.773 345.152C439.543 343.925 439.788 342.771 439.499 341.725C439.093 340.264 437.673 338.905 435.273 337.684L430.74 335.373L423.176 344.143L427.145 346.164ZM434.524 354.549C431.131 354.549 427.377 353.551 423.667 351.661L413.181 346.321C412.861 346.159 412.635 345.86 412.567 345.508C412.496 345.156 412.592 344.793 412.827 344.523L438.567 314.631C438.793 314.367 439.119 314.225 439.449 314.225C439.628 314.225 439.809 314.265 439.977 314.352L448.628 318.757C453.36 321.167 456.313 324.072 457.167 327.157C457.756 329.295 457.371 331.471 456.019 333.625C453.991 336.859 450.465 338.897 446.441 339.217C448.256 342.299 448.135 345.204 446.123 348.412C443.64 352.369 439.52 354.549 434.524 354.549" fill="#F5AB26"/>
<path d="M425.029 343.777L431.027 336.828L434.743 338.723C436.811 339.775 438.067 340.921 438.376 342.037C438.449 342.304 438.675 343.117 437.787 344.535C436.816 346.08 435.467 346.8 433.541 346.8C431.855 346.8 429.827 346.221 427.677 345.125L425.029 343.777ZM436.868 330.091L442.104 324.021L444.408 325.195C446.995 326.512 447.752 327.563 447.932 328.212C447.985 328.408 448.151 329.005 447.428 330.157C446.552 331.555 445.18 332.263 443.351 332.263C441.9 332.263 440.245 331.812 438.571 330.957L436.868 330.091ZM439.451 313.06C438.789 313.06 438.137 313.341 437.683 313.871L411.944 343.761C411.476 344.304 411.285 345.032 411.423 345.733C411.561 346.436 412.015 347.036 412.652 347.361L423.139 352.7C427.012 354.672 430.949 355.715 434.524 355.715C439.937 355.715 444.405 353.341 447.111 349.032C449.029 345.971 449.403 343.081 448.207 340.151C451.895 339.431 455.069 337.335 457.008 334.244C458.519 331.836 458.961 329.279 458.291 326.848C457.335 323.389 454.261 320.317 449.159 317.719L440.508 313.313C440.172 313.143 439.809 313.06 439.451 313.06ZM433.541 349.132C436.041 349.132 438.261 348.163 439.761 345.773C441.777 342.559 440.993 339.287 435.801 336.645L430.457 333.921L421.323 344.507L426.619 347.204C428.944 348.388 431.349 349.132 433.541 349.132ZM443.351 334.595C445.853 334.595 448.029 333.585 449.404 331.396C452.047 327.181 448.401 324.612 445.465 323.117L441.532 321.115L433.16 330.819L437.512 333.035C439.508 334.052 441.517 334.595 443.351 334.595V334.595ZM439.451 315.391L448.101 319.796C454.445 323.028 458.412 327.62 455.033 333.005C453.197 335.928 449.776 338.095 445.324 338.095C444.953 338.095 444.575 338.08 444.191 338.049C446.899 341.344 447.349 344.261 445.136 347.792C442.743 351.607 438.932 353.384 434.524 353.384C431.295 353.384 427.744 352.429 424.196 350.623L413.711 345.283L439.451 315.391" fill="white"/>
<path d="M464.104 372.068C463.859 372.068 463.627 372.013 463.412 371.904L442.7 361.353C442.382 361.191 442.155 360.891 442.086 360.54C442.016 360.188 442.112 359.824 442.347 359.553L468.087 329.663C468.314 329.399 468.639 329.259 468.97 329.259C469.15 329.259 469.331 329.299 469.499 329.384L490.051 339.853C490.447 340.053 490.72 340.417 490.802 340.849C490.95 341.635 490.455 342.384 489.667 343.267L489.239 343.707C488.443 344.539 487.75 345.261 486.868 345.261C486.623 345.261 486.388 345.207 486.172 345.095L471.366 337.553L464.339 345.689L476.328 351.796C476.734 352.003 477.014 352.373 477.098 352.811C477.259 353.647 476.682 354.447 476.034 355.188L475.57 355.696C474.747 356.615 474.024 357.233 473.199 357.233C472.956 357.233 472.724 357.179 472.511 357.071L460.011 350.705L452.742 359.2L467.31 366.62C467.711 366.823 467.99 367.189 468.072 367.624C468.231 368.463 467.622 369.227 466.983 369.939L466.511 370.471C465.672 371.428 464.939 372.068 464.104 372.068" fill="#F5AB26"/>
<path d="M468.971 328.092C468.308 328.092 467.659 328.373 467.204 328.901L441.462 358.793C440.995 359.336 440.803 360.063 440.942 360.764C441.079 361.467 441.532 362.067 442.171 362.392L462.884 372.941C463.255 373.132 463.679 373.233 464.106 373.233C465.519 373.233 466.543 372.203 467.392 371.235L467.858 370.709C468.646 369.831 469.474 368.771 469.219 367.409C469.071 366.616 468.566 365.948 467.835 365.579L454.591 358.833L460.299 352.159L471.979 358.108C472.358 358.3 472.778 358.4 473.2 358.4C474.596 358.4 475.608 357.4 476.448 356.463L476.875 355.997C477.714 355.04 478.498 353.924 478.243 352.593C478.092 351.8 477.59 351.132 476.864 350.761L466.194 345.325L471.651 339.008L485.647 346.136C486.018 346.327 486.443 346.428 486.868 346.428C488.247 346.428 489.183 345.452 490.09 344.507L490.468 344.116L490.536 344.044C491.418 343.056 492.198 341.96 491.948 340.632C491.798 339.841 491.298 339.179 490.575 338.812L470.028 328.345C469.692 328.175 469.331 328.092 468.971 328.092V328.092ZM468.97 330.424L489.522 340.892C489.891 341.079 489.491 341.715 488.796 342.491L488.406 342.893C487.712 343.617 487.226 344.097 486.868 344.097L486.706 344.059L471.082 336.1L462.484 346.052L475.8 352.835C476.167 353.023 475.88 353.595 475.156 354.421L474.711 354.908C474.108 355.581 473.572 356.068 473.2 356.068L473.038 356.031L459.722 349.248L450.896 359.567L466.783 367.659C467.15 367.845 466.808 368.388 466.115 369.161L465.639 369.697C465.012 370.412 464.475 370.903 464.106 370.903L463.943 370.865L443.23 360.315L468.97 330.424" fill="white"/>
<path d="M492.051 386.301C491.807 386.301 491.574 386.247 491.36 386.137L470.647 375.589C470.328 375.427 470.102 375.127 470.032 374.775C469.962 374.424 470.059 374.06 470.294 373.789L496.035 343.897C496.262 343.633 496.587 343.492 496.918 343.492C497.098 343.492 497.279 343.533 497.447 343.619L517.998 354.085C518.395 354.288 518.668 354.651 518.748 355.083C518.896 355.868 518.4 356.617 517.612 357.5L517.187 357.939C516.39 358.771 515.695 359.496 514.814 359.496C514.571 359.496 514.339 359.44 514.124 359.331L499.312 351.788L492.284 359.923L504.278 366.029C504.683 366.237 504.963 366.607 505.047 367.045C505.207 367.884 504.628 368.683 503.979 369.423L503.518 369.927C502.696 370.847 501.974 371.467 501.148 371.467C500.902 371.467 500.666 371.409 500.45 371.299L487.958 364.935L480.687 373.433L495.258 380.852C495.663 381.059 495.939 381.427 496.019 381.86C496.16 382.616 495.707 383.307 494.931 384.172L494.456 384.707C493.616 385.661 492.884 386.301 492.051 386.301" fill="#F5AB26"/>
<path d="M496.919 342.327C496.257 342.327 495.607 342.609 495.151 343.137L469.41 373.028C468.943 373.571 468.751 374.297 468.89 375C469.027 375.703 469.481 376.303 470.119 376.627L490.831 387.176C491.209 387.368 491.629 387.467 492.051 387.467C493.465 387.467 494.489 386.435 495.338 385.469L495.802 384.948C496.594 384.063 497.418 383.003 497.166 381.647C497.019 380.856 496.519 380.189 495.795 379.817L482.537 373.067L488.246 366.391L499.926 372.34C500.295 372.531 500.722 372.632 501.149 372.632C502.485 372.632 503.499 371.7 504.399 370.691L504.822 370.229C505.659 369.276 506.447 368.161 506.193 366.828C506.042 366.035 505.539 365.367 504.814 364.993L494.139 359.559L499.598 353.241L513.594 360.369C513.973 360.561 514.394 360.661 514.814 360.661C516.194 360.661 517.13 359.685 518.035 358.74L518.415 358.349L518.483 358.277C519.362 357.291 520.142 356.197 519.895 354.871C519.749 354.083 519.253 353.419 518.534 353.049L497.976 342.581C497.639 342.409 497.278 342.327 496.919 342.327V342.327ZM496.918 344.659L517.469 355.124C517.837 355.312 517.436 355.948 516.743 356.725L516.351 357.127C515.658 357.852 515.171 358.331 514.814 358.331L514.651 358.292L499.027 350.335L490.43 360.287L503.749 367.068C504.117 367.256 503.83 367.827 503.105 368.652L502.658 369.14C502.058 369.813 501.519 370.301 501.149 370.301L500.985 370.261L487.669 363.48L478.842 373.801L494.73 381.891C495.097 382.079 494.754 382.623 494.065 383.395L493.585 383.931C492.959 384.645 492.422 385.136 492.051 385.136L491.889 385.097L471.178 374.549L496.918 344.659" fill="white"/>
<path d="M518.325 376.381C519.571 377.151 520.895 377.899 522.216 378.573C523.777 379.368 525.339 379.771 526.855 379.771C529.844 379.771 532.489 378.179 534.303 375.285C535.111 373.999 535.364 372.872 535.079 371.839C534.681 370.401 533.211 369.052 530.584 367.715L527.259 366.021L518.325 376.381ZM503.963 392.111C503.351 392.111 502.576 391.849 501.372 391.236L500.851 390.971C499.117 390.089 498.447 389.508 498.293 388.752C498.205 388.328 498.315 387.895 498.593 387.563L523.981 358.128C524.209 357.865 524.533 357.724 524.864 357.724C525.044 357.724 525.225 357.764 525.393 357.851L533.783 362.124C539.225 364.896 542.311 367.839 543.217 371.119C543.859 373.439 543.388 375.887 541.815 378.393C538.667 383.415 533.572 386.293 527.841 386.293C524.844 386.293 521.797 385.516 518.791 383.984C517.203 383.176 515.552 382.245 514.053 381.313L505.248 391.556C505.079 391.757 504.676 392.111 503.963 392.111" fill="#F5AB26"/>
<path d="M520.112 376.095L527.546 367.475L530.056 368.753C532.343 369.917 533.654 371.059 533.956 372.149C534.026 372.407 534.243 373.188 533.315 374.665C531.723 377.207 529.428 378.604 526.855 378.604C525.524 378.604 524.142 378.245 522.744 377.533C521.862 377.083 520.975 376.597 520.112 376.095V376.095ZM524.866 356.559C524.204 356.559 523.555 356.84 523.1 357.368L497.723 386.789C497.194 387.417 496.992 388.208 497.15 388.984C497.419 390.301 498.516 391.092 500.324 392.009L500.847 392.275C502.239 392.985 503.144 393.276 503.964 393.276C504.843 393.276 505.619 392.928 506.15 392.296L514.294 382.823C515.58 383.596 516.944 384.352 518.262 385.024C521.435 386.64 524.659 387.46 527.842 387.46C533.983 387.46 539.436 384.38 542.803 379.012C544.558 376.217 545.074 373.457 544.343 370.808C543.344 367.195 540.063 364.015 534.314 361.085L525.923 356.813C525.587 356.641 525.226 356.559 524.866 356.559V356.559ZM526.855 380.936C530.218 380.936 533.239 379.177 535.291 375.905C538.299 371.109 534.315 368.305 531.115 366.676L526.974 364.567L516.564 376.641C518.182 377.704 519.958 378.729 521.686 379.611C523.442 380.504 525.19 380.936 526.855 380.936V380.936ZM524.864 358.891L533.255 363.163C540.49 366.848 544.778 371.481 540.83 377.773C537.951 382.363 533.26 385.128 527.842 385.128C525.138 385.128 522.252 384.439 519.32 382.945C517.483 382.011 515.55 380.904 513.828 379.788L504.366 390.796C504.28 390.896 504.147 390.945 503.964 390.945C503.542 390.945 502.855 390.683 501.904 390.197L501.38 389.931C499.963 389.211 499.206 388.648 499.488 388.312L524.864 358.891" fill="white"/>
<path d="M539.939 398.683C539.407 398.683 538.798 398.477 537.766 397.949L537.191 397.657C536.091 397.096 535.302 396.637 535.142 395.816C535.059 395.391 535.181 394.955 535.472 394.619L552.366 373.413C552.552 373.179 552.983 372.779 553.759 372.779C554.439 372.779 555.275 373.071 556.743 373.819L557.475 374.191C559.206 375.072 560.109 375.687 560.249 376.603C560.321 377.072 560.159 377.54 559.806 377.884L541.141 398.173C540.867 398.491 540.433 398.683 539.939 398.683ZM532.87 407.205C532.001 407.205 531.151 406.996 530.347 406.588C529.142 405.973 528.305 405.005 527.989 403.863C527.703 402.829 527.873 401.741 528.465 400.799C529.394 399.316 531.118 398.393 532.961 398.393C533.835 398.393 534.682 398.599 535.478 399.004C536.693 399.623 537.535 400.587 537.85 401.717C538.133 402.745 537.962 403.835 537.365 404.789C536.445 406.257 534.681 407.205 532.87 407.205" fill="#F5AB26"/>
<path d="M553.76 371.613C552.819 371.613 551.998 371.997 551.447 372.697L534.547 393.909C534.051 394.509 533.851 395.28 533.998 396.036C534.115 396.637 534.411 397.105 534.795 397.485C534.2 397.316 533.587 397.228 532.962 397.228C530.719 397.228 528.619 398.36 527.476 400.18C526.71 401.403 526.492 402.82 526.866 404.173C527.27 405.636 528.318 406.863 529.818 407.625C530.788 408.12 531.815 408.371 532.87 408.371C535.072 408.371 537.226 407.208 538.352 405.409C539.127 404.173 539.347 402.753 538.972 401.407C538.747 400.595 538.32 399.856 537.722 399.227C538.523 399.607 539.232 399.848 539.94 399.848C540.759 399.848 541.494 399.529 542.015 398.947L560.683 378.656C561.264 378.051 561.526 377.244 561.402 376.427C561.166 374.879 559.726 374.029 558.01 373.153L557.267 372.777C555.604 371.929 554.651 371.613 553.76 371.613V371.613ZM532.962 399.56C533.614 399.56 534.292 399.708 534.951 400.043C536.786 400.977 537.283 402.723 536.376 404.171C535.72 405.219 534.386 406.04 532.87 406.04C532.226 406.04 531.548 405.891 530.875 405.548C529.091 404.64 528.542 402.869 529.454 401.419C530.139 400.323 531.484 399.56 532.962 399.56V399.56ZM553.76 373.944C554.254 373.944 555.054 374.265 556.215 374.859L556.951 375.231C558.838 376.193 559.355 376.696 558.992 377.051L540.284 397.384C540.207 397.475 540.092 397.517 539.94 397.517C539.598 397.517 539.059 397.301 538.296 396.912L537.722 396.619C536.516 396.004 536.102 395.671 536.352 395.383L553.279 374.14C553.382 374.008 553.54 373.944 553.76 373.944" fill="white"/>
<path d="M633.31 251.455L636.954 250.06C639.768 248.983 641.707 247.416 642.274 245.764C642.623 244.748 642.459 243.672 641.79 242.568C640.82 240.971 639.41 240.195 637.478 240.195C636.19 240.195 634.68 240.533 632.858 241.228L629.703 242.436L633.31 251.455ZM639.588 267.232L644.251 265.447C647.722 264.116 649.974 262.384 650.595 260.569C650.956 259.516 650.775 258.416 650.042 257.207C648.919 255.357 647.198 254.419 644.928 254.419C643.563 254.419 641.995 254.755 640.267 255.416L635.582 257.209L639.588 267.232ZM635.196 275.627C634.735 275.627 634.296 275.349 634.115 274.895L620.322 240.503C620.206 240.213 620.211 239.888 620.336 239.603C620.462 239.317 620.695 239.093 620.987 238.981L630.359 235.391C633.634 234.137 636.636 233.5 639.282 233.5C643.502 233.5 646.746 235.172 648.664 238.335C650.615 241.547 650.532 245.156 648.558 248.193C652.554 248.587 655.251 250.228 657.159 253.373C658.815 256.101 659.204 258.961 658.288 261.641C656.96 265.519 652.943 268.912 646.975 271.197L635.614 275.549C635.476 275.601 635.336 275.627 635.196 275.627" fill="#EC173A"/>
<path d="M637.105 257.876L640.684 256.505C642.279 255.895 643.707 255.584 644.929 255.584C646.815 255.584 648.123 256.292 649.045 257.813C649.769 259.005 649.646 259.741 649.493 260.193C648.993 261.653 646.93 263.172 643.835 264.359L640.245 265.732L637.105 257.876ZM631.226 243.103L633.276 242.317C634.962 241.673 636.336 241.36 637.479 241.36C639.011 241.36 640.034 241.919 640.795 243.173C641.445 244.247 641.322 244.951 641.173 245.385C640.725 246.691 638.993 248.032 636.537 248.972L633.966 249.956L631.226 243.103ZM639.283 232.335C636.494 232.335 633.351 232.997 629.943 234.303L620.571 237.892C619.987 238.115 619.518 238.564 619.269 239.136C619.018 239.708 619.008 240.357 619.24 240.936L633.034 275.328C633.399 276.237 634.273 276.792 635.198 276.792C635.475 276.792 635.757 276.743 636.031 276.637L647.394 272.287C653.689 269.875 657.951 266.228 659.393 262.019C660.425 259.001 659.998 255.803 658.156 252.769C656.351 249.795 653.835 248.008 650.381 247.293C651.746 244.239 651.539 240.824 649.662 237.729C647.521 234.2 643.933 232.335 639.283 232.335V232.335ZM638.934 268.731L644.67 266.535C650.066 264.467 653.723 261.029 651.038 256.604C649.77 254.512 647.761 253.253 644.929 253.253C643.462 253.253 641.772 253.592 639.851 254.328L634.062 256.544L638.934 268.731V268.731ZM632.655 252.955L637.37 251.149C642.481 249.192 645.066 245.721 642.789 241.964C641.442 239.744 639.49 239.028 637.479 239.028C635.724 239.028 633.925 239.573 632.442 240.14L628.183 241.771L632.655 252.955V252.955ZM639.283 234.667C642.81 234.667 645.822 235.895 647.669 238.939C649.567 242.067 649.507 246.004 646.169 249.267C646.294 249.265 646.416 249.264 646.54 249.264C651.114 249.264 654.103 250.583 656.165 253.979C660.125 260.505 655.646 266.629 646.561 270.109L635.197 274.46L621.405 240.068L630.778 236.48C633.719 235.352 636.645 234.667 639.283 234.667" fill="white"/>
<path d="M667.175 263.379C666.712 263.379 666.275 263.101 666.092 262.648L652.299 228.256C652.183 227.967 652.188 227.641 652.314 227.356C652.439 227.069 652.674 226.845 652.964 226.733L675.234 218.204C675.366 218.152 675.626 218.104 675.767 218.104C677.046 218.104 677.618 219.624 677.862 220.273L678.039 220.807C678.399 221.888 678.942 223.524 677.476 224.085L661.652 230.145L665.363 239.455L678.722 234.337C678.904 234.268 679.088 234.235 679.275 234.235C680.564 234.235 681.131 235.704 681.375 236.331L681.595 236.924C681.919 237.779 682.178 238.68 681.85 239.405C681.684 239.772 681.388 240.053 681.015 240.195L667.694 245.297L671.616 254.965L687.763 248.781C687.94 248.713 688.127 248.679 688.314 248.679C689.564 248.679 690.087 250.088 690.338 250.764L690.574 251.375C690.819 252.007 690.952 252.485 690.996 252.884C691.136 254.177 690.295 254.608 690.034 254.708L667.591 263.303C667.455 263.355 667.314 263.379 667.175 263.379" fill="#EC173A"/>
<path d="M675.768 216.939C675.447 216.939 675.128 216.997 674.827 217.111L652.548 225.645C651.964 225.868 651.496 226.316 651.245 226.888C650.996 227.461 650.985 228.109 651.219 228.689L665.012 263.081C665.376 263.991 666.249 264.545 667.176 264.545C667.453 264.545 667.735 264.496 668.009 264.391L690.448 255.799C691.115 255.543 691.639 255.043 691.929 254.389C692.427 253.268 692.095 252.076 691.663 250.956L691.42 250.329C691.141 249.579 690.372 247.512 688.313 247.512C687.981 247.512 687.653 247.573 687.34 247.696L672.267 253.468L669.221 245.961L681.436 241.283C682.092 241.035 682.621 240.537 682.913 239.884C683.415 238.771 683.099 237.6 682.681 236.5L682.473 235.941C682.189 235.207 681.361 233.069 679.275 233.069C678.947 233.069 678.624 233.128 678.315 233.245L666.019 237.955L663.173 230.812L677.895 225.175C680.399 224.212 679.488 221.469 679.144 220.437L678.987 219.957L678.953 219.861C678.652 219.061 677.851 216.939 675.768 216.939V216.939ZM675.768 219.269C676.123 219.269 676.461 219.86 676.772 220.684L676.932 221.173C677.273 222.2 677.456 222.845 677.06 222.997L660.131 229.48L664.705 240.955L679.139 235.427L679.275 235.4C679.623 235.4 679.959 235.9 680.288 236.752L680.501 237.328C680.849 238.241 680.999 238.956 680.603 239.105L666.168 244.635L670.964 256.463L688.181 249.871L688.313 249.844C688.653 249.844 688.944 250.359 689.245 251.171L689.488 251.796C689.857 252.753 690.009 253.469 689.615 253.621L667.175 262.213L653.383 227.821L675.651 219.292L675.768 219.269" fill="white"/>
<path d="M697.453 251.784C696.99 251.784 696.553 251.507 696.37 251.052L682.577 216.66C682.462 216.372 682.466 216.045 682.592 215.761C682.717 215.475 682.952 215.251 683.242 215.139L705.512 206.608C705.644 206.557 705.906 206.508 706.049 206.508C707.328 206.508 707.897 208.029 708.14 208.677L708.316 209.212C708.676 210.296 709.22 211.936 707.75 212.491L691.929 218.551L695.64 227.859L709 222.743C709.178 222.673 709.364 222.64 709.553 222.64C710.844 222.64 711.409 224.109 711.652 224.737L711.87 225.327C712.12 225.979 712.884 227.988 711.3 228.599L697.973 233.705L701.893 243.371L718.04 237.184C718.22 237.115 718.404 237.081 718.589 237.081C719.84 237.081 720.362 238.491 720.616 239.168L720.85 239.777C721.248 240.804 721.449 241.628 721.141 242.319C720.976 242.689 720.68 242.971 720.304 243.113L697.869 251.707C697.733 251.76 697.592 251.784 697.453 251.784" fill="#EC173A"/>
<path d="M706.048 205.343C705.72 205.343 705.398 205.403 705.09 205.521L682.826 214.049C682.242 214.272 681.773 214.721 681.522 215.293C681.273 215.865 681.264 216.515 681.496 217.095L695.289 251.485C695.653 252.396 696.528 252.951 697.453 252.951C697.73 252.951 698.013 252.9 698.288 252.795L720.725 244.201C721.385 243.951 721.913 243.451 722.205 242.796C722.706 241.675 722.373 240.481 721.94 239.357L721.698 238.735C721.418 237.984 720.649 235.916 718.589 235.916C718.261 235.916 717.938 235.976 717.628 236.093L702.544 241.873L699.501 234.368L711.716 229.689C712.518 229.38 714.246 228.297 712.96 224.905L712.752 224.347C712.468 223.612 711.64 221.473 709.553 221.473C709.221 221.473 708.894 221.535 708.58 221.655L696.297 226.359L693.45 219.216L708.172 213.579C710.678 212.631 709.734 209.78 709.422 208.844L709.262 208.357L709.232 208.268C708.961 207.545 708.136 205.343 706.048 205.343V205.343ZM706.048 207.675C706.402 207.673 706.74 208.263 707.048 209.087L707.21 209.577C707.55 210.603 707.734 211.252 707.338 211.401L690.409 217.884L694.984 229.359L709.416 223.831L709.553 223.805C709.901 223.805 710.237 224.307 710.566 225.156L710.78 225.733C711.126 226.645 711.276 227.36 710.881 227.512L696.446 233.04L701.242 244.868L718.457 238.273L718.589 238.247C718.93 238.247 719.221 238.761 719.522 239.575L719.764 240.199C720.134 241.157 720.289 241.873 719.89 242.024L697.453 250.619L683.66 216.227L705.928 207.697L706.048 207.675" fill="white"/>
<path d="M726.94 218.787C728.534 218.321 730.171 217.772 731.73 217.176C734.287 216.196 735.962 214.729 736.576 212.935C737.139 211.291 736.795 209.364 735.582 207.363C734.431 205.464 732.795 204.54 730.584 204.54C729.187 204.54 727.552 204.907 725.587 205.659L722.207 206.955L726.94 218.787ZM727.931 239.865C726.907 239.865 726.528 239.237 726.412 238.967L712.852 205.063C712.738 204.773 712.742 204.449 712.867 204.163C712.992 203.877 713.227 203.653 713.518 203.541L722.611 200.059C726.472 198.58 729.732 197.861 732.574 197.861C737.062 197.861 740.454 199.701 742.654 203.331C744.826 206.908 745.362 210.588 744.204 213.971C742.887 217.817 739.496 220.883 734.399 222.836C732.739 223.472 730.951 224.081 729.246 224.593L733.852 236.049C733.999 236.399 733.995 236.803 733.838 237.171C733.55 237.843 732.848 238.311 731.154 238.959L730.588 239.176C729.347 239.652 728.527 239.865 727.931 239.865" fill="#EC173A"/>
<path d="M723.73 207.62L726.005 206.748C727.835 206.048 729.334 205.707 730.585 205.707C732.405 205.707 733.638 206.404 734.585 207.967C735.303 209.151 736.039 210.905 735.474 212.559C734.975 214.015 733.537 215.235 731.313 216.088C730.109 216.548 728.861 216.98 727.629 217.363L723.73 207.62ZM732.575 196.696C729.587 196.696 726.191 197.44 722.194 198.971L713.102 202.455C712.518 202.677 712.05 203.125 711.799 203.697C711.55 204.269 711.539 204.917 711.771 205.497L725.321 239.375C725.775 240.432 726.742 241.031 727.931 241.031C728.686 241.031 729.606 240.801 731.005 240.265L731.575 240.045C733.315 239.38 734.421 238.771 734.909 237.631C735.193 236.971 735.198 236.245 734.923 235.589L730.799 225.332C732.153 224.9 733.525 224.42 734.817 223.925C741.678 221.297 744.309 217.267 745.307 214.349C746.563 210.681 745.975 206.553 743.653 202.725C741.226 198.725 737.499 196.696 732.575 196.696ZM726.249 220.192C728.233 219.655 730.271 218.983 732.147 218.265C737.885 216.067 739.51 211.588 736.578 206.759C735.023 204.193 732.825 203.375 730.585 203.375C728.687 203.375 726.761 203.963 725.171 204.571L720.685 206.289L726.249 220.192V220.192ZM732.574 199.028C736.35 199.027 739.525 200.417 741.659 203.935C745.782 210.731 743.523 218.093 733.982 221.748C731.993 222.511 729.778 223.249 727.683 223.832L732.773 236.485C732.93 236.865 732.214 237.305 730.739 237.871L730.171 238.089C729.163 238.475 728.389 238.699 727.931 238.699C727.693 238.699 727.541 238.639 727.485 238.509L713.937 204.631L723.027 201.148C726.43 199.845 729.679 199.028 732.574 199.028" fill="white"/>
<path d="M756.448 218.116C755.763 218.116 755.219 217.763 754.992 217.171L744.408 193.751C744.235 193.368 744.227 192.939 744.388 192.545C744.728 191.717 745.698 191.217 747.486 190.533L748.283 190.228C749.684 189.689 750.546 189.46 751.16 189.46C752.359 189.46 752.706 190.304 752.783 190.563L761.44 214.731C761.568 215.059 761.558 215.449 761.402 215.801C761.104 216.473 760.372 216.859 759.128 217.336L758.502 217.576C757.47 217.971 756.913 218.116 756.448 218.116V218.116ZM761.007 227.663C759.236 227.663 757.686 226.853 756.863 225.495C756.219 224.431 756.074 223.164 756.466 222.019C756.899 220.76 757.923 219.764 759.353 219.215C760.057 218.945 760.777 218.811 761.495 218.811C763.243 218.811 764.782 219.624 765.608 220.987C766.256 222.055 766.401 223.327 766.007 224.48C765.58 225.725 764.555 226.715 763.119 227.265C762.434 227.529 761.723 227.663 761.007 227.663" fill="#EC173A"/>
<path d="M751.162 188.295C750.385 188.295 749.43 188.54 747.865 189.14L747.071 189.444C744.97 190.248 743.813 190.88 743.311 192.101C743.026 192.795 743.039 193.551 743.349 194.232L753.942 217.68C754.362 218.672 755.314 219.283 756.45 219.283C756.639 219.283 756.833 219.265 757.033 219.233C756.257 219.887 755.685 220.704 755.363 221.641C754.859 223.115 755.043 224.739 755.866 226.099C756.905 227.808 758.826 228.828 761.009 228.828C761.866 228.828 762.718 228.668 763.538 228.353C765.299 227.679 766.57 226.436 767.111 224.857C767.618 223.379 767.434 221.747 766.607 220.383C765.566 218.667 763.655 217.644 761.497 217.644H761.495L761.206 217.651C761.753 217.308 762.201 216.876 762.467 216.275C762.75 215.637 762.767 214.929 762.517 214.283L753.874 190.145C753.498 189.017 752.442 188.295 751.162 188.295V188.295ZM761.495 219.976C762.83 219.976 763.999 220.579 764.614 221.591C765.509 223.067 765.147 225.24 762.702 226.177C762.137 226.395 761.561 226.496 761.009 226.496C759.675 226.496 758.474 225.901 757.861 224.891C756.913 223.327 757.443 221.196 759.774 220.303C760.356 220.08 760.941 219.976 761.495 219.976V219.976ZM751.162 190.627C751.459 190.627 751.615 190.72 751.667 190.897L760.343 215.124C760.472 215.46 759.904 215.791 758.712 216.247L758.087 216.485C757.289 216.792 756.765 216.952 756.45 216.952C756.249 216.952 756.133 216.887 756.082 216.756L745.471 193.271C745.259 192.801 746.085 192.317 747.905 191.621L748.699 191.317C749.933 190.844 750.71 190.627 751.162 190.627" fill="white"/>
</svg>
