<svg width="849" height="480" viewBox="0 0 849 480" fill="none" xmlns="http://www.w3.org/2000/svg">
<path d="M656.1 63.5926H192.048C110.523 63.5926 40.8712 114.394 13.002 186.065L845.993 284.461C847.408 275.059 848.147 265.437 848.147 255.641V255.639C848.147 149.575 762.163 63.5926 656.1 63.5926" fill="#FAB329"/>
<path d="M845.993 284.461L13.0016 186.065C4.61094 207.638 0 231.099 0 255.639V255.641C0 361.705 85.9836 447.686 192.048 447.686H656.1C752.368 447.686 832.088 376.851 845.993 284.461" fill="#3E4B80"/>
<path d="M341.284 454.162C340.431 451.925 339.472 449.765 338.426 447.686H340.871C341.123 450.365 341.236 452.557 341.284 454.162Z" fill="#46A59B"/>
<path d="M340.872 447.686H338.427C325.672 422.357 299.595 408.698 285.024 402.763C270.804 400.037 256.776 397.835 248.379 397.486C247.765 397.461 247.089 397.447 246.357 397.447C224.308 397.447 150.023 408.679 141.568 410.986C136.903 412.258 126.237 414.437 116.705 414.437C108.388 414.437 100.933 412.778 99.0841 407.413C95.1121 395.897 105.436 394.31 103.451 386.766C101.465 379.222 146.333 369.294 146.333 369.294C146.333 369.294 163.381 369.118 187.72 369.029L194.587 388.103C194.587 388.103 205.235 385.822 205.995 382.018C206.176 381.113 206.529 380.767 206.964 380.767C208.351 380.767 210.559 384.299 210.559 384.299L250.86 369.083C260.201 369.143 269.537 369.23 278.563 369.354L274.447 388.103C274.447 388.103 303.633 394.693 326.727 399.005C329.363 404.234 331.525 409.363 333.296 414.271C331.852 413.874 330.409 413.434 328.981 412.971C323.371 411.157 311.791 408.313 298.809 405.551C323.839 416.751 336.017 436.698 340.771 446.663C340.807 447.011 340.84 447.353 340.872 447.686ZM345.416 416.193C342.692 416.193 339.856 415.806 336.995 415.187C335.288 410.229 333.197 405.035 330.635 399.722C340.184 401.445 348.243 402.655 352.032 402.655C352.657 402.655 353.167 402.623 353.548 402.554C357.941 401.755 362.753 393.617 366.223 383.534C368.412 388.438 367.525 394.753 363.923 403.442C359.916 413.106 353.109 416.193 345.416 416.193" fill="#2D3960"/>
<path d="M229.436 55.9446C229.436 55.9446 223.745 44.8781 225.958 40.1354C228.172 35.3927 231.966 34.7607 229.121 28.4367C226.274 22.114 235.128 16.4221 243.665 16.1061C252.202 15.7901 255.996 10.414 258.21 6.62069C260.424 2.82602 274.018 0.296742 280.026 4.40741C286.034 8.51674 290.46 6.93676 298.365 4.09009C306.269 1.24476 311.645 0.296753 316.07 7.88475C320.497 15.4741 323.342 18.3194 330.932 17.054C338.52 15.79 344.528 17.37 344.528 27.8047C344.528 38.238 349.269 38.5553 350.536 45.51C351.8 52.4673 340.733 57.842 340.733 57.842L229.436 55.9446" fill="#1C110F"/>
<path d="M124.613 251.198L174.052 265.65L304.87 292.27L351.265 270.214L379.406 312.045C379.406 312.045 342.138 358.441 309.434 364.525C276.729 370.61 166.445 364.525 166.445 364.525C166.445 364.525 97.2316 327.257 86.585 289.989L124.613 251.198Z" fill="#120B0E"/>
<path d="M195.845 130.378L357.26 155.515L312.276 245.485L309.63 293.115C309.63 293.115 226.532 378.215 177.322 270.623L195.845 130.378Z" fill="#1B4A54"/>
<path d="M309.808 289.923L310.384 279.55C310.392 279.549 310.4 279.549 310.406 279.547L309.813 289.921L309.808 289.923V289.923ZM311.746 255.025L312.276 245.485L323.013 224.01L312.093 250.099L311.812 255.015C311.79 255.018 311.766 255.022 311.746 255.025" fill="#172D3E"/>
<path d="M309.702 291.819L309.807 289.923L309.813 289.921L309.705 291.818L309.702 291.819" fill="#0B161B"/>
<path d="M249.597 318.175C245.744 318.175 242.056 317.826 238.525 317.186C235.897 315.862 233.29 314.326 230.523 312.281C226.91 309.611 223.688 306.17 220.878 302.342C232.226 307.006 242.806 308.315 250.973 308.315C258.424 308.315 263.87 307.226 266.054 306.602C270.48 305.337 270.703 302.161 270.187 299.846C277.935 297.458 286.103 293.177 289.784 281.209C289.784 281.209 298.828 280.631 310.384 279.55L309.808 289.923L309.703 291.819L262.55 315.587L252.451 318.111C251.488 318.155 250.541 318.175 249.597 318.175V318.175ZM227.801 314.226C214.939 309.419 204.709 300.915 197.16 292.639C198.095 291.734 198.944 290.689 199.687 289.643C204.886 293.875 210.135 297.199 215.28 299.787C218.435 304.875 222.572 310.15 227.801 314.226V314.226ZM251.786 298.246C233.36 296.982 220.64 288.125 213.969 282.045C214.545 281.954 215.133 281.862 215.732 281.77C225.692 288.083 237.405 291.029 248.007 292.269C248.217 292.71 248.444 293.157 248.684 293.603C249.552 295.221 250.603 296.838 251.786 298.246V298.246ZM299.94 256.545L330.927 205.106L323.014 224.01L312.276 245.485L311.747 255.025C307.759 255.571 303.725 256.085 299.94 256.545Z" fill="#102C32"/>
<path d="M281.292 356.919C281.292 356.919 301.068 359.962 323.124 356.158C345.181 352.355 370.28 337.905 371.041 355.398C371.801 372.89 361.914 401.033 353.548 402.554C345.181 404.075 274.446 388.103 274.446 388.103L281.292 356.919" fill="#779ABF"/>
<path d="M185.459 350.074C185.459 350.074 154.275 356.919 133.739 355.398C113.205 353.877 107.119 340.947 104.838 356.919C102.555 372.891 113.031 404.478 124.147 403.895C135.262 403.314 194.586 381.258 194.586 381.258L185.459 350.074" fill="#779ABF"/>
<path d="M205.234 337.905L231.854 331.059L325.406 283.903C325.406 283.903 352.786 264.889 366.477 265.65C380.166 266.41 391.576 273.255 390.814 291.509C390.054 309.763 372.561 318.89 361.153 324.974C349.745 331.059 306.39 350.074 306.39 350.074C306.39 350.074 296.504 344.75 296.504 350.074C296.504 355.398 292.701 356.158 291.94 353.117C291.18 350.074 285.095 356.158 285.095 356.158L210.558 384.299C210.558 384.299 206.755 378.215 205.994 382.018C205.234 385.822 194.586 388.103 194.586 388.103L180.896 350.074L205.234 337.905" fill="#281214"/>
<path d="M88.1054 262.607C88.1054 262.607 107.88 244.354 129.177 251.959C150.473 259.565 205.235 302.158 205.235 302.158L211.32 314.327L216.644 312.045C216.644 312.045 223.489 312.806 223.489 317.369C223.489 321.933 221.968 325.735 225.769 321.933C229.573 318.13 234.897 331.821 234.897 331.821L247.067 330.299C247.067 330.299 247.827 343.229 249.348 340.186C250.869 337.143 288.899 357.679 288.899 357.679L275.969 394.947L240.221 379.737C240.221 379.737 240.983 369.849 237.939 373.653C234.897 377.454 232.616 375.934 231.095 372.13C229.573 368.329 123.853 325.735 123.853 325.735C123.853 325.735 67.5707 292.27 88.1054 262.607" fill="#281214"/>
<path d="M183.176 285.425C183.176 285.425 177.854 264.889 182.416 262.607C186.98 260.326 262.276 254.241 262.276 254.241C262.276 254.241 271.404 260.326 271.404 267.931C271.404 275.537 259.995 289.227 254.671 289.989C249.347 290.749 246.306 283.143 243.262 280.101C240.22 277.058 202.952 283.903 202.952 283.903C202.952 283.903 198.388 294.551 192.304 295.313C186.219 296.073 183.176 290.749 183.176 285.425" fill="#303133"/>
<path d="M243.349 280.189C242.081 279.973 239.239 279.57 235.113 279.445C236.4 279.365 237.587 279.322 238.639 279.322C241.025 279.322 242.711 279.547 243.263 280.101C243.292 280.13 243.321 280.159 243.349 280.189Z" fill="#0D1C20"/>
<path d="M202.953 283.903C202.953 283.903 204.392 280.427 205.885 278.117C206.29 279.614 206.757 281.154 207.282 282.711C205.868 283.071 204.425 283.467 202.953 283.903ZM210.41 281.962C209.694 279.886 209.096 277.877 208.617 275.986C212.472 275.358 228.242 273.081 235.386 273.081C237.149 273.081 238.386 273.219 238.789 273.555C240.986 275.386 244.098 280.329 244.098 280.329C244.098 280.329 243.842 280.273 243.349 280.189C243.321 280.159 243.292 280.13 243.262 280.101C242.71 279.547 241.025 279.322 238.638 279.322C237.586 279.322 236.4 279.365 235.113 279.445C234.31 279.421 233.457 279.406 232.56 279.406C226.862 279.406 219.297 279.967 210.41 281.962" fill="#171417"/>
<path d="M195.845 130.378C195.845 130.378 82.0606 174.039 76.7673 203.146C71.4766 232.254 156.154 287.823 156.154 287.823C156.154 287.823 168.061 307.67 179.969 308.993C191.877 310.315 202.461 310.315 202.461 303.701C202.461 297.086 170.707 278.562 177.322 270.623C183.937 262.685 198.587 264.097 199.91 258.805C201.233 253.513 183.937 250.777 166.738 262.685C166.738 262.685 110.765 224.094 118.703 204.249L206.43 168.747C206.43 168.747 214.369 139.638 195.845 130.378" fill="#AB6540"/>
<path d="M357.26 155.515C357.26 155.515 334.768 154.193 336.092 180.654C337.416 207.115 344.031 245.485 338.739 249.454C333.445 253.423 280.523 258.715 280.523 258.715C280.523 258.715 254.839 246.667 250.869 251.959C246.9 257.251 271.26 256.07 273.908 265.331C276.553 274.593 251.036 285.987 247.067 284.665C245.137 284.021 246.111 288.813 248.684 293.603C251.404 298.67 255.916 303.737 260.676 302.378C269.937 299.731 284.493 298.409 289.784 281.209C289.784 281.209 351.969 277.239 358.584 270.623C365.2 264.009 380.105 169.529 357.26 155.515" fill="#AB6540"/>
<path d="M207.904 262.962C208.263 262.395 208.699 262.174 209.035 262.054C209.416 261.918 209.858 261.857 210.342 261.857C211.311 261.857 212.452 262.105 213.636 262.498C211.29 262.69 209.3 262.851 207.904 262.962V262.962ZM220.111 261.957C219.215 261.445 218.088 260.849 216.847 260.306C227.67 259.031 243.022 257.27 245.207 257.27C245.322 257.27 245.4 257.275 245.44 257.285C246.671 257.593 248.21 258.209 246.671 259.133C245.759 259.679 231.539 260.985 220.111 261.957" fill="#7B7E7F"/>
<path d="M124.613 161.45L144.388 213.17L209.039 185.029C209.039 185.029 231.52 167.99 223.153 136.046C223.153 136.046 202.429 128.206 195.845 130.378C189.263 132.549 124.613 161.45 124.613 161.45Z" fill="#1B4A54"/>
<path d="M332.252 193.395V248.918C332.252 248.918 365.716 264.129 386.252 253.481C386.252 253.481 380.105 163.251 357.261 155.515L340.617 153.845L332.252 193.395" fill="#1B4A54"/>
<path d="M225.01 264.509C225.01 266.399 223.308 267.931 221.208 267.931C219.107 267.931 217.404 266.399 217.404 264.509C217.404 262.618 219.107 261.086 221.208 261.086C223.308 261.086 225.01 262.618 225.01 264.509Z" fill="white"/>
<path d="M342.9 458.913L342.83 458.91C341.949 458.874 341.266 458.127 341.304 457.246C341.325 456.727 343.017 404.95 300.708 363.383C271.6 334.785 257.022 328.651 245.309 323.722C239.474 321.267 234.437 319.147 228.624 314.851C217.972 306.978 211.684 294.062 208.885 287.063C204.96 277.251 203.142 267.318 204.465 262.91C205.041 260.991 206.25 259.654 207.964 259.045C213.062 257.223 221.193 262.569 222.101 263.186C222.832 263.679 223.024 264.673 222.53 265.403C222.036 266.135 221.044 266.326 220.313 265.833C217.388 263.861 211.742 261.09 209.036 262.054C208.565 262.222 207.897 262.589 207.525 263.827C205.409 270.881 213.756 299.887 230.523 312.281C236.028 316.35 240.904 318.402 246.548 320.778C258.512 325.813 273.402 332.077 302.948 361.103C346.306 403.702 344.518 456.853 344.494 457.386C344.458 458.242 343.752 458.913 342.9 458.913" fill="#171717"/>
<path d="M255.59 136.046L253.497 149.649C253.497 149.649 271.285 179.993 298.49 158.019L306.861 138.139L255.59 136.046Z" fill="#A15D39"/>
<path d="M231.602 87.3846C231.602 87.3846 226.206 58.2526 228.904 44.7646C231.452 32.0246 258.036 11.3165 283.93 11.3165C309.826 11.3165 337.88 29.6592 341.656 44.2246C345.433 58.7912 339.384 96.0806 339.384 96.0806L238.614 96.0152L231.602 87.3846Z" fill="#1C110F"/>
<path d="M234.928 86.6605C234.928 86.6605 222.366 33.6165 277.503 28.0325C332.642 22.4485 341.062 61.5126 336.152 85.9513C331.246 110.39 260.054 133.423 234.928 86.6605Z" fill="#AB6540"/>
<path d="M237.431 85.9513C237.431 85.9513 223.864 79.1993 221.925 96.0806C219.988 112.962 232.908 111.611 236.784 110.261C240.66 108.91 240.013 92.03 237.431 85.9513Z" fill="#AB6540"/>
<path d="M234.199 90.6778C234.199 90.6778 228.385 88.6526 226.446 94.7299C224.509 100.807 226.446 104.859 231.614 106.209C236.783 107.559 238.721 103.509 236.783 102.158C234.845 100.807 230.323 102.833 230.323 98.7806C230.323 94.7299 232.262 96.7552 234.199 96.0806C236.138 95.4059 238.075 91.3538 234.199 90.6778" fill="#763B1E"/>
<path d="M336.153 85.9513C336.153 85.9513 349.72 79.1993 351.657 96.0806C353.596 112.962 340.674 111.611 336.798 110.261C332.924 108.91 333.569 92.03 336.153 85.9513Z" fill="#AB6540"/>
<path d="M339.382 90.6778C339.382 90.6778 345.197 88.6526 347.136 94.7299C349.073 100.807 347.136 104.859 341.968 106.209C336.798 107.559 334.861 103.509 336.798 102.158C338.737 100.807 343.26 102.833 343.26 98.7806C343.26 94.7299 341.322 96.7552 339.382 96.0806C337.445 95.4059 335.506 91.3538 339.382 90.6778Z" fill="#763B1E"/>
<path d="M274.667 40.7219C274.667 40.7219 244.112 44.5406 236.475 80.442C228.835 116.342 250.223 149.189 283.832 149.951C317.441 150.715 337.303 124.745 336.539 91.1353C335.773 57.5273 315.151 36.9019 274.667 40.7219" fill="#AB6540"/>
<path d="M236.84 111.362C236.84 111.362 244.26 142.097 278.173 149.515L271.816 151.635C271.816 151.635 245.849 145.542 236.84 111.362Z" fill="#A15D39"/>
<path d="M284.633 149.125C284.633 149.125 322.686 155.081 335.405 107.918C335.405 107.918 331.959 151.635 285.858 152.961L284.633 149.125Z" fill="#A15D39"/>
<path d="M250.488 86.2954C250.488 86.2954 253.034 84.258 254.56 86.2954C256.09 88.3327 256.09 90.8779 253.034 90.8779C249.979 90.8779 248.451 87.8234 250.488 86.2954Z" fill="#100C0B"/>
<path d="M310.064 83.2392C310.064 83.2392 308.028 83.7499 307.519 87.3139C307.01 90.8779 312.611 89.8605 313.12 88.3325C313.63 86.8045 311.592 83.2392 310.064 83.2392" fill="#100C0B"/>
<path d="M256.762 118.178C255.326 118.178 253.932 117.907 252.706 117.355C246.048 114.361 245.716 106.037 250.374 100.711C250.374 100.711 255.033 97.4021 259.588 97.4021C262.541 97.4021 265.45 98.7914 267.021 103.374C270.28 112.881 263.124 118.178 256.762 118.178" fill="#A95A3E"/>
<path d="M315.723 114.738C311.108 114.738 305.846 112.606 306.306 105.705C306.831 97.8194 312.543 96.9901 314.925 96.9901C315.561 96.9901 315.96 97.0487 315.96 97.0487C328.277 98.0474 324.948 111.697 320.954 113.695C319.719 114.313 317.786 114.738 315.723 114.738Z" fill="#A95A3E"/>
<path d="M233.76 84.6861L236.457 58.7914L244.009 54.4754L248.865 38.8301C248.865 38.8301 254.26 39.9101 257.496 37.7514C260.733 35.5928 261.272 36.1328 267.746 37.7514C274.22 39.3701 275.838 35.5927 280.156 35.5927C284.47 35.5927 286.629 39.91 290.944 39.37C295.261 38.83 300.656 34.5141 303.892 36.6728C307.129 38.8301 309.826 42.0673 313.602 39.91C317.378 37.7513 321.696 38.8301 321.696 38.8301L327.629 55.554L333.564 59.3314L336.153 85.9514C336.153 85.9514 342.196 63.646 338.42 51.778C334.644 39.91 324.933 25.3434 297.958 23.7247C270.984 22.1061 224.588 23.7247 233.76 84.6861" fill="#1C110F"/>
<path d="M267.541 124.161C267.541 124.161 272.116 120.383 277.94 121.223C280.85 121.642 285.217 121.433 289.272 121.223C293.329 121.013 297.076 120.803 298.74 121.223C302.066 122.062 304.562 124.581 302.484 129.198C300.402 133.814 289.588 135.494 281.684 134.654C273.78 133.814 265.044 127.939 267.541 124.161" fill="#240D14"/>
<path d="M266.459 124.511C266.459 124.511 270.771 120.821 277.939 121.223C285.107 121.626 289.103 121.403 291.767 120.959C294.431 120.515 301.758 120.738 303.09 123.846C303.09 123.846 301.698 116.525 295.926 117.191C290.154 117.857 283.014 118.651 277.908 117.986C272.803 117.319 271.564 119.627 266.459 124.511Z" fill="#763B1E"/>
<path d="M268.014 131.838C268.014 131.838 271.566 138.054 281.334 138.719C291.102 139.386 295.764 137.831 300.427 133.837C300.427 133.837 298.207 142.271 282 141.606C282 141.606 272.232 139.83 268.014 131.838Z" fill="#763B1E"/>
<path d="M271.344 122.291C271.344 122.291 273.785 121.182 279.557 121.626C285.329 122.07 293.322 120.959 295.32 120.959C297.318 120.959 299.538 121.847 299.538 121.847C299.538 121.847 299.094 123.623 292.878 124.511C286.661 125.399 274.896 124.511 274.896 124.511C274.896 124.511 271.565 124.29 271.344 122.291Z" fill="#A8A9AA"/>
<path d="M286.912 131.087C281.67 131.087 275.446 129.702 278.448 128.063C278.448 128.063 283.359 127.246 287.495 127.246C290.502 127.246 293.1 127.678 293.1 129.174C293.1 130.542 290.199 131.087 286.912 131.087Z" fill="#641125"/>
<path d="M274.673 132.503C274.673 132.503 282.221 137.831 295.098 133.614C295.098 133.614 282.665 134.725 274.673 132.503Z" fill="#A8A9AA"/>
<path d="M244.703 74.7832C244.703 74.7832 258.931 61.2846 261.482 68.7033C262.867 72.7366 258.467 73.2287 254.694 73.8953C250.919 74.5607 243.594 77.6699 244.703 74.7832" fill="#542B18"/>
<path d="M317.742 72.5634C317.742 72.5634 310.763 59.166 302.019 65.7887C297.496 69.2154 307.086 70.7875 311.526 73.4515C315.966 76.1155 320.627 75.0048 317.742 72.5634Z" fill="#542B18"/>
<path d="M284.72 113.754C283.252 113.754 281.526 112.951 280.953 112.563C280.113 111.997 274.868 112.659 276.592 110.545C276.592 110.545 277.692 108.775 279.322 108.775C279.714 108.775 280.137 108.877 280.582 109.131C281.912 109.889 283.097 110.449 284.314 110.449C285.2 110.449 286.102 110.153 287.092 109.421C288.169 108.625 289.056 108.306 289.804 108.306C290.69 108.306 291.382 108.753 291.964 109.385C293.036 110.55 293.086 111.563 291.465 111.643C289.845 111.722 287.81 111.618 286.461 113.106C286.033 113.579 285.404 113.754 284.72 113.754" fill="#854929"/>
<path d="M283.991 108.417C282.257 108.417 280.897 107.289 280.897 107.289C280.675 107.315 280.46 107.327 280.255 107.327C277.855 107.327 276.712 105.602 278.541 104.765C280.527 103.855 279.667 102.882 282.819 100.901C283.389 100.542 283.916 100.391 284.408 100.391C286.629 100.391 288.111 103.465 289.479 104.229C291.148 105.161 291.389 105.962 290.417 106.822C290.137 107.069 289.865 107.131 289.559 107.131C289.403 107.131 289.239 107.115 289.06 107.099C288.88 107.082 288.687 107.066 288.473 107.066C287.859 107.066 287.079 107.199 286 107.85C285.313 108.266 284.627 108.417 283.991 108.417V108.417ZM284.247 103.661C284.229 103.661 284.211 103.661 284.192 103.662C283.585 103.691 283.119 104.206 283.148 104.813C283.176 105.399 283.663 105.857 284.244 105.857C284.261 105.857 284.28 105.857 284.299 105.855C284.905 105.826 285.372 105.31 285.341 104.705C285.313 104.118 284.828 103.661 284.247 103.661Z" fill="#BB7A53"/>
<path d="M284.123 94.8113C283.357 94.8113 282.687 94.5847 282.955 94.0087C283.537 92.7593 283.967 88.4647 283.967 88.4647C283.967 88.4647 285.493 93.274 285.853 94.07C286.048 94.5007 285.02 94.8113 284.123 94.8113Z" fill="#B7744E"/>
<path d="M284.244 105.857C283.662 105.857 283.176 105.399 283.148 104.813C283.118 104.206 283.585 103.691 284.192 103.662C284.21 103.661 284.229 103.661 284.246 103.661C284.828 103.661 285.313 104.118 285.341 104.705C285.372 105.31 284.905 105.826 284.298 105.855C284.28 105.857 284.261 105.857 284.244 105.857Z" fill="#E2C5B0"/>
<path d="M144.388 213.17L143.631 209.291L187.578 161.159L186.531 194.642L144.388 213.17" fill="#13343C"/>
<path d="M180.896 350.074L228.733 371.126L232.918 376.01L223.501 380.195C223.501 380.195 222.106 375.662 218.618 374.614C215.132 373.567 184.438 362.059 184.438 362.059L180.896 350.074" fill="#120B0E"/>
<path d="M234.896 331.821C236.888 331.278 238.888 330.795 240.892 330.354C242.896 329.901 244.905 329.494 246.917 329.102L248.24 328.845L248.268 330.381C248.314 332.713 248.31 335.079 248.499 337.365C248.586 338.482 248.688 339.685 248.93 340.527C248.967 340.713 249.099 340.914 248.979 340.706C248.971 340.675 248.539 340.163 247.872 340.205C247.647 340.173 247.306 340.341 247.285 340.343L247.163 340.417L247.128 340.447L247.19 340.399C247.811 339.866 248.582 339.441 249.398 339.206C250.214 338.97 251.058 338.919 251.863 338.999C252.267 339.043 252.658 339.117 253.063 339.234L253.386 339.338L253.595 339.421L253.696 339.466L254.103 339.645L257.349 341.105C259.507 342.09 261.66 343.085 263.799 344.114C268.087 346.149 272.319 348.306 276.521 350.529C280.705 352.79 284.866 355.095 288.898 357.679C284.308 356.311 279.848 354.666 275.411 352.975C270.99 351.247 266.602 349.45 262.267 347.534C260.096 346.589 257.939 345.606 255.787 344.615L252.566 343.113L252.164 342.921L252.064 342.873V342.871H252.067L251.968 342.837C251.806 342.782 251.615 342.738 251.431 342.711C251.056 342.662 250.698 342.678 250.37 342.751C250.04 342.823 249.735 342.962 249.442 343.183L249.287 343.294L248.978 343.487C248.842 343.591 248.34 343.753 247.975 343.762C247.014 343.793 246.307 343.105 246.146 342.819C245.687 342.125 245.644 341.743 245.544 341.357C245.267 339.882 245.283 338.698 245.289 337.45C245.37 334.994 245.534 332.618 245.863 330.218L247.215 331.495C245.17 331.611 243.122 331.711 241.07 331.765C239.018 331.83 236.96 331.855 234.896 331.821" fill="#120B0E"/>
<path d="M181.676 278.49C180.635 274.646 179.33 269.179 180.03 268.246C180.102 268.15 180.19 268.05 180.292 267.947C180.388 267.881 180.484 267.815 180.582 267.751C180.478 270.949 181.046 275.046 181.676 278.49" fill="#0D1C20"/>
<path d="M182.773 282.342C182.773 282.342 182.267 280.679 181.675 278.49C181.045 275.046 180.477 270.949 180.581 267.751C187.01 263.503 196.311 263.321 199.151 260.19C199.493 260.833 199.697 261.939 198.882 263.67C197.418 266.782 185.703 268.43 184.787 271.725C183.873 275.019 182.773 282.342 182.773 282.342" fill="#171417"/>
<path d="M180.291 267.947C181.734 266.494 186.066 264.477 191.194 262.938C196.686 261.29 198.516 259.459 198.516 259.459C198.516 259.459 198.878 259.677 199.151 260.19C196.311 263.321 187.01 263.503 180.58 267.751C180.483 267.815 180.387 267.881 180.291 267.947Z" fill="#3B211A"/>
<path d="M271.374 267.149C271.374 267.149 271.373 267.149 271.373 267.147C271.373 267.147 271.373 267.146 271.373 267.145C271.373 267.147 271.374 267.149 271.374 267.149V267.149ZM249.17 255.335L251.237 254.883C251.237 254.883 251.581 254.955 252.169 255.081C251.218 255.161 250.218 255.246 249.17 255.335" fill="#0D1C20"/>
<path d="M271.372 267.147C271.296 267.081 266.404 262.743 263.136 261.29C259.84 259.826 245.379 256.165 245.379 256.165L249.17 255.335C250.218 255.246 251.218 255.161 252.168 255.081C252.478 255.147 252.854 255.229 253.283 255.322C256.826 256.606 262.976 257.589 267.683 259.641C269.666 261.802 271.323 266.991 271.372 267.145C271.372 267.146 271.372 267.147 271.372 267.147" fill="#171417"/>
<path d="M267.683 259.641C262.977 257.589 256.826 256.606 253.283 255.322C257.083 256.149 265.005 257.945 266.797 258.911C267.097 259.073 267.394 259.323 267.683 259.641Z" fill="#3B211A"/>
<path d="M244.831 261.474C244.831 261.474 257.096 258.362 258.377 262.938C259.657 267.514 259.841 270.443 255.632 271.359C251.421 272.274 245.013 274.654 243.916 271.907C242.817 269.162 240.437 262.389 244.831 261.474" fill="#A2A4A3"/>
<path d="M189.365 269.894C189.365 269.894 199.616 266.417 200.53 269.345C201.445 272.274 203.825 277.033 200.53 278.131C197.236 279.23 187.168 281.975 186.985 280.145C186.801 278.314 184.788 270.077 189.365 269.894" fill="#A2A4A3"/>
<path d="M119.87 216.998C119.87 216.998 110.29 204.313 107.184 193.181C107.184 193.181 112.102 200.17 113.657 200.17C115.21 200.17 133.33 192.922 133.33 192.922L124.788 162.374L137.732 197.063L118.705 204.249C118.705 204.249 116.764 211.043 119.87 216.998" fill="#773C1F"/>
<path d="M335.776 250.911C335.776 250.911 350.534 256.866 363.218 257.125L360.111 266.703C360.111 266.703 344.579 262.821 332.93 251.689L335.776 250.911" fill="#773C1F"/>
<path d="M225.12 309.93C221.382 306.923 218.606 302.901 216.219 298.773C213.844 294.611 211.902 290.223 210.168 285.766C208.491 281.286 206.996 276.73 205.94 272.058C205.436 269.727 204.97 267.338 205.139 264.925C205.224 263.731 205.468 262.505 206.128 261.481C206.744 260.461 207.878 259.747 209.067 259.747C209.082 259.747 209.096 259.747 209.111 259.749C207.906 259.771 206.802 260.518 206.227 261.542C205.618 262.559 205.418 263.765 205.372 264.938C205.255 267.309 205.752 269.666 206.3 271.977C207.428 276.603 208.91 281.146 210.618 285.594C212.31 290.049 214.247 294.417 216.542 298.591C217.714 300.663 218.93 302.718 220.35 304.63L221.408 306.069C221.786 306.527 222.187 306.969 222.576 307.421C223.318 308.361 224.263 309.098 225.12 309.93" fill="#787C7C"/>
<path d="M326.101 393.67L322.536 388.125L320.753 385.354C320.13 384.45 319.456 383.582 318.812 382.694L314.929 377.373C313.562 375.655 312.145 373.977 310.757 372.277L308.664 369.734L306.438 367.306C304.946 365.697 303.485 364.057 301.968 362.473C298.833 359.397 295.768 356.253 292.449 353.374C285.957 347.469 279.116 341.931 271.914 336.901L266.469 333.194C264.618 332.013 262.774 330.817 260.905 329.667C257.168 327.361 253.365 325.151 249.442 323.169C257.344 327.027 264.877 331.621 272.098 336.639C279.341 341.633 286.228 347.138 292.772 353.017C296.082 355.919 299.136 359.094 302.257 362.193C303.766 363.791 305.221 365.443 306.706 367.065L308.921 369.511L311.002 372.071C316.757 378.742 321.554 386.158 326.101 393.67" fill="#787C7C"/>
<path d="M196.182 268.983C196.182 268.983 187.254 268.675 187.56 273.91C187.87 279.143 191.563 275.449 193.102 273.602C194.642 271.754 198.952 270.215 196.182 268.983" fill="white"/>
<path d="M251.598 261.595C251.598 261.595 243.901 260.057 243.593 264.058C243.285 268.061 244.823 271.754 246.055 268.983C247.287 266.213 249.134 265.598 252.213 264.058C255.291 262.519 257.446 260.365 251.598 261.595" fill="white"/>
<path d="M283.699 23.2753C283.351 23.5433 283.192 23.9992 283.242 24.4272C283.28 24.8579 283.474 25.2726 283.774 25.5806C284.39 26.2406 285.448 26.1647 286.168 25.7287C286.928 25.3007 287.452 24.5432 287.708 23.7219C287.979 22.8979 288.047 22.0286 288.114 21.17V21.1552L288.122 21.1674L289.286 23.0819L289.287 23.0847L289.286 23.0873C288.803 23.7939 287.911 24.0953 287.087 24.042C286.251 24.0033 285.439 23.7059 284.744 23.2486C283.359 22.2886 282.486 20.8007 281.23 19.706C280.066 18.518 278.079 18.1379 276.655 19.0606C275.948 19.5032 275.604 20.4606 275.944 21.2326C276.279 22.0033 277.1 22.466 277.914 22.5633C278.746 22.69 279.599 22.3073 280.087 21.6287C280.594 20.966 280.79 20.106 280.75 19.2806C280.69 17.578 279.498 16.17 278.179 15.2073C275.444 13.3047 272.292 12.03 269.042 11.3313L269.062 11.3233C268.472 11.9767 268.387 12.9286 268.578 13.7593C268.76 14.6046 269.127 15.3979 269.535 16.1606C269.964 16.9099 270.347 17.7006 270.563 18.5446C270.772 19.3739 270.834 20.3233 270.362 21.086C269.903 21.85 268.934 22.2234 268.076 22.006C267.219 21.8207 266.459 21.2873 265.939 20.59C264.926 19.114 264.968 17.2647 264.767 15.5727C264.674 14.714 264.484 13.8607 264.114 13.0793C263.752 12.306 263.184 11.5886 262.395 11.2326C262.004 11.0539 261.571 10.986 261.147 10.986C260.715 11.002 260.302 11.1366 259.916 11.3206C259.159 11.7313 258.539 12.3659 258.071 13.0886C257.135 14.5259 256.655 16.3033 256.871 18.0099C256.999 18.8459 257.44 19.7006 258.248 20.0433C258.994 20.4046 260.06 20.3646 260.544 19.6193V19.662C260.191 19.1433 259.77 18.6673 259.239 18.3259C258.707 17.9966 258.122 17.7419 257.504 17.6153C256.271 17.3433 254.988 17.4073 253.743 17.5926C252.495 17.7926 251.267 18.1153 250.071 18.5246C248.891 18.938 247.678 19.4473 246.846 20.3993C246.436 20.8739 246.199 21.482 246.195 22.1086C246.187 22.7313 246.356 23.3686 246.216 24.0112C246.075 24.6526 245.587 25.182 244.987 25.4193C244.391 25.6726 243.728 25.7113 243.096 25.642C242.463 25.5553 241.839 25.3527 241.3 25.002C240.767 24.6513 240.28 24.2366 239.814 23.8099C238.88 22.9606 237.966 22.0474 236.792 21.5727L236.751 21.5567L236.76 21.5127L237.202 19.3513L237.287 19.4033C236.127 20.3406 235.091 21.4339 234.226 22.6499C233.791 23.2566 233.402 23.8952 233.054 24.5552C232.71 25.2112 232.4 25.9087 232.364 26.646C232.288 28.17 233.612 29.3926 234.996 29.7966C236.434 30.2166 237.956 29.9807 239.422 29.746L239.372 29.7953L239.568 28.7379L239.584 28.6606L239.655 28.6939C240.402 29.0472 240.984 29.6966 241.31 30.4446C241.626 31.1992 241.73 32.038 241.615 32.8473C241.486 33.6513 241.132 34.438 240.534 35.0073C239.928 35.566 239.116 35.8833 238.299 35.9153C236.662 35.9699 235.012 35.086 234.23 33.6287C233.856 32.8953 233.751 32.0366 233.911 31.2326C234.086 30.4299 234.488 29.6886 235.035 29.0819C235.592 28.4859 236.294 28.0193 237.074 27.7646C237.856 27.5206 238.716 27.53 239.495 27.7913C241.054 28.3406 242.215 29.7633 242.55 31.3659C242.71 32.1686 242.636 33.0233 242.311 33.7793C241.974 34.5313 241.404 35.162 240.73 35.6233C239.378 36.5273 237.534 36.7792 236.055 35.9939L236.136 35.99C234.354 37.222 233.656 39.8767 234.759 41.7674C235.856 43.646 238.708 44.2206 240.416 42.8606C241.266 42.1779 241.702 41.1206 242.042 40.0913C242.379 39.0473 242.651 37.9806 242.827 36.8966C243.194 34.7326 243.218 32.5127 242.922 30.3394L242.908 30.246L243.002 30.2379C246.799 29.9459 250.658 31.9767 252.567 35.2727L252.458 35.23C254.767 34.478 256.216 31.7313 255.5 29.4099C254.792 27.0966 252.083 25.5686 249.754 26.2539C249.194 26.4406 248.659 26.786 248.356 27.286C248.035 27.7713 248.126 28.462 248.536 28.8526C248.968 29.234 249.615 29.2913 250.204 29.2433C250.804 29.1979 251.396 29.0367 251.959 28.818C254.204 27.822 256.528 26.9634 258.902 26.306C261.275 25.646 263.702 25.1699 266.15 24.8819C267.374 24.7526 268.6 24.5899 269.848 24.6713C271.072 24.7433 272.399 25.198 273.138 26.274C273.506 26.7873 273.74 27.4219 273.699 28.0713C273.666 28.7259 273.298 29.3219 272.826 29.7379C272.351 30.1606 271.799 30.462 271.258 30.7513C270.712 31.042 270.162 31.3192 269.604 31.5832C267.378 32.6406 265.048 33.4887 262.662 34.1127L262.627 33.8793C264.799 33.7767 267.042 33.6566 268.991 32.6832C269.958 32.2086 270.79 31.47 271.374 30.5674C271.955 29.674 272.287 28.5859 272.124 27.5326C271.914 25.3766 268.916 24.1126 267.263 25.47C266.88 25.8126 266.626 26.3047 266.583 26.818C266.54 27.334 266.71 27.854 266.992 28.2953C267.578 29.1727 268.566 29.7886 269.608 29.914C270.674 30.0633 271.674 29.4539 272.459 28.7499C273.258 28.0232 273.9 27.1314 274.626 26.3007C275.342 25.4727 276.184 24.6726 277.243 24.2633C278.283 23.8366 279.439 23.734 280.543 23.9073C281.647 24.082 282.711 24.5446 283.567 25.2766C284.427 26.0059 285.023 27.022 285.294 28.1086C285.836 30.2753 285.192 32.7633 283.459 34.2433L283.323 34.0033C285.366 33.3006 287.438 32.5873 289.176 31.3193C290.919 30.102 292.191 28.1366 292.322 26.0112C292.351 25.4846 292.287 24.954 292.142 24.4513C291.986 23.9607 291.788 23.4286 291.4 23.142C291.015 22.8406 290.482 23.0139 289.994 23.2206L288.486 23.8287C287.488 24.2433 286.455 24.614 285.49 25.07C284.55 25.5393 283.59 26.1513 283.171 27.0993C282.975 27.5659 282.956 28.1046 283.119 28.5779C283.298 29.0486 283.662 29.4366 284.099 29.7112C284.984 30.2459 286.115 30.3913 287.114 30.1193C289.156 29.518 290.632 27.6006 291.043 25.5326C291.271 24.4979 291.216 23.406 290.914 22.398C290.576 21.3966 290.019 20.4633 289.267 19.7099C287.787 18.1793 285.683 17.2859 283.562 17.1993L283.714 17.106C283.319 17.9527 283.383 19.0087 283.879 19.8007L283.696 19.73C284.656 19.4473 285.592 19.066 286.444 18.5526C287.283 18.0366 288.083 17.3686 288.444 16.4753C288.827 15.5833 288.532 14.5432 287.896 13.8112C287.262 13.0606 286.454 12.434 285.614 11.9033C283.916 10.838 281.959 10.2419 279.983 9.88324C277.999 9.5139 275.976 9.38593 273.955 9.27126L274.134 9.13936L272.903 14.186L272.643 13.9926C273.895 13.2686 274.499 11.7633 274.462 10.3353C274.436 8.89799 273.856 7.44194 272.779 6.48727C271.696 5.51927 270.267 4.99664 268.819 4.85264C267.364 4.70597 265.878 4.89793 264.484 5.34326L264.368 4.99535C267.52 3.92735 270.852 3.40992 274.178 3.46058C275.84 3.48725 277.5 3.66059 279.136 3.96592C279.948 4.13659 280.767 4.28063 281.567 4.58063C282.363 4.86463 283.134 5.38462 283.592 6.13662C284.066 6.87529 284.244 7.74992 284.268 8.59392C284.296 9.44458 284.17 10.2846 283.97 11.0993C283.548 12.7166 282.926 14.282 282.083 15.7246C280.423 18.6233 277.966 21.0566 275.05 22.6926L274.367 23.0753L274.783 22.4099C276.402 19.8286 279.066 18.1299 281.819 17.0446C284.595 15.9432 287.512 15.3273 290.412 14.7366C291.866 14.4553 293.378 14.2473 294.887 14.4633C296.384 14.682 297.868 15.3766 298.83 16.6086C299.863 17.8646 299.704 19.5593 300.319 20.786C300.598 21.4033 301.27 21.7886 301.896 21.6659C302.526 21.5473 302.987 20.93 303.274 20.302C303.563 19.6567 303.728 18.946 303.764 18.2353C303.792 17.5313 303.698 16.7913 303.559 16.086C303.266 14.6886 302.711 13.2473 301.614 12.3713C301.076 11.9326 300.368 11.7473 299.694 11.8127C299.022 11.8753 298.408 12.2647 298.016 12.834C297.238 13.9727 297.124 15.602 297.795 16.8086C298.474 18.0246 300.036 18.5486 301.415 18.4112C302.827 18.2832 304.192 17.606 305.176 16.5806C306.148 15.5326 306.752 14.1672 307.075 12.7606C307.4 11.3446 307.47 9.87393 307.423 8.40993L307.418 8.26592L307.548 8.19795C308.81 7.53795 310.346 7.91663 311.391 8.70863C312.464 9.49796 313.262 10.674 313.504 12.0033C313.742 13.3126 313.559 14.6527 313.198 15.8953C312.835 17.1447 312.304 18.3246 311.77 19.486L311.624 19.8007L311.384 19.5499L306.374 14.3366L303.868 11.73C303.024 10.87 302.239 9.93933 301.239 9.37399C300.248 8.77799 299.038 8.84061 297.948 9.25394C296.854 9.66327 295.822 10.2753 294.912 11.0246C293.107 12.5233 291.714 14.6087 291.215 16.89C290.986 18.0153 291.144 19.2486 291.963 20.0366C292.751 20.842 293.943 21.1646 295.098 21.3086C297.45 21.51 299.883 21.402 302.26 21.1793C307.032 20.7073 311.732 19.5193 316.156 17.67L316.539 17.5099L316.512 17.9233C316.219 22.6327 314.304 27.2126 311.163 30.73C310.77 31.1633 310.295 31.638 309.623 31.7913C308.951 31.9366 308.316 31.71 307.776 31.458C306.699 30.9286 305.732 30.1833 304.951 29.2793C303.378 27.482 302.506 25.0713 302.647 22.6713L302.656 22.4819L302.846 22.446C303.948 22.2327 305.095 22.4299 306.098 22.8713C307.106 23.3139 307.999 23.9846 308.732 24.7939C310.202 26.4232 311.044 28.4486 311.855 30.3966L311.496 30.2926C312.856 29.3446 314.046 28.1513 314.992 26.79C315.45 26.102 315.926 25.3993 316.152 24.6366C316.379 23.8873 316.447 22.9967 316.019 22.418C315.804 22.1487 315.444 21.9846 315.1 21.9766C314.754 21.9606 314.428 22.1633 314.168 22.4379C313.651 23.0073 313.347 23.8059 313.191 24.5939C313.05 25.3792 313.044 26.242 313.094 27.0526C313.158 27.8646 313.342 28.6819 313.808 29.3099C314.267 29.9473 315.014 30.3006 315.811 30.3766C316.611 30.4593 317.438 30.3446 318.267 30.214C319.93 29.962 321.582 29.6459 323.218 29.2659C326.494 28.5113 329.711 27.5006 332.834 26.2593L332.699 26.5112C332.459 25.3406 332.134 24.1806 331.578 23.142C331.032 22.1086 330.178 21.2259 329.079 20.8779C327.986 20.5339 326.756 20.7033 325.656 21.0819C324.559 21.4686 323.582 22.1993 322.847 23.102C322.134 24.0033 321.666 25.1886 321.982 26.2806C322.282 27.3846 323.319 28.142 324.448 28.3567C325.591 28.5913 326.799 28.4793 327.955 28.2153C329.127 27.9539 330.308 27.6193 331.552 27.5513C332.78 27.4593 334.123 27.7714 335.08 28.634C336.04 29.4794 336.58 30.6993 336.755 31.93C336.943 33.1713 336.706 34.4553 336.198 35.5806C335.696 36.7166 334.956 37.7233 334.127 38.6206C333.286 39.5126 332.394 40.3406 331.384 41.0552C330.383 41.7526 329.167 42.3034 327.878 42.206C326.64 42.1314 325.284 41.4232 324.916 40.0939C324.764 39.4486 324.864 38.7659 325.18 38.1939C325.49 37.6232 326.079 37.146 326.774 37.106L326.951 37.0953L326.982 37.27C327.591 40.75 329.751 43.9353 332.762 45.7873L332.492 45.8539C333.083 44.8619 333.343 43.6726 333.22 42.5246L333.3 42.6606C332.607 42.1539 331.579 42.4739 330.98 43.0886C330.342 43.7046 330.19 44.6727 330.266 45.5687C330.348 46.4753 330.608 47.3939 330.922 48.2593C331.244 49.1086 331.746 49.9446 332.562 50.2886C333.372 50.6539 334.323 50.4073 335.063 49.8979C335.815 49.3913 336.431 48.6726 336.879 47.8766C337.334 47.0633 337.708 46.1926 338.187 45.3633C338.66 44.538 339.27 43.7272 340.132 43.2219L340.263 43.1446L340.362 43.2567C341.86 44.938 342.908 47.006 343.315 49.242C343.351 49.5313 343.354 49.8486 343.238 50.1499C343.127 50.4539 342.88 50.7006 342.603 50.8433C342.036 51.1233 341.379 51.0753 340.836 50.8099C339.728 50.1819 339.422 48.934 339.127 47.9007C338.542 45.7714 337.986 43.5593 338.156 41.2966C338.32 39.0713 339.33 36.766 341.302 35.5313C341.788 35.2206 342.338 35.0433 342.803 34.798C343.275 34.562 343.632 34.1606 343.567 33.6606C343.388 32.6579 342.698 31.7007 341.903 31.006C340.278 29.602 337.828 29.0967 335.863 30.018C333.904 30.914 332.53 32.9913 332.47 35.146C332.458 35.678 332.495 36.2406 332.699 36.7046C332.891 37.1859 333.367 37.4313 333.882 37.3633C334.399 37.3273 334.891 37.058 335.378 36.8246C335.851 36.566 336.322 36.2833 336.723 35.9193C338.411 34.5233 339.404 32.4473 339.907 30.3287C340.412 28.194 340.468 25.9526 340.15 23.7819C339.996 22.7046 339.743 21.598 339.091 20.7526C338.764 20.3406 338.323 20.0273 337.818 19.8926C337.31 19.7579 336.762 19.7674 336.224 19.8394C334.052 20.102 332.071 21.3233 330.663 22.9806C329.242 24.6353 328.37 26.7806 328.332 28.9606C328.302 29.5059 328.38 30.0459 328.452 30.5886C328.542 31.1312 328.654 31.6979 328.578 32.2832C328.504 32.8699 328.188 33.418 327.755 33.8007C327.322 34.1914 326.799 34.4526 326.26 34.6313C321.816 35.9833 316.798 32.39 316.498 27.7966L316.579 27.914C315.23 27.3046 313.612 27.4967 312.323 28.202C311.028 28.898 309.984 30.1487 309.759 31.6127C309.523 33.0753 310.132 34.5873 311.151 35.6486C312.162 36.7166 313.643 37.3979 315.116 37.2326L315.006 37.398C314.58 35.9646 313.208 35.114 312.04 34.1966C310.792 33.3033 309.887 31.9966 309.22 30.6433C308.544 29.2846 308.032 27.8592 307.368 26.5166C307.042 25.8419 306.652 25.2033 306.203 24.614C305.732 24.0393 305.166 23.5579 304.519 23.2046C303.204 22.5046 301.57 22.6633 300.33 23.4687C299.088 24.2473 298.155 25.5899 298.05 27.0606C297.851 30.0739 300.992 32.642 303.919 32.19L304.127 32.158L304.043 32.3486C303.27 34.0806 301.724 35.4086 299.938 35.9966C298.159 36.6086 296.072 36.3646 294.547 35.2272C293.015 34.1459 291.952 32.3606 291.878 30.4633C291.798 28.5446 292.775 26.7687 294.012 25.4007C294.631 24.6994 295.324 24.0752 296.036 23.4779C296.763 22.9019 297.446 22.2713 298.295 21.83C298.718 21.618 299.212 21.4954 299.699 21.5674C300.183 21.634 300.618 21.8606 301.011 22.114C301.783 22.6486 302.514 23.1886 303.346 23.5926C304.972 24.4046 306.848 24.9287 308.643 24.5513C309.535 24.37 310.347 23.882 310.939 23.1966C311.531 22.51 311.871 21.626 311.963 20.7233C312.055 19.8167 311.926 18.89 311.602 18.0394C311.272 17.1887 310.751 16.4166 310.132 15.7433C308.888 14.3859 307.267 13.4287 305.595 12.6727C302.223 11.1807 298.396 10.7633 294.772 11.4287C287.434 12.6687 281.434 19.0086 280.267 26.3099L280.256 26.3766L280.19 26.3753C277.147 26.342 273.918 26.1447 271.236 24.4953C269.928 23.67 268.822 22.4993 268.156 21.0913C267.823 20.39 267.623 19.6219 267.587 18.8433C267.514 18.0633 267.803 17.2872 267.659 16.5606C267.584 16.1992 267.298 15.9207 266.935 15.846C266.576 15.7593 266.188 15.8074 265.811 15.834C265.052 15.9114 264.31 16.1152 263.61 16.4166C262.211 17.0166 260.979 18.0233 260.147 19.3033C258.455 21.858 258.575 25.4446 260.364 27.9246C260.783 28.5406 261.323 29.2166 261.235 30.0486C261.171 30.4393 260.972 30.8286 260.62 31.0379C260.276 31.2526 259.866 31.3033 259.479 31.2873C258.694 31.2513 257.947 30.9792 257.264 30.6166C256.586 30.2286 255.994 29.7433 255.359 29.3086L251.603 26.6287L249.726 25.2886C249.092 24.8619 248.503 24.3326 247.782 24.0993C247.426 23.9859 247.034 23.9886 246.694 24.142C246.351 24.2926 246.074 24.5646 245.852 24.87C245.412 25.4886 245.135 26.218 244.844 26.9233C244.291 28.3513 243.896 29.846 243.71 31.3687C243.312 34.41 243.654 37.546 244.719 40.4246L244.734 40.4659L244.695 40.4819C242.468 41.4473 240.06 41.9926 237.635 42.0819L237.672 42.0567C236.41 44.7247 235.434 47.5286 234.764 50.4033L234.752 50.4526L234.708 50.4287C230.391 48.1127 227.732 43.0779 228.25 38.2099L228.252 38.1779L228.284 38.1806L237.214 38.834L241.679 39.1606C242.41 39.1792 243.204 39.3952 243.863 39.0272C244.183 38.8379 244.339 38.466 244.37 38.1033C244.41 37.734 244.343 37.3633 244.291 36.9966C244.052 35.522 243.391 34.1513 242.595 32.8966C241.803 31.634 240.876 30.4607 240.015 29.2407C239.595 28.6247 239.146 28.0259 238.808 27.3539C238.65 27.0179 238.543 26.6366 238.606 26.258C238.664 25.882 238.878 25.5499 239.132 25.2779C240.228 24.2552 241.463 23.4073 242.698 22.57C243.94 21.7446 245.234 20.9926 246.562 20.3099C247.226 19.9713 247.9 19.65 248.583 19.3473C249.26 19.0673 249.955 18.6699 250.722 18.7659C251.504 18.8846 251.97 19.5886 252.394 20.1713C252.831 20.7766 253.288 21.3647 253.764 21.9407C254.72 23.0847 255.732 24.1886 256.844 25.1806C257.982 26.126 259.326 26.9153 260.814 27.102C261.55 27.198 262.33 27.0352 262.932 26.5939C263.542 26.1592 263.93 25.4593 264.036 24.7233C264.228 23.226 263.584 21.7446 262.668 20.5873C261.771 19.4006 260.679 18.346 259.996 17.006L259.998 17.0033L265.164 13.8953L260 17.006L260.002 17.0033C260.684 18.342 261.776 19.3952 262.676 20.5832C263.594 21.7392 264.24 23.222 264.047 24.7246C263.942 25.4633 263.552 26.1687 262.939 26.606C262.335 27.05 261.551 27.2153 260.812 27.118C259.319 26.9313 257.972 26.142 256.831 25.1966C255.715 24.2033 254.704 23.0992 253.746 21.9552C253.27 21.3806 252.811 20.7913 252.374 20.1873C251.948 19.6019 251.484 18.9072 250.718 18.7939C249.966 18.6979 249.271 19.094 248.595 19.374C247.914 19.678 247.24 19.9993 246.576 20.3379C245.25 21.0206 243.959 21.7739 242.716 22.5993C241.486 23.4353 240.248 24.2899 239.162 25.3046C238.911 25.5739 238.703 25.898 238.646 26.2646C238.584 26.6313 238.688 27.0033 238.844 27.3366C239.179 28.0006 239.63 28.6019 240.05 29.2166C240.911 30.4339 241.839 31.6074 242.635 32.8727C243.434 34.1287 244.1 35.5033 244.34 36.9873C244.392 37.3579 244.462 37.73 244.42 38.1073C244.391 38.478 244.227 38.8727 243.89 39.0727C243.198 39.4554 242.404 39.2299 241.675 39.2153L237.211 38.8926L228.279 38.246L228.315 38.218C227.804 43.058 230.456 48.0633 234.744 50.3593L234.688 50.386C235.356 47.5033 236.332 44.6953 237.595 42.0206L237.606 41.9966L237.632 41.9953C240.046 41.906 242.442 41.3619 244.658 40.3979L244.634 40.4567C243.559 37.5647 243.214 34.4139 243.61 31.3552C243.798 29.8246 244.192 28.322 244.748 26.886C245.042 26.174 245.315 25.4473 245.767 24.8086C245.994 24.494 246.284 24.2059 246.651 24.0446C247.014 23.8792 247.439 23.8766 247.814 23.9966C248.57 24.2433 249.156 24.774 249.79 25.2007L251.667 26.5379L255.426 29.214C256.058 29.646 256.662 30.1393 257.32 30.514C257.99 30.87 258.726 31.1353 259.483 31.1687C259.856 31.1833 260.244 31.1326 260.556 30.9366C260.876 30.7473 261.054 30.3939 261.114 30.0326C261.2 29.2739 260.688 28.6126 260.264 27.9939C258.444 25.4752 258.318 21.8366 260.038 19.2313C260.882 17.9273 262.134 16.9046 263.556 16.2926C264.267 15.9859 265.024 15.778 265.796 15.698C266.182 15.6713 266.572 15.618 266.968 15.7127C267.367 15.7873 267.715 16.126 267.795 16.5287C267.946 17.3313 267.652 18.0793 267.726 18.8366C267.763 19.5953 267.959 20.3446 268.286 21.0313C268.936 22.4086 270.028 23.5606 271.315 24.3713C273.951 25.9913 277.155 26.1912 280.191 26.2219L280.114 26.286C281.287 18.918 287.33 12.5193 294.742 11.258C298.399 10.5846 302.262 11.0006 305.668 12.5046C307.358 13.2686 308.998 14.2313 310.27 15.6153C310.903 16.3046 311.436 17.0926 311.779 17.9713C312.114 18.8499 312.248 19.8046 312.154 20.7433C312.059 21.6779 311.707 22.602 311.088 23.3233C310.468 24.0407 309.614 24.554 308.687 24.742C306.819 25.1353 304.91 24.594 303.255 23.7727C302.416 23.366 301.65 22.8033 300.9 22.2847C300.519 22.0393 300.108 21.8299 299.67 21.7713C299.234 21.7059 298.787 21.8139 298.386 22.0153C297.586 22.4286 296.887 23.066 296.17 23.6394C295.464 24.2314 294.776 24.85 294.17 25.5407C292.952 26.89 292.014 28.6152 292.092 30.4552C292.164 32.2739 293.194 34.0059 294.675 35.0486C296.148 36.1433 298.146 36.3739 299.868 35.7832C301.596 35.2139 303.092 33.922 303.831 32.2567L303.954 32.4166C302.414 32.6512 300.83 32.098 299.664 31.106C298.494 30.1234 297.699 28.6099 297.814 27.0433C297.926 25.4806 298.903 24.0806 300.202 23.2646C300.855 22.8553 301.602 22.5846 302.378 22.5259C303.156 22.4486 303.934 22.6606 304.63 22.986C305.314 23.3566 305.907 23.8646 306.395 24.4593C306.86 25.0686 307.259 25.7234 307.591 26.406C308.266 27.7674 308.776 29.19 309.446 30.5313C310.114 31.8713 310.974 33.1166 312.199 33.9939C312.787 34.4566 313.412 34.8887 313.974 35.4127C314.539 35.9247 315.03 36.5673 315.256 37.3259L315.3 37.474L315.146 37.4913C313.574 37.6673 312.018 36.946 310.959 35.8313C309.894 34.722 309.246 33.1339 309.494 31.5713C309.735 30.0073 310.839 28.6926 312.194 27.9633C313.543 27.2246 315.247 27.0126 316.691 27.6633L316.767 27.6966L316.772 27.7806C317.046 32.182 321.942 35.6699 326.17 34.3593C327.176 34.0419 328.167 33.3127 328.29 32.246C328.359 31.7247 328.256 31.1833 328.164 30.6379C328.092 30.0859 328.008 29.5179 328.042 28.9552C328.076 26.6979 328.975 24.4926 330.435 22.7873C331.883 21.0819 333.928 19.8126 336.187 19.5379C336.744 19.4633 337.327 19.4473 337.896 19.598C338.467 19.7473 338.972 20.1087 339.331 20.562C340.044 21.4927 340.296 22.6406 340.455 23.7366C340.782 25.946 340.726 28.2207 340.214 30.4007C339.703 32.5647 338.687 34.706 336.931 36.1646C336.511 36.5433 336.02 36.8393 335.527 37.1099C335.02 37.3526 334.518 37.6353 333.912 37.686C333.618 37.714 333.295 37.6807 333.012 37.5287C332.728 37.3767 332.526 37.1127 332.403 36.8394C332.163 36.282 332.135 35.7046 332.143 35.1366C332.21 32.8486 333.646 30.6753 335.724 29.7153C337.827 28.7339 340.407 29.2699 342.123 30.7499C342.968 31.5086 343.688 32.4433 343.907 33.6313C343.94 33.9393 343.851 34.2766 343.663 34.5313C343.474 34.7873 343.219 34.9606 342.966 35.0993C342.45 35.3686 341.932 35.534 341.483 35.8233C339.639 36.974 338.656 39.1807 338.503 41.3233C338.339 43.51 338.88 45.6833 339.47 47.8073C339.751 48.8447 340.09 49.9926 340.996 50.4913C341.439 50.7113 342.008 50.7433 342.439 50.5246C342.887 50.3126 343.044 49.8046 342.958 49.2886C342.57 47.1619 341.543 45.122 340.09 43.502L340.319 43.5366C339.538 43.9953 338.966 44.7447 338.506 45.546C338.042 46.3513 337.668 47.2207 337.203 48.0567C336.727 48.9007 336.083 49.6566 335.27 50.2086C334.48 50.758 333.372 51.0646 332.414 50.6326C331.448 50.2206 330.907 49.2767 330.568 48.3953C330.242 47.4887 329.98 46.574 329.886 45.6007C329.806 44.6514 329.959 43.5526 330.71 42.8193C331.067 42.4646 331.516 42.1953 332.018 42.0793C332.516 41.958 333.088 42.0353 333.524 42.3473L333.595 42.3966L333.603 42.4832C333.735 43.7166 333.459 44.9846 332.826 46.0526L332.726 46.2219L332.558 46.118C329.448 44.206 327.223 40.9339 326.591 37.3379L326.799 37.502C325.692 37.5767 325.028 38.9486 325.303 39.9966C325.598 41.082 326.776 41.742 327.907 41.8033C329.062 41.8926 330.192 41.3926 331.155 40.7219C332.119 40.0366 333.011 39.2099 333.826 38.3433C334.634 37.4673 335.344 36.4953 335.82 35.414C336.303 34.3366 336.519 33.1499 336.343 31.9886C336.18 30.8379 335.671 29.7086 334.803 28.9473C333.94 28.1753 332.743 27.8874 331.575 27.9727C330.396 28.0367 329.232 28.3633 328.047 28.63C326.855 28.9006 325.596 29.0273 324.359 28.774C323.134 28.55 321.915 27.6859 321.567 26.3993C321.2 25.1126 321.747 23.7967 322.506 22.834C324.06 20.8887 326.727 19.7926 329.211 20.4593C330.448 20.8473 331.392 21.8393 331.967 22.9313C332.556 24.0313 332.89 25.2272 333.135 26.4219L333.172 26.6046L332.999 26.674C329.855 27.926 326.618 28.9473 323.322 29.7086C321.672 30.0926 320.01 30.4127 318.336 30.6687C317.504 30.798 316.643 30.9233 315.76 30.8353C314.884 30.758 313.972 30.338 313.435 29.586C312.888 28.846 312.7 27.9446 312.63 27.0886C312.579 26.2206 312.579 25.3819 312.731 24.5046C312.906 23.6526 313.21 22.8033 313.827 22.1153C314.135 21.7846 314.588 21.4887 315.102 21.506C315.598 21.518 316.072 21.7366 316.39 22.1259C316.98 22.9579 316.839 23.9486 316.606 24.7753C316.346 25.6353 315.854 26.3513 315.383 27.062C314.406 28.47 313.178 29.7046 311.771 30.6873L311.527 30.858L311.412 30.5819C310.6 28.6339 309.768 26.6633 308.374 25.1193C307.682 24.3593 306.839 23.7286 305.902 23.3193C304.97 22.91 303.927 22.7353 302.938 22.9287L303.136 22.7033C303.004 24.9606 303.832 27.2513 305.326 28.9526C306.066 29.8086 306.982 30.51 307.992 31.006C308.491 31.2434 309.031 31.4127 309.515 31.302C309.999 31.1967 310.414 30.8139 310.788 30.3939C313.848 26.9632 315.718 22.4819 315.998 17.8926L316.355 18.1446C311.886 20.0219 307.132 21.2113 302.31 21.686C299.892 21.9073 297.484 22.0206 295.035 21.8086C293.832 21.6526 292.536 21.3273 291.604 20.3873C291.147 19.9286 290.826 19.3247 290.704 18.69C290.576 18.0553 290.61 17.41 290.727 16.7966C291.266 14.3566 292.712 12.218 294.6 10.646C295.551 9.86333 296.62 9.22868 297.783 8.79535C298.368 8.58601 298.991 8.43933 299.635 8.446C300.279 8.446 300.926 8.63657 301.475 8.9499C302.588 9.5859 303.378 10.546 304.215 11.3953L306.719 14.0046L311.726 19.2233L311.34 19.2873C311.875 18.1299 312.395 16.9713 312.746 15.7646C313.096 14.5646 313.264 13.302 313.044 12.086C312.831 10.8926 312.098 9.8019 311.119 9.08324C310.155 8.35924 308.826 8.04863 307.756 8.60863L307.882 8.39535C307.928 9.88468 307.859 11.3926 307.519 12.8633C307.18 14.3273 306.554 15.7619 305.504 16.8926C304.439 17.9979 302.99 18.7193 301.454 18.8593C299.947 18.9979 298.222 18.458 297.408 17.03C296.65 15.6353 296.778 13.8792 297.656 12.5779C298.1 11.9286 298.843 11.4473 299.65 11.3753C300.438 11.2966 301.266 11.5247 301.879 12.0233C303.12 13.0273 303.672 14.5459 303.986 15.9993C304.127 16.7433 304.226 17.482 304.196 18.2567C304.156 19.0233 303.982 19.7753 303.664 20.4806C303.347 21.1566 302.846 21.9033 301.979 22.0873C301.127 22.2579 300.271 21.7152 299.94 20.9832C299.263 19.5539 299.431 17.9726 298.495 16.8659C297.627 15.7473 296.236 15.0819 294.827 14.8779C293.396 14.6712 291.931 14.8672 290.49 15.1446C287.602 15.7299 284.699 16.342 281.97 17.4233C279.259 18.4913 276.68 20.142 275.122 22.6233L274.856 22.342C277.706 20.746 280.116 18.3647 281.743 15.5287C282.568 14.1167 283.18 12.5846 283.594 11.0046C283.966 9.45793 284.107 7.69663 283.267 6.34196C282.858 5.66996 282.184 5.21126 281.434 4.93793C280.683 4.65526 279.866 4.50602 279.064 4.33936C277.451 4.03669 275.814 3.86329 274.172 3.83662C270.888 3.78329 267.599 4.29126 264.487 5.34326L264.372 4.99392C265.812 4.53525 267.343 4.33664 268.856 4.49131C270.362 4.64198 271.87 5.18867 273.018 6.218C274.182 7.254 274.791 8.80065 274.818 10.33C274.859 11.8433 274.21 13.494 272.822 14.2953L272.463 14.5033L272.56 14.102L273.795 9.05668L273.83 8.91657L273.974 8.92464C275.999 9.04064 278.036 9.17133 280.044 9.546C282.046 9.91267 284.044 10.5192 285.792 11.6166C286.66 12.1686 287.48 12.8019 288.156 13.5993C288.839 14.3766 289.196 15.586 288.755 16.5966C288.34 17.6046 287.486 18.298 286.616 18.834C285.73 19.366 284.771 19.7552 283.787 20.0446L283.667 20.0793L283.602 19.974C283.047 19.082 282.978 17.9207 283.42 16.9687L283.467 16.8713L283.574 16.8753C285.78 16.9673 287.955 17.8926 289.496 19.4886C290.278 20.2726 290.863 21.25 291.214 22.302C291.536 23.3673 291.59 24.5153 291.35 25.598C290.918 27.7553 289.378 29.7726 287.199 30.4166C286.104 30.7086 284.911 30.5553 283.936 29.97C283.459 29.67 283.04 29.2313 282.832 28.6819C282.643 28.1299 282.667 27.5139 282.891 26.9819C283.376 25.9073 284.395 25.286 285.359 24.8007C286.358 24.3314 287.371 23.97 288.375 23.5526L289.884 22.946C290.136 22.8447 290.4 22.7366 290.695 22.698C290.987 22.65 291.326 22.7153 291.572 22.9033C292.07 23.2846 292.251 23.8473 292.423 24.3687C292.579 24.906 292.644 25.4699 292.612 26.0259C292.474 28.2633 291.14 30.2967 289.346 31.5513C287.556 32.8513 285.458 33.5673 283.414 34.2687L282.711 34.5099L283.276 34.0287C284.919 32.6353 285.546 30.2446 285.027 28.1753C284.767 27.1366 284.206 26.1766 283.388 25.4819C282.578 24.7873 281.558 24.342 280.499 24.174C279.442 24.006 278.334 24.1059 277.343 24.5112C276.338 24.8979 275.536 25.6567 274.824 26.474C274.108 27.2913 273.462 28.1913 272.635 28.9433C271.827 29.6686 270.754 30.3326 269.582 30.1713C268.45 30.0313 267.41 29.382 266.778 28.434C266.472 27.9567 266.279 27.3806 266.328 26.7966C266.378 26.2153 266.663 25.6673 267.095 25.2806C267.995 24.494 269.314 24.526 270.332 24.9567C271.379 25.37 272.242 26.35 272.37 27.4953C272.543 28.6247 272.186 29.77 271.579 30.7007C270.971 31.6407 270.103 32.4086 269.1 32.8993C267.086 33.9006 264.811 34.0126 262.639 34.1153L261.499 34.17L262.603 33.8832C264.976 33.2659 267.29 32.4247 269.506 31.374C270.06 31.114 270.608 30.8366 271.15 30.5486C271.691 30.2619 272.227 29.9673 272.674 29.5687C273.118 29.1767 273.443 28.6433 273.474 28.0567C273.511 27.474 273.299 26.8846 272.955 26.4033C272.267 25.3993 271.03 24.9673 269.831 24.8926C268.62 24.8113 267.392 24.9713 266.175 25.098C263.738 25.3833 261.323 25.8553 258.958 26.5099C256.591 27.1646 254.288 28.0113 252.036 29.0086C251.454 29.234 250.847 29.3993 250.219 29.4473C249.607 29.4926 248.912 29.4487 248.398 29.002C247.91 28.5393 247.82 27.7366 248.184 27.1832C248.527 26.6246 249.095 26.2646 249.692 26.0646C252.154 25.3513 254.935 26.9353 255.686 29.3526C256.427 31.7886 254.93 34.6166 252.515 35.4086L252.443 35.4326L252.406 35.3659C250.54 32.1339 246.739 30.1299 243.016 30.4153L243.098 30.314C243.394 32.5073 243.368 34.7446 242.996 36.9259C242.819 38.0179 242.544 39.0926 242.203 40.1446C241.858 41.1806 241.415 42.27 240.52 42.99C238.712 44.4127 235.776 43.8139 234.62 41.8486C233.476 39.8686 234.199 37.1433 236.048 35.862L236.088 35.8353L236.13 35.858C237.544 36.6126 239.332 36.374 240.647 35.498C241.3 35.05 241.848 34.4406 242.175 33.7193C242.488 32.9926 242.559 32.1727 242.406 31.3953C242.086 29.8433 240.951 28.4566 239.448 27.9259C238.698 27.6739 237.874 27.6646 237.115 27.8993C236.362 28.1433 235.68 28.5966 235.138 29.1766C234.604 29.7646 234.214 30.4846 234.044 31.2606C233.89 32.0366 233.991 32.8606 234.35 33.5659C235.1 34.9726 236.71 35.838 238.294 35.7847C239.084 35.7527 239.863 35.4486 240.444 34.914C241.02 34.3673 241.363 33.61 241.49 32.8287C241.602 32.0433 241.502 31.2259 241.195 30.4939C240.879 29.7686 240.32 29.1447 239.603 28.806L239.69 28.7606L239.49 29.8166L239.483 29.8593L239.44 29.8659C237.975 30.0979 236.434 30.3406 234.963 29.9086C234.238 29.6886 233.564 29.286 233.05 28.7246C232.536 28.1686 232.206 27.4126 232.25 26.642C232.288 25.8726 232.606 25.1633 232.955 24.5033C233.306 23.838 233.698 23.1966 234.136 22.586C235.008 21.3633 236.051 20.2633 237.22 19.3206L237.336 19.2272L237.307 19.3727L236.863 21.534L236.831 21.4753C238.031 21.962 238.952 22.8887 239.88 23.734C240.347 24.162 240.828 24.5727 241.355 24.918C241.878 25.2593 242.49 25.4592 243.107 25.5446C243.726 25.6126 244.375 25.5753 244.948 25.33C245.528 25.0993 245.987 24.6006 246.123 23.9913C246.259 23.3793 246.095 22.7473 246.1 22.1073C246.104 21.4607 246.355 20.8274 246.775 20.3394C247.631 19.3647 248.858 18.8567 250.043 18.4407C251.244 18.0313 252.475 17.7073 253.73 17.5073C254.982 17.322 256.275 17.258 257.523 17.534C258.148 17.6634 258.742 17.922 259.283 18.258C259.823 18.606 260.254 19.0926 260.611 19.6193L260.626 19.6407L260.611 19.6633C260.092 20.4526 258.982 20.486 258.215 20.1127C257.38 19.758 256.926 18.8713 256.796 18.0233C256.579 16.2873 257.066 14.5032 258.012 13.0499C258.486 12.3206 259.114 11.6779 259.884 11.2593C260.278 11.0726 260.703 10.9353 261.144 10.9193C261.58 10.9193 262.023 10.9887 262.423 11.1727C263.231 11.538 263.807 12.27 264.172 13.0526C264.544 13.842 264.736 14.7033 264.827 15.5659C265.028 17.2619 264.988 19.1047 265.986 20.5567C266.495 21.2433 267.247 21.77 268.088 21.9513C268.928 22.1647 269.868 21.8033 270.318 21.0593C270.778 20.3166 270.722 19.3806 270.514 18.558C270.3 17.7193 269.922 16.9339 269.491 16.1832C269.083 15.4192 268.714 14.622 268.532 13.7687C268.34 12.9313 268.427 11.9606 269.03 11.2939L269.038 11.2847L269.05 11.2873C272.307 11.9899 275.462 13.2686 278.2 15.1779C279.523 16.1446 280.72 17.562 280.78 19.2806C280.822 20.1113 280.622 20.9767 280.11 21.646C279.616 22.3313 278.75 22.7193 277.911 22.59C277.091 22.4913 276.262 22.0246 275.922 21.242C275.576 20.458 275.928 19.4886 276.642 19.042C278.079 18.1113 280.076 18.4993 281.243 19.6913C282.499 20.79 283.372 22.2793 284.752 23.2366C285.444 23.6926 286.255 23.99 287.087 24.03C287.91 24.0833 288.796 23.7833 289.276 23.0819V23.0873L288.114 21.1713L288.122 21.17C288.055 22.0286 287.986 22.8993 287.714 23.7233C287.458 24.546 286.932 25.3046 286.171 25.7326C285.45 26.1686 284.39 26.2433 283.772 25.5819C283.472 25.2726 283.278 24.858 283.24 24.4287C283.192 23.9993 283.35 23.5433 283.699 23.2753" fill="#622D22"/>
<path d="M362.916 466.971L357.753 466.574C362.224 459.615 367.07 453.342 372.162 447.686H378.706C368.244 458.575 362.916 466.971 362.916 466.971" fill="#46A59B"/>
<path d="M378.706 447.686H372.162C408.562 407.266 457.519 398.435 471.438 396.691C470.213 393.437 469.259 389.693 468.533 385.574C466.911 376.393 475.391 374.925 480.983 374.925C483.613 374.925 485.605 375.25 485.605 375.25L521.09 359.555L542.885 392.213C542.885 392.213 568.167 391.437 592.965 391.437C600.795 391.437 608.577 391.514 615.499 391.718C621.366 391.89 627.026 392.189 632.394 392.518L634.166 393.415L634.579 392.655C645.71 393.365 655.485 394.159 663.089 394.159C669.137 394.159 673.809 393.657 676.699 392.213C679.878 390.622 691.981 381.337 706.135 369.143L708.355 369.294C708.355 369.294 728.209 385.177 742.105 385.971C756.002 386.766 761.958 402.25 755.605 417.339C753.895 421.401 747.955 422.959 739.643 422.959C717.082 422.958 677.05 411.475 656.738 407.413C633.345 402.733 611.641 400.869 599.435 400.869C597.139 400.869 595.177 400.934 593.605 401.061C585.421 401.714 560.225 409.389 550.303 409.389C548.194 409.389 546.773 409.042 546.355 408.206C544.958 405.41 541.921 403.573 537.483 403.573C534.358 403.573 530.535 404.485 526.105 406.618C519.641 409.731 509.278 410.678 500.066 410.678C494.002 410.678 488.437 410.267 484.813 409.794C479.418 409.091 475.555 405.461 472.801 399.839C427.807 404.494 396.135 429.547 378.706 447.686" fill="#2D3960"/>
<path d="M460.228 290.747L520.47 358.627L542.885 392.213C542.885 392.213 586.653 390.87 615.5 391.718C644.349 392.566 668.214 396.454 676.7 392.213C685.185 387.97 757.198 328.93 762.288 306.021C767.378 283.111 676.592 328.082 676.592 328.082L582.409 322.991L460.228 290.747" fill="#0B1F22"/>
<path d="M771.335 250.605C771.335 250.605 766.419 235.851 754.943 226.837C743.47 217.821 685.918 160.251 671.986 164.349C658.051 168.447 665.61 196.511 665.61 196.511L718.063 238.31L771.335 250.605Z" fill="#EE9980"/>
<path d="M686.92 166.187L746.749 210.445L720.522 246.506L684.461 224.377L686.92 166.187Z" fill="#EF3821"/>
<path d="M545.132 156.351C545.132 156.351 530.379 167.007 527.1 185.857C523.823 204.707 512.95 268.803 516.228 272.081C519.507 275.361 538.575 280.929 545.132 268.635C551.688 256.342 571.359 157.991 571.359 157.991C571.359 157.991 554.148 154.713 545.132 156.351Z" fill="#EE9980"/>
<path d="M537.756 162.089L561.524 226.835L563.162 287.485C563.162 287.485 589.389 316.99 621.353 317.81C653.317 318.63 673.807 301.418 673.807 301.418C673.807 301.418 694.296 197.331 686.92 166.187C686.92 166.187 679.544 162.089 645.94 156.351C612.337 150.614 548.411 142.419 537.756 162.089Z" fill="#EF3821"/>
<path d="M562.417 233.362C562.417 233.362 590.877 300.019 647.049 297.773C647.049 297.773 620.834 310.505 578.893 273.805C578.893 273.805 602.861 335.221 670.266 303.015L675.509 306.01L674.012 318.743C674.012 318.743 652.292 345.706 611.848 335.221C571.404 324.734 557.173 303.015 557.173 303.015L562.417 233.362" fill="#AF2722"/>
<path d="M559.779 238.135C559.779 238.135 586.93 217.821 591.028 220.279C595.126 222.738 578.734 234.213 575.455 244.047C572.176 253.882 558.14 247.97 559.779 238.135Z" fill="#F3C09B"/>
<path d="M589.917 224.246C589.917 224.246 589.656 221.626 586.511 223.198C583.365 224.77 576.552 233.418 574.717 233.681C572.883 233.942 568.952 233.418 570.787 234.205C572.621 234.99 576.028 235.777 576.028 235.777L589.917 224.246" fill="#EE9980"/>
<path d="M588.648 224.377C588.648 224.377 661.187 225.294 664.383 236.947C667.58 248.601 667.58 266.529 660.387 269.218C653.196 271.909 638.814 269.218 638.014 263.841C637.214 258.462 606.85 246.809 600.458 255.773C594.064 264.737 590.868 265.633 581.279 263.841C571.691 262.047 568.672 228.859 588.648 224.377Z" fill="#303133"/>
<path d="M654.779 270.659C653.443 270.659 651.927 270.493 650.21 270.102C651.292 270.215 652.386 270.274 653.458 270.274C656.016 270.274 658.46 269.939 660.387 269.218C660.915 269.022 661.403 268.742 661.855 268.39C660.419 269.582 658.179 270.659 654.779 270.659ZM663.203 266.983C663.427 266.682 663.638 266.358 663.835 266.013C663.684 266.287 663.478 266.622 663.203 266.983ZM638.367 264.915C635.707 262.875 633.778 260.655 630.003 258.435C625.234 255.629 616.04 253.561 609.324 253.561C605.815 253.561 602.982 254.125 601.81 255.445C599.072 258.523 597.704 264.891 590.686 264.891C589.842 264.891 588.916 264.799 587.896 264.598C592.85 264.542 595.81 262.29 600.458 255.773C602.134 253.421 605.458 252.489 609.467 252.489C620.742 252.489 637.424 259.873 638.014 263.841C638.07 264.213 638.188 264.57 638.367 264.915" fill="#511315"/>
<path d="M653.459 270.274C652.387 270.274 651.293 270.215 650.211 270.102C650.028 270.059 649.843 270.015 649.656 269.969C643.911 268.533 640.827 266.801 638.368 264.915C638.189 264.57 638.071 264.213 638.015 263.841C637.425 259.873 620.743 252.489 609.468 252.489C605.459 252.489 602.135 253.421 600.459 255.773C595.811 262.29 592.851 264.542 587.897 264.598C587.475 264.514 587.036 264.413 586.58 264.291C586.659 263.807 586.703 263.274 586.703 262.685C586.703 262.685 590.416 261.447 590.553 260.209C596.743 257.871 593.304 254.433 594.68 252.645C596.055 250.857 604.169 249.343 606.096 246.179C606.18 246.041 606.253 245.907 606.316 245.777C608.655 244.975 610.684 244.43 612.063 244.337C612.271 244.323 612.488 244.317 612.711 244.317C615.301 244.317 618.835 245.214 622.229 246.113C625.624 247.01 628.88 247.907 630.915 247.907C632.057 247.907 632.815 247.625 632.995 246.901C633.849 243.483 635.131 237.075 635.131 237.075L630.369 229.295L640.257 234.939L664.18 265.27C664.18 265.27 664.083 265.563 663.836 266.013C663.639 266.358 663.428 266.682 663.204 266.983C662.865 267.43 662.423 267.919 661.856 268.39C661.404 268.742 660.916 269.022 660.388 269.218C658.461 269.939 656.017 270.274 653.459 270.274" fill="#171417"/>
<path d="M585.576 231.094C585.576 231.094 602.237 225.114 605.226 231.949C608.217 238.783 606.508 241.347 603.945 242.629C601.381 243.91 584.294 246.901 584.721 244.337C585.149 241.774 581.732 231.522 585.576 231.094" fill="#A2A4A3"/>
<path d="M596.684 231.094C596.684 231.094 585.576 229.386 585.149 234.085C584.721 238.783 599.246 239.638 596.684 231.094Z" fill="white"/>
<path d="M682.822 235.031C682.822 235.031 769.696 235.031 771.335 250.605C772.975 266.175 767.578 272.702 750.367 268.605C733.156 264.506 703.311 248.965 694.295 251.423C685.279 253.882 676.379 261.861 676.379 261.861L682.822 235.031Z" fill="#F3C09B"/>
<path d="M537.756 162.089C537.756 162.089 526.281 170.285 520.545 195.693C514.808 221.099 512.348 242.409 512.348 242.409L559.884 247.326V221.099L537.756 162.089Z" fill="#EF3821"/>
<path d="M559.883 221.099L539.947 172.695L545.938 223.625L543.693 245.345L563.934 246.697L559.883 221.099" fill="#AF2722"/>
<path d="M683.64 236.671C683.64 236.671 663.151 219.459 657.414 217.002C651.676 214.542 650.038 216.182 651.676 218.641C653.316 221.099 668.887 233.393 665.61 235.851C662.331 238.31 678.723 249.785 683.64 236.671" fill="#F3C09B"/>
<path d="M684.461 224.377L695.732 201.157L723.442 205.65C723.442 205.65 704.718 213.889 696.481 231.114L684.461 224.377Z" fill="#AF2722"/>
<path d="M556.699 355.953C556.699 355.953 517.848 358.543 500.583 354.226C483.316 349.91 472.094 349.047 475.546 362.861C478.999 376.673 488.495 406.026 500.583 402.573C512.668 399.118 559.288 385.306 559.288 385.306C559.288 385.306 591.231 370.629 556.699 355.953" fill="#C7BD5F"/>
<path d="M620.592 328.082L679.987 298.385C679.987 298.385 730.863 255.238 751.667 265.357C772.471 275.475 769.564 291.354 765.079 302.505C760.592 313.657 657.925 358.627 657.925 358.627C657.925 358.627 615.5 367.113 613.804 374.749C612.107 382.385 595.987 382.385 595.987 382.385C595.987 382.385 595.987 379.838 590.895 382.385C585.804 384.93 555.259 396.809 555.259 396.809L548.471 350.142L620.592 328.082" fill="#133237"/>
<path d="M645.62 357.679C645.62 357.679 655.118 362.861 665.478 362.861C675.836 362.861 730.226 355.953 738.859 349.91C747.492 343.866 750.946 344.73 753.536 354.226C756.126 363.723 747.492 406.89 737.995 408.615C728.499 410.342 674.974 388.759 657.708 384.443C640.44 380.126 625.766 377.537 625.766 377.537L645.62 357.679" fill="#C7BD5F"/>
<path d="M460.227 261.051C460.227 261.051 480.591 244.93 497.561 253.414C514.531 261.899 585.803 308.566 585.803 308.566C585.803 308.566 588.349 316.202 590.894 314.506C593.439 312.809 593.439 311.111 594.287 315.354C595.136 319.597 655.379 354.385 655.379 354.385L634.166 393.415L560.348 356.082C560.348 356.082 552.711 343.354 548.47 350.142C544.227 356.93 540.833 350.991 540.833 350.991C540.833 350.991 527.258 339.961 525.561 341.658C523.865 343.354 472.954 305.173 472.954 305.173C472.954 305.173 445.803 287.354 460.227 261.051" fill="#133237"/>
<path d="M516.799 259.289L550.608 243.114C547.331 244.57 550.579 242.186 556.596 239.802C563.571 237.038 574.264 234.274 582.832 237.491C586.759 238.965 590.3 266.158 582.832 268.635C579.311 269.803 575.485 266.398 571.643 262.993C567.337 259.178 563.009 255.362 559.064 257.981C551.599 262.934 544.015 283.381 532.067 284.206C520.12 285.031 510.389 278.941 516.799 259.289" fill="#F3C09B"/>
<path d="M594.287 315.354C594.287 315.354 624.832 336.566 623.986 339.961C623.136 343.354 612.954 374.749 618.894 366.263C624.832 357.779 632.47 344.202 631.62 347.597C630.772 350.991 623.986 367.961 627.378 363.718C630.772 359.475 640.106 350.991 640.106 350.991L645.198 353.535L620.591 380.687L624.832 384.93L655.378 354.385L594.287 315.354Z" fill="#0B1F22"/>
<path d="M548.471 350.142C548.471 350.142 555.259 342.506 556.955 347.597C558.653 352.687 608.712 379.838 608.712 379.838L595.987 382.385C588.349 381.537 582.409 385.779 582.409 385.779L548.471 350.142" fill="#0B1F22"/>
<path d="M624.45 235.794C624.45 232.962 622.156 230.667 619.324 230.667C616.493 230.667 614.198 232.962 614.198 235.794C614.198 238.625 616.493 240.919 619.324 240.919C622.156 240.919 624.45 238.625 624.45 235.794Z" fill="white"/>
<path d="M576.661 235.863C576.661 235.863 578.311 238.339 583.675 237.102C589.041 235.863 599.769 233.801 601.419 231.05C603.069 228.298 606.233 234.489 604.033 236.551C601.831 238.614 586.839 241.229 587.251 243.703C587.663 246.179 594.679 246.455 599.494 244.254C604.307 242.054 608.021 243.017 606.095 246.179C604.169 249.343 596.054 250.857 594.679 252.645C593.303 254.433 596.742 257.871 590.553 260.209C584.363 262.547 584.638 263.647 580.65 266.123C576.661 268.599 567.309 257.871 567.309 257.871L570.609 237.79L576.661 235.863" fill="#F3C09B"/>
<path d="M596.329 251.269C596.329 251.269 588.215 253.195 588.903 253.607C589.591 254.019 594.129 255.258 594.129 255.258C594.129 255.258 594.129 251.819 596.329 251.269Z" fill="#EE9980"/>
<path d="M590.553 260.209C590.553 260.209 586.702 261.034 584.225 259.934C581.75 258.834 580.925 259.109 583.125 260.347C585.326 261.585 585.602 267.637 582.437 268.187L580.1 268.874C580.1 268.874 586.702 269.975 586.702 262.685C586.702 262.685 590.416 261.447 590.553 260.209" fill="#EE9980"/>
<path d="M566.758 258.421C566.758 258.421 556.304 253.882 555.066 254.295C553.827 254.707 555.479 254.707 556.03 256.083C556.579 257.458 549.564 269.011 549.564 269.011C549.564 269.011 556.579 255.395 566.758 258.421Z" fill="#EE9980"/>
<path d="M667.714 235.451C667.714 235.451 662.901 236.002 656.574 235.038C650.248 234.077 631.953 226.235 630.44 228.437C628.928 230.638 637.869 235.038 638.005 236.965C638.144 238.89 635.256 241.503 636.768 243.842C638.28 246.179 637.318 245.079 637.869 249.069C638.418 253.057 636.217 252.919 639.518 253.882C642.82 254.845 645.02 257.046 646.258 259.934C647.496 262.822 657.537 273.551 677.618 261.171L690.134 241.641L682.822 235.031L667.714 235.451" fill="#F3C09B"/>
<path d="M633.191 232.701C633.191 232.701 647.634 239.853 646.395 240.403C645.157 240.953 637.043 239.578 637.043 239.578C637.043 239.578 638.693 238.339 637.318 236.551C635.942 234.763 633.191 232.701 633.191 232.701" fill="#EE9980"/>
<path d="M636.355 242.603C636.355 242.603 637.043 245.355 639.931 246.179C642.819 247.005 645.295 249.069 643.231 248.93C641.169 248.793 638.693 248.93 638.693 251.269C638.693 253.607 646.67 254.982 647.634 256.771C648.597 258.559 648.045 261.585 649.283 262.41C650.522 263.235 654.923 266.537 654.923 266.537C654.923 266.537 646.395 264.749 645.845 262.135C645.295 259.522 645.845 257.183 641.994 255.533C638.143 253.882 636.355 254.158 636.491 251.957C636.63 249.755 636.355 242.603 636.355 242.603" fill="#EE9980"/>
<path d="M625.55 136.519L631.39 155.013C631.39 155.013 644.045 153.066 644.045 165.719C644.045 178.373 629.443 200.759 609.978 197.838C590.511 194.918 589.973 180.926 589.973 180.926L625.55 131.653V136.519" fill="#F3C09B"/>
<path d="M588.194 190.701C569.535 190.701 560.658 180.758 557.225 171.406C564.275 177.999 572.837 181.893 582.025 181.894C584.63 181.894 587.286 181.581 589.973 180.926C589.973 180.926 590.157 185.71 594.202 190.269C592.994 190.47 591.742 190.601 590.443 190.654C589.678 190.686 588.929 190.701 588.194 190.701Z" fill="#C03022"/>
<path d="M594.202 190.269C590.157 185.71 589.973 180.926 589.973 180.926C605.097 177.246 616.842 168.307 623.779 156.815C620.526 168.131 612.403 187.227 594.202 190.269" fill="#C1987E"/>
<path d="M532.18 95.27L550.02 122.921L555.158 82.9833L547.754 76.7553C547.754 76.7553 531.444 86.7487 532.18 95.27Z" fill="#AF7B37"/>
<path d="M631.01 126.233C631.01 126.233 646.074 103.813 635.345 78.982C624.617 54.1513 606.072 52.146 577.336 63.3847C548.598 74.6207 533.721 96.3247 539.036 123.518C544.349 150.713 631.01 126.233 631.01 126.233" fill="#F3C09B"/>
<path d="M596.06 77.6194C596.06 77.6194 541.14 82.1354 538.749 119.29C536.357 156.445 561.462 187.866 589.973 180.926C618.485 173.987 634.989 148.365 629.91 122.17C624.809 95.8514 611.354 81.002 596.06 77.6194" fill="#F3C09B"/>
<path d="M588.915 116.825C588.915 116.825 584.587 115.109 584.352 119.309C584.117 123.509 586.836 123.871 588.377 122.693C589.917 121.515 592.194 118.482 588.915 116.825" fill="#100C0B"/>
<path d="M547.457 131.151C547.457 131.151 552.521 131.013 551.913 134.349C551.305 137.686 548.097 138.559 547.164 136.401C546.231 134.242 546.161 131.711 547.457 131.151" fill="#100C0B"/>
<path d="M539.035 123.518C539.035 123.518 554.274 118.471 557.828 130.255C561.383 142.041 547.323 148.629 550.856 153.249C554.39 157.871 564.086 157.781 567.306 160.489C570.524 163.197 571.644 165.787 571.644 165.787L593.3 158.991L567.014 82.738C567.014 82.738 535.566 98.8874 539.035 123.518" fill="#F3C09B"/>
<path d="M605.919 146.326C601.082 146.326 595.85 143.131 596.559 135.789C597.187 129.286 602.051 128.121 605.458 128.121C607.362 128.121 608.812 128.485 608.812 128.485C615.767 132.179 615.916 141.827 610.919 144.991C609.542 145.863 607.759 146.326 605.919 146.326" fill="#F3AC8E"/>
<path d="M553.105 166.001C553.041 166.001 553.004 165.995 553.004 165.995C553.004 165.995 546.074 156.933 545.008 151.363C545.008 151.363 545.365 151.257 545.952 151.257C547.568 151.257 550.917 152.069 553.305 158.163C556.225 165.619 553.661 166.001 553.105 166.001" fill="#F3AC8E"/>
<path d="M560.855 155.014C559.933 155.014 559.597 153.526 560.055 152.21C560.38 151.278 560.904 150.998 561.807 150.998C562.393 150.998 563.139 151.117 564.092 151.251C564.227 151.27 564.357 151.279 564.484 151.279C566.644 151.279 567.772 148.653 569.297 147.423C570.031 146.833 571.173 146.671 572.204 146.671C573.441 146.671 574.516 146.905 574.516 146.905C576.403 148.785 573.388 150.517 571.271 150.79C569.152 151.065 568.603 153.883 567.304 154.519C566.928 154.703 566.38 154.758 565.761 154.758C565.311 154.758 564.823 154.729 564.333 154.701C563.845 154.671 563.357 154.642 562.907 154.642C562.288 154.642 561.741 154.697 561.365 154.882C561.179 154.973 561.008 155.014 560.855 155.014" fill="#EA9477"/>
<path d="M559.908 151.087C559.296 151.087 558.814 150.657 558.946 149.559C559.151 147.839 561.886 146.139 561.886 146.139C561.886 146.139 562.403 144.627 564.122 143.425C564.57 143.111 564.96 143.007 565.323 143.007C565.684 143.007 566.019 143.11 566.352 143.214C566.687 143.317 567.02 143.421 567.383 143.421C567.691 143.421 568.02 143.346 568.386 143.133C568.91 142.827 569.432 142.703 569.922 142.703C571.262 142.703 572.352 143.635 572.542 144.333C572.798 145.285 568.606 145.722 568.212 146.634C567.82 147.546 566.216 149.41 564.214 150.033C562.211 150.655 561.927 150.075 560.983 150.718C560.642 150.95 560.254 151.087 559.908 151.087V151.087ZM566.086 144.449C565.84 144.449 565.584 144.506 565.34 144.626C564.594 144.993 564.242 145.809 564.555 146.449C564.767 146.881 565.226 147.122 565.732 147.122C565.978 147.122 566.234 147.065 566.478 146.946C567.224 146.578 567.576 145.762 567.263 145.122C567.051 144.69 566.592 144.449 566.086 144.449Z" fill="#F7D2BA"/>
<path d="M564.169 140.525C565.203 137.499 563.553 133.275 563.553 133.275C565.717 133.833 566.859 138.307 566.637 139.135C566.413 139.965 564.169 140.525 564.169 140.525Z" fill="#F7D2BA"/>
<path d="M565.733 147.122C565.227 147.122 564.768 146.881 564.556 146.449C564.243 145.809 564.595 144.993 565.341 144.626C565.585 144.506 565.841 144.449 566.087 144.449C566.593 144.449 567.052 144.69 567.264 145.122C567.577 145.762 567.225 146.578 566.479 146.946C566.235 147.065 565.979 147.122 565.733 147.122Z" fill="#FEFAF8"/>
<path d="M559.589 146.069C561.404 139.637 558.461 133.245 558.461 133.245C562.624 140.567 559.589 146.069 559.589 146.069Z" fill="#EA9477"/>
<path d="M594.772 106.017C594.772 106.017 588.614 101.477 581.208 103.143C573.8 104.811 571.157 109.042 568.824 104.47C566.49 99.8993 573.282 97.7779 580.236 96.7259C587.189 95.6726 592.893 100.829 594.772 106.017" fill="#AF7B37"/>
<path d="M539.582 127.621C539.582 127.621 538.56 123.081 542.251 120.574C545.94 118.067 547.828 117.578 543.88 115.502C539.934 113.425 532.68 120.729 539.582 127.621" fill="#AF7B37"/>
<path d="M621.569 104.382L615.873 107.457C615.873 107.457 613.395 98.226 610.685 94.682C607.976 91.138 606.24 93.1621 606.24 93.1621L603.007 81.7687L560.431 99.9166L571.249 83.1647L532.511 117.366L535.303 101.662L525.135 111.186C525.135 111.186 528.949 83.7006 543.609 68.5273C558.268 53.354 587.367 44.3166 587.367 44.3166L582.737 40.4234C582.737 40.4234 603.46 33.8274 618.272 46.286L627.991 41.498L625.023 46.9046L627.585 48.7446L633.545 46.17L629.945 54.2074C629.945 54.2074 660.403 72.87 638.92 110.441L621.569 104.382" fill="#AF7B37"/>
<path d="M619.646 100.639C619.646 100.639 628.675 89.9447 636.503 103.547C644.329 117.149 632.88 120.738 629.1 121.013C625.319 121.287 619.681 106.738 619.646 100.639Z" fill="#F3C09B"/>
<path d="M624.115 103.463C624.115 103.463 628.303 99.6152 632.173 104.059C636.043 108.501 635.883 112.646 631.995 115.685C628.109 118.723 624.982 115.998 626.13 114.142C627.278 112.287 631.855 112.349 630.371 108.914C628.886 105.478 627.986 107.906 626.095 108.043C624.205 108.181 621.077 105.455 624.115 103.463" fill="#E8896D"/>
<path d="M545.107 93.8459C548.555 87.9579 553.023 82.6672 558.251 78.2765C563.483 73.8939 569.464 70.4006 575.871 68.0312C582.253 65.5939 588.891 63.9353 595.373 61.818C601.836 59.7086 608.243 57.0659 613.62 52.8406L613.713 52.9846C607.723 56.1606 601.196 58.0993 594.712 59.9393C588.224 61.782 581.677 63.5459 575.556 66.3885C569.431 69.2112 563.928 73.2486 559.024 77.8592C554.109 82.4766 549.759 87.6606 545.667 93.0193L545.441 93.3139L545.364 92.9513C544.523 89.1006 545.517 85.0858 547.311 81.6778C549.101 78.2312 551.584 75.2046 554.256 72.4286C559.595 66.8406 565.808 62.1233 572.492 58.2686C579.183 54.4086 586.345 51.3992 593.727 49.1445C597.42 48.0232 601.181 47.0926 605.011 46.5353C606.924 46.2553 608.853 46.0659 610.788 46.0073C611.764 45.9886 612.708 45.9473 613.711 46.0233C614.208 46.0766 614.711 46.1819 615.187 46.4126C615.657 46.6353 616.101 47.0726 616.233 47.6312L616.305 47.9366L615.989 47.9406C611.565 48.0033 607.136 48.0406 602.712 48.2206C598.289 48.3886 593.869 48.6926 589.508 49.406C580.749 50.7673 572.575 54.4686 564.563 58.162C560.585 60.0846 556.715 62.2726 553.243 65.0032C549.768 67.7259 546.687 70.95 544.116 74.5393C538.867 81.718 536.508 90.4753 532.045 98.162L531.693 98.7659L531.791 98.0752C532.543 92.7166 534.533 87.5832 537.329 82.9752C540.157 78.3779 543.696 74.2418 547.675 70.6112C555.671 63.3818 565.139 57.8139 575.295 54.2299C585.444 50.6326 596.28 48.9553 607.04 49.4393C608.376 49.4566 609.751 49.6819 611.035 49.2406C611.668 49.0339 612.229 48.6113 612.595 48.0526C612.963 47.5046 613.121 46.7792 612.852 46.1592C612.589 45.5379 612.024 45.1139 611.469 44.7526C610.888 44.4153 610.327 44.0406 609.719 43.7526C608.533 43.1206 607.272 42.6353 605.989 42.2393C600.849 40.678 595.139 40.9406 590.212 43.134C595.135 40.93 600.848 40.6539 605.999 42.2073C607.285 42.6006 608.548 43.0845 609.739 43.7152C610.349 44.0019 610.912 44.3766 611.493 44.7139C612.052 45.0752 612.627 45.502 612.899 46.1393C613.179 46.778 613.016 47.5245 612.641 48.0832C612.269 48.6525 611.699 49.0859 611.053 49.2966C609.752 49.7473 608.369 49.5219 607.037 49.5073C596.285 49.0459 585.465 50.7459 575.34 54.3592C565.209 57.9579 555.771 63.5366 547.815 70.762C543.855 74.39 540.339 78.5205 537.535 83.0992C534.763 87.6899 532.796 92.7938 532.061 98.1112L531.808 98.0246C536.233 90.3739 538.573 81.5992 543.847 74.3472C546.429 70.7272 549.527 67.4739 553.021 64.7219C556.516 61.9619 560.405 59.7526 564.395 57.8139C568.4 55.8992 572.465 54.1272 576.607 52.5272C580.751 50.9392 585.041 49.6686 589.435 48.9699C593.824 48.2419 598.263 47.9285 602.692 47.7499C607.123 47.5605 611.556 47.5139 615.993 47.4419L615.749 47.7513C615.553 46.9393 614.549 46.6086 613.657 46.5259C612.741 46.4579 611.755 46.4966 610.807 46.5179C608.891 46.5819 606.983 46.7725 605.084 47.0432C601.287 47.5872 597.545 48.5033 593.869 49.6126C586.515 51.8419 579.379 54.8219 572.712 58.6499C566.051 62.4725 559.861 67.1525 554.54 72.6992C551.873 75.4579 549.412 78.4499 547.636 81.8472C545.861 85.2072 544.888 89.1286 545.699 92.8793L545.395 92.8112C549.503 87.4512 553.877 82.2633 558.819 77.6393C563.749 73.0233 569.285 68.9779 575.447 66.1539C581.601 63.3126 588.163 61.5619 594.653 59.7325C601.14 57.9059 607.657 55.9845 613.633 52.8325L613.727 52.9752C608.316 57.2099 601.885 59.8432 595.413 61.9419C588.92 64.0459 582.283 65.6913 575.9 68.1126C569.496 70.4646 563.516 73.9405 558.277 78.3099C553.045 82.6859 548.568 87.9646 545.107 93.8459" fill="#E5B370"/>
<path d="M579.581 77.3699C583.262 75.5459 587.273 74.5646 591.193 73.4099C595.12 72.2566 598.974 70.862 602.726 69.234C604.598 68.4113 606.474 67.5846 608.21 66.518C609.954 65.47 611.481 64.0846 612.632 62.4033C613.793 60.7353 614.746 58.9139 615.729 57.1246C616.681 55.3273 617.529 53.4459 617.837 51.4419L618.14 51.5299C616.104 56.2886 613.44 60.7632 611.894 65.6819C611.128 68.1286 610.68 70.6886 610.725 73.2486C610.77 75.7992 611.352 78.3672 612.649 80.5646L612.277 80.602L621.381 53.934L621.846 54.1033C620.704 57.1059 620.336 60.3499 620.353 63.5633C620.369 66.7873 620.758 70.0046 621.152 73.2193C621.544 76.4339 621.95 79.6659 622.001 82.9259C622.054 86.1766 621.724 89.4833 620.625 92.5806L620.241 92.4033C622.129 89.1179 623.644 85.6165 624.708 81.9779C625.772 78.3432 626.436 74.5819 626.618 70.7939C626.824 67.0099 626.568 63.1925 625.842 59.4779C625.453 57.6299 624.822 55.8273 623.818 54.2286C622.825 52.6286 621.525 51.2166 620.002 50.1073L620.212 49.9206C623.344 55.5672 625.79 61.5885 627.494 67.8112C628.341 70.8952 628.918 74.218 628.048 77.374C627.24 80.4913 625.55 83.3699 625.381 86.6326C625.522 83.3686 627.189 80.4619 627.966 77.3539C628.802 74.2112 628.202 70.9246 627.33 67.8566C625.568 61.666 623.088 55.6819 619.962 50.0605L619.648 49.4953L620.17 49.8753C621.728 51.0033 623.058 52.438 624.076 54.0686C625.105 55.698 625.758 57.5406 626.157 59.4099C626.901 63.1619 627.169 66.9965 626.974 70.8112C626.802 74.6272 626.145 78.4192 625.082 82.0872C624.02 85.7592 622.504 89.2952 620.609 92.6152L620.225 92.4393C621.292 89.402 621.609 86.15 621.546 82.934C621.488 79.7073 621.074 76.494 620.67 73.2793C620.269 70.0633 619.866 66.8312 619.84 63.5659C619.81 60.3126 620.209 57.0005 621.384 53.9272L621.849 54.0953L612.665 80.734L612.52 81.1566L612.294 80.7712C610.961 78.4992 610.377 75.8565 610.338 73.2552C610.3 70.6432 610.765 68.0487 611.546 65.5727C613.126 60.606 615.81 56.1326 617.848 51.4046L618.346 50.2486L618.152 51.4913C617.826 53.5513 616.956 55.4592 615.992 57.2659C615 59.0592 614.045 60.8739 612.861 62.5659C611.689 64.2672 610.114 65.6886 608.346 66.7419C606.584 67.8153 604.69 68.6206 602.81 69.4312C599.036 71.0286 595.162 72.3926 591.222 73.5126C587.29 74.634 583.277 75.5779 579.581 77.3699" fill="#E5B370"/>
<path d="M625.807 51.7434C626.595 50.1221 627.545 48.5262 628.948 47.2955C629.656 46.6928 630.469 46.2007 631.363 45.9274C632.247 45.6501 633.215 45.5781 634.091 45.8408C632.268 45.7461 630.603 46.5554 629.287 47.6874C627.948 48.8301 626.939 50.3287 625.807 51.7434Z" fill="#E5B370"/>
<path d="M621.027 47.8181C621.739 46.3794 622.582 45.0274 623.454 43.694C624.342 42.3714 625.262 41.07 626.313 39.8554C625.601 41.2954 624.759 42.6474 623.885 43.9794C622.995 45.3021 622.077 46.6034 621.027 47.8181" fill="#E5B370"/>
<path d="M630.561 58.2753C633.371 61.062 636.162 63.866 638.93 66.6954C640.317 68.098 641.735 69.5194 642.814 71.2287C643.887 72.9434 644.466 74.9513 644.582 76.954C644.791 80.9953 643.723 84.8793 642.954 88.7407C642.531 90.6753 642.141 92.6099 641.693 94.5446C641.217 96.4432 640.494 98.4513 638.902 99.6926C640.435 98.3833 641.053 96.3886 641.445 94.4873L642.562 88.662C643.257 84.7794 644.314 80.9006 644.065 76.9886C643.967 75.0446 643.429 73.1313 642.414 71.4766C641.394 69.8166 639.989 68.418 638.645 66.97C635.927 64.094 633.234 61.194 630.561 58.2753" fill="#E5B370"/>
<path d="M559.521 167.938C559.521 167.938 572.852 165.546 587.891 154.266C587.891 154.266 578.321 175.799 559.521 167.938Z" fill="#240D14"/>
<path d="M587.891 154.266C587.891 154.266 573.095 165.987 559.521 167.938C559.521 167.938 565.665 162.561 567.411 162.561C569.156 162.561 570.725 161.514 571.599 160.467C572.471 159.419 587.891 154.266 587.891 154.266" fill="#E8896D"/>
<path d="M567.41 172.855C567.41 172.855 581.718 174.775 586.953 160.467C586.953 160.467 586.081 178.439 567.41 172.855Z" fill="#E8896D"/>
<path d="M588.523 154.01C588.523 154.01 586.43 151.917 587.477 151.917C588.523 151.917 590.267 151.567 590.094 153.138C589.919 154.709 588.349 156.453 588.523 154.01Z" fill="#E8896D"/>
<path d="M563.223 167.273C563.223 167.273 573.343 164.654 583.464 157.501C583.464 157.501 582.767 161.514 576.136 164.829C569.504 168.145 564.619 168.669 563.223 167.273" fill="#B8BAB9"/>
<path d="M620.68 235.294C620.493 234.786 615.997 222.807 608.157 221.861C603.869 221.337 599.6 224.177 595.485 230.287C591.35 236.423 589.252 243.162 587.03 250.293C581.896 266.771 575.505 287.279 539.397 312.315C521.698 324.586 499.896 330.642 476.814 337.053C432.858 349.262 387.428 361.883 361.97 418.541C350.328 441.153 351.002 468.163 351.002 468.163H354.577C354.001 448.031 360.09 430.406 363.492 422.215L363.552 422.118C388.244 364.653 433.664 352.038 477.588 339.837C500.912 333.359 522.941 327.241 541.044 314.69C577.969 289.087 584.524 268.054 589.789 251.153C592.04 243.927 593.985 237.689 597.881 231.902C601.34 226.767 604.692 224.349 607.806 224.73C612.861 225.335 616.856 233.282 617.969 236.294C618.245 237.042 619.078 237.422 619.824 237.149C620.573 236.873 620.956 236.043 620.68 235.294Z" fill="#171717"/>
<path d="M580.283 268.425C580.742 267.454 581.189 266.477 581.621 265.493C581.622 265.493 581.623 265.491 581.625 265.491C581.203 266.458 580.758 267.437 580.283 268.425" fill="#F9DCC8"/>
<path d="M581.621 265.493C581.689 265.341 581.756 265.189 581.822 265.035C581.757 265.186 581.692 265.339 581.625 265.491C581.624 265.491 581.622 265.493 581.621 265.493" fill="#F9DCC8"/>
<path d="M552.236 304.979L553.863 303.563C553.326 304.041 552.783 304.511 552.236 304.979ZM553.863 303.563C559.86 298.253 565.327 292.345 570.018 285.866C573.983 280.393 577.395 274.534 580.284 268.425C580.759 267.437 581.204 266.458 581.626 265.491C581.692 265.339 581.758 265.186 581.823 265.035C582.108 264.378 582.39 263.718 582.663 263.057C586.147 255.061 588.796 246.729 592.075 238.627C593.723 234.595 595.576 230.562 598.38 227.17C599.795 225.513 601.45 223.969 603.492 223.123C604.499 222.677 605.599 222.479 606.692 222.467C607.787 222.483 608.883 222.759 609.824 223.315C608.879 222.781 607.791 222.525 606.711 222.525C606.704 222.525 606.698 222.525 606.691 222.525C605.607 222.558 604.524 222.773 603.538 223.231C601.539 224.102 599.93 225.655 598.56 227.319C595.812 230.701 593.99 234.714 592.371 238.747C589.148 246.85 586.551 255.203 583.104 263.245C579.712 271.301 575.448 279.006 570.275 286.055L569.316 287.385L568.287 288.661L566.232 291.215C564.827 292.887 563.322 294.474 561.867 296.103L557.178 300.681L553.863 303.563" fill="#787C7C"/>
</svg>
