<svg width="849" height="480" viewBox="0 0 849 480" fill="none" xmlns="http://www.w3.org/2000/svg">
<path d="M656.099 448.718H192.047C85.9817 448.718 0 362.736 0 256.672V256.671C0 150.607 85.9817 64.6244 192.047 64.6244H656.099C762.162 64.6244 848.146 150.607 848.146 256.671V256.672C848.146 362.736 762.162 448.718 656.099 448.718" fill="#FAB329"/>
<path d="M568.41 149.75L492.443 145.643L508.687 176.707L555.195 190.145L570.698 164.822L568.41 149.75" fill="#2B7381"/>
<path d="M473.031 36.6658C473.031 36.6658 477.165 7.72839 518.505 11.8617C559.846 15.9964 518.505 46.4844 518.505 46.4844L473.031 36.6658Z" fill="#170F0D"/>
<path d="M451.325 85.758C451.325 85.758 443.057 104.362 456.493 106.429C469.931 108.495 472.513 103.329 472.513 103.329C472.513 103.329 469.413 114.697 481.816 111.597C494.217 108.495 493.701 94.0274 493.701 94.0274C493.701 94.0274 469.413 63.0207 451.325 85.758" fill="#170F0D"/>
<path d="M579.999 19.6137L586.2 36.1498C586.2 36.1498 606.354 24.7805 601.704 39.7671C597.052 54.7525 598.086 47.0005 598.086 47.0005C598.086 47.0005 614.106 49.0684 611.004 56.8191C607.904 64.5711 594.468 71.8058 594.468 71.8058C594.468 71.8058 607.387 75.4231 607.904 89.3751C608.422 103.328 582.066 116.247 582.066 116.247L520.572 26.3311L579.999 19.6137Z" fill="#170F0D"/>
<path d="M568.011 144.591C568.011 144.591 547.443 145.702 546.927 147.77C546.409 149.836 546.927 167.406 546.927 167.406L572.248 166.89L548.477 201.512L489.449 167.992C489.449 167.992 511.269 155.52 504.036 115.214C496.801 74.9058 568.011 144.591 568.011 144.591" fill="#B6704B"/>
<path d="M344.448 259.714H153.547V211.133H344.448V259.714" fill="#291A13"/>
<path d="M184.835 331.024L174 332.593L161.944 249.301L172.779 247.731L184.835 331.024Z" fill="#291A13"/>
<path d="M228.812 332.242H217.864V248.082H228.812V332.242Z" fill="#291A13"/>
<path d="M312.265 331.024L323.099 332.593L335.155 249.301L324.321 247.731L312.265 331.024Z" fill="#291A13"/>
<path d="M266.918 332.242H277.866V248.082H266.918V332.242Z" fill="#291A13"/>
<path d="M421.021 258.593H629.619V205.507H421.021V258.593Z" fill="#291A13"/>
<path d="M455.21 336.514L443.371 338.227L430.196 247.212L442.036 245.499L455.21 336.514" fill="#291A13"/>
<path d="M491.302 337.844H503.265V245.881H491.302V337.844Z" fill="#291A13"/>
<path d="M594.451 336.514L606.29 338.227L619.465 247.212L607.625 245.499L594.451 336.514Z" fill="#291A13"/>
<path d="M544.901 337.844H556.864V245.881H544.901V337.844Z" fill="#291A13"/>
<path d="M573.138 30.6754C573.138 30.6754 564.007 11.1114 526.182 11.7634C488.356 12.4154 478.574 35.8927 475.966 53.502C473.356 71.11 484.443 93.9353 505.964 95.8927C527.487 97.8487 573.138 30.6754 573.138 30.6754" fill="#B6704B"/>
<path d="M540.545 21.2872C540.545 21.2872 568.165 19.1952 579.047 37.6086C589.928 56.0219 581.557 68.5766 586.16 78.2019C590.764 87.8259 603.432 93.7645 604.367 98.4432C605.401 103.618 597.835 105.839 595.743 110.862C593.651 115.883 589.091 139.299 582.395 144.322C575.699 149.343 536.78 140.974 519.621 129.674C502.464 118.375 504.139 48.0699 508.323 35.0966C512.508 22.1246 540.545 21.2872 540.545 21.2872" fill="#B6704B"/>
<path d="M573.606 74.0166C573.606 74.0166 576.118 73.1793 576.955 75.2713C577.791 77.3646 575.281 80.2939 574.026 80.2939C572.77 80.2939 573.189 75.6899 573.606 74.0166Z" fill="#100C0B"/>
<path d="M575.8 105.21C570.292 105.21 560.768 101.729 560.065 100.323C559.115 98.4207 554.357 94.6141 557.688 91.2834C557.688 91.2834 561.399 85.886 567.115 85.886C568.187 85.886 569.329 86.0767 570.532 86.5274C578.144 89.3807 580.999 99.3713 579.571 103.653C579.197 104.773 577.751 105.21 575.8 105.21" fill="#B26247"/>
<path d="M567.272 63.8486C567.272 63.8486 570.906 56.4926 575.604 56.4926C576.011 56.4926 576.427 56.5474 576.848 56.6674C582.134 58.1727 580.639 60.8367 579.252 61.2274C578.942 61.3141 578.308 61.3234 577.482 61.3234C577.37 61.3234 577.254 61.3234 577.135 61.3234C577.002 61.3234 576.864 61.3221 576.723 61.3221C573.779 61.3221 569.254 61.4286 567.272 63.8486" fill="#4C271C"/>
<path d="M603.45 96.5483C603.038 95.9777 602.507 95.3871 601.889 94.7724C602.918 95.4578 603.629 96.115 603.45 96.5483Z" fill="#9B6D51"/>
<path d="M596.671 98.5698C595.734 98.5392 594.974 98.3312 594.627 97.8698C593.523 96.3978 592.846 91.5965 595.258 91.5965C595.59 91.5965 595.979 91.6872 596.434 91.8899C596.434 91.8899 599.811 93.3886 601.889 94.7726C602.507 95.3872 603.038 95.9778 603.45 96.5485C603.441 96.5711 603.43 96.5938 603.415 96.6151C603.061 97.1471 601.653 97.7539 600.051 98.1499C600.122 97.9512 600.159 97.7379 600.159 97.5166C600.159 96.4646 599.307 95.6125 598.257 95.6125C597.206 95.6125 596.354 96.4646 596.354 97.5166C596.354 97.9059 596.471 98.2685 596.671 98.5698" fill="#D88F64"/>
<path d="M598.256 99.4189C597.595 99.4189 597.012 99.0816 596.671 98.5696C596.756 98.5723 596.843 98.5736 596.931 98.5736C597.895 98.5736 599.014 98.4057 600.051 98.1497C599.79 98.8897 599.084 99.4189 598.256 99.4189" fill="#E0BFAB"/>
<path d="M596.931 98.5737C596.843 98.5737 596.756 98.5724 596.671 98.5697C596.471 98.2684 596.354 97.9058 596.354 97.5164C596.354 96.4644 597.206 95.6124 598.256 95.6124C599.307 95.6124 600.159 96.4644 600.159 97.5164C600.159 97.7378 600.122 97.9511 600.051 98.1498C599.014 98.4058 597.895 98.5737 596.931 98.5737" fill="#EDCEB8"/>
<path d="M595.743 110.862C595.962 110.338 596.239 109.844 596.561 109.375C596.065 110.218 595.743 110.862 595.743 110.862ZM601.653 104.319C602.982 103.074 604.073 101.796 604.378 100.262C604.539 101.827 603.123 103.243 601.653 104.319Z" fill="#9D6023"/>
<path d="M595.743 110.862C595.743 110.862 594.364 108.447 593.328 106.722C593.098 106.337 592.747 106.21 592.332 106.21C591.928 106.21 591.463 106.331 590.992 106.454C590.522 106.575 590.046 106.696 589.615 106.696C588.944 106.696 588.39 106.399 588.154 105.342C587.614 102.91 589.191 101.112 592.223 101.112C593.06 101.112 594.01 101.25 595.054 101.548C596.019 101.824 596.971 101.934 597.876 101.934C601.496 101.934 604.367 100.167 604.367 100.167C604.371 100.199 604.375 100.23 604.378 100.262C604.072 101.796 602.982 103.074 601.652 104.319C600.892 104.874 600.118 105.339 599.539 105.687C598.494 106.314 597.322 108.08 596.56 109.375C596.239 109.844 595.962 110.338 595.743 110.862Z" fill="#894C2C"/>
<path d="M587.71 80.8994C587.139 80.0474 586.623 79.1621 586.182 78.2447C586.286 78.4607 586.788 79.4661 587.71 80.8994Z" fill="#413028"/>
<path d="M595.563 89.8232C594.305 89.8232 586.863 89.3512 586.16 78.2019C586.16 78.2019 586.167 78.2166 586.181 78.2446C586.623 79.1619 587.139 80.0473 587.709 80.8993C589.221 83.2526 591.865 86.7579 595.743 89.8192C595.743 89.8192 595.679 89.8232 595.563 89.8232" fill="#C5825C"/>
<path d="M602.166 167.544C602.166 167.544 618.786 163.766 629.363 184.164C639.939 204.562 664.871 326.195 664.871 326.195L622.563 326.95L596.122 203.051L602.166 167.544" fill="#B6704B"/>
<path d="M649.006 237.048L623.666 250.211L619.835 292.351L618.877 312.464L605.469 293.31L608.342 232.971L649.006 237.048" fill="#773C1F"/>
<path d="M589.977 163.664L601.411 247.625L649.006 237.049C649.006 237.049 641.349 155.354 589.977 163.664Z" fill="#43B0CC"/>
<path d="M589.977 163.664C589.977 163.664 619.658 229.911 617.391 251.819C616.571 259.742 615.923 271.98 615.43 284.38C614.555 306.274 631.177 326.318 631.177 326.318L481.29 330.727L463.914 171.322L508.487 165.278L544.75 189.452L560.614 164.522L589.977 163.664" fill="#43B0CC"/>
<path d="M573.711 277.512L529.374 275.763L530.831 250.676L546.998 251.526L545.125 247.176L518.998 192.527C519.91 193.44 520.722 194.318 521.417 195.147C522.221 196.107 523.078 197.03 523.978 197.911L547.586 248.887L550.721 249.06L549.793 252.719L573.983 252.975L573.711 277.512V277.512ZM550.518 247.127L549.406 244.639L557.769 211.188C558.322 211.075 558.833 210.928 559.299 210.748L550.518 247.127ZM560.831 204.399C560.507 204.063 560.135 203.727 559.718 203.392L565.918 178.587C566.343 178.43 566.761 178.283 567.169 178.146L560.831 204.399V204.399ZM517.733 184.424C517.261 184.146 516.785 183.86 516.298 183.567C516.677 183.626 517.053 183.691 517.427 183.767L517.733 184.424Z" fill="#2F7A8E"/>
<path d="M617.349 245.718C617.303 245.198 617.249 244.663 617.185 244.119L623.793 242.651L623.923 243.37L617.349 245.718Z" fill="#4B402F"/>
<path d="M617.185 244.119C616.725 240.168 615.803 235.627 614.569 230.75L613.59 223.732L615.139 195.311L623.793 242.651L617.185 244.119" fill="#3A94AD"/>
<path d="M616.69 245.954L614.568 230.75C615.803 235.627 616.724 240.168 617.184 244.119C617.248 244.663 617.303 245.198 617.348 245.718L616.69 245.954" fill="#3A94AD"/>
<path d="M615.401 285.331C615.407 285.015 615.416 284.698 615.429 284.38C615.875 273.19 616.445 262.131 617.156 254.258C617.189 254.234 617.205 254.22 617.205 254.22L615.401 285.331Z" fill="#4B402F"/>
<path d="M574.314 307.448C574.314 307.448 605.838 277.992 606.87 275.926C606.923 275.82 606.848 275.77 606.656 275.77C603.647 275.77 572.058 288.203 562.228 292.878C573.72 285.378 615.507 255.439 617.156 254.258C616.446 262.131 615.875 273.19 615.43 284.38C615.417 284.698 615.407 285.015 615.402 285.331L615.139 289.878L574.314 307.448V307.448ZM559.358 294.571C559.33 294.571 559.319 294.557 559.328 294.529C559.403 294.306 560.467 293.716 562.228 292.878C560.578 293.955 559.551 294.571 559.358 294.571Z" fill="#3A94AD"/>
<path d="M482.849 252.671L479.074 247.119L490.372 227.062C490.722 227.277 491.084 227.48 491.456 227.674L482.849 252.671" fill="#3A94AD"/>
<path d="M463.914 171.322C463.914 171.322 442.76 166.033 435.96 198.519C429.16 231.003 432.183 325.439 432.183 325.439H470.712L474.491 213.629C474.491 213.629 481.29 177.365 463.914 171.322" fill="#B6704B"/>
<path d="M475.139 246.247L472.223 244.603C472.223 244.603 454.847 266.511 443.515 314.107L476.756 259.713L475.139 246.247Z" fill="#773C1F"/>
<path d="M466.935 168.299C466.935 168.299 426.895 163.766 426.895 244.603L477.512 249.891L480.533 206.828C480.533 206.828 481.289 171.322 466.935 168.299" fill="#43B0CC"/>
<path d="M544.75 189.452L565.014 165.856L579.999 166.372L590.851 179.808C590.851 179.808 579.483 178.775 573.282 177.224C572.951 177.142 572.577 177.103 572.159 177.103C571.721 177.103 571.238 177.146 570.717 177.228L572.222 171.162C570.639 170.634 569.794 170.528 569.371 170.528C569.09 170.528 568.995 170.575 568.995 170.575L568.475 172.73L567.294 173.084L565.918 178.587C557.041 181.868 544.75 189.452 544.75 189.452" fill="#2F7A8E"/>
<path d="M565.918 178.587L567.294 173.084L568.475 172.73L567.169 178.146C566.761 178.283 566.343 178.43 565.918 178.587" fill="#276777"/>
<path d="M544.75 189.452C544.75 189.452 532.189 187.908 522.903 185.323L519.822 178.427C531.078 183.547 544.75 189.452 544.75 189.452V189.452ZM514.061 182.199C509.886 179.62 505.313 176.648 500.822 173.658C500.903 172.92 500.467 172.206 499.714 171.547C500.777 171.31 501.823 171.172 502.818 171.172C504.177 171.172 505.441 171.428 506.523 172.04C508.533 173.176 512.738 175.18 517.651 177.436C516.354 177.006 515.573 176.868 515.106 176.868C514.261 176.868 514.442 177.32 514.442 177.32L515.779 180.21L513.329 180.668L514.061 182.199" fill="#2F7A8E"/>
<path d="M517.427 183.767C517.052 183.691 516.676 183.626 516.297 183.567C515.568 183.126 514.82 182.668 514.06 182.199L513.328 180.668L515.779 180.21L517.427 183.767" fill="#276777"/>
<path d="M504.847 183.667C504.322 183.204 503.886 182.492 503.886 181.398C503.886 179.951 500.748 178.504 497.072 177.508C497.654 177.218 498.146 176.852 498.467 176.394C498.572 176.367 498.676 176.335 498.779 176.298C502.091 178.654 505.298 181.015 508.259 183.311C507.056 183.395 505.908 183.52 504.847 183.667Z" fill="#2F7A8E"/>
<path d="M544.75 189.452L498.31 150.63C498.31 150.63 493.911 143.884 492.443 145.643C490.978 147.404 485.111 166.762 485.111 166.762L485.993 178.2C485.993 178.2 499.777 168.228 506.523 172.04C513.27 175.854 544.75 189.452 544.75 189.452" fill="#43B0CC"/>
<path d="M547.291 186.414C547.291 186.414 565.183 157.963 565.476 156.496C565.768 155.03 565.768 149.163 568.41 149.75C571.048 150.337 578.088 163.242 578.088 163.242L581.315 174.974C581.315 174.974 572.81 167.935 565.768 172.335C558.73 176.734 547.291 186.414 547.291 186.414Z" fill="#43B0CC"/>
<path d="M477.485 244.78L427.038 240.38V234.515L477.485 238.62V244.78Z" fill="white"/>
<path d="M648.482 232.755L617.098 239.794L615.631 234.515L647.308 227.475L648.482 232.755Z" fill="white"/>
<path d="M477.513 249.891L477.835 245.295L479.074 247.119L477.513 249.891ZM479.953 215.1L480.207 211.476C480.221 211.51 480.234 211.54 480.246 211.572L479.953 215.1ZM476.589 178.938C476.365 178.34 476.127 177.755 475.878 177.187C477.658 176.212 478.794 175.898 478.794 175.898C477.838 177.032 477.121 178.043 476.589 178.938Z" fill="#3A94AD"/>
<path d="M479.074 247.119L477.835 245.295L479.952 215.101L480.246 211.573C480.835 213.022 481.388 214.354 481.87 215.498C483.535 220.619 486.258 224.549 490.371 227.062L479.074 247.119" fill="#338299"/>
<path d="M477.512 249.891L469.469 248.295C470.377 246.983 471.157 245.642 471.827 244.287L477.484 244.78V238.62L474.107 238.346C476.791 228.927 475.215 220.52 475.215 220.52C475.215 220.52 471.384 209.028 466.596 204.239C461.807 199.451 461.807 190.831 467.552 184.126C470.685 180.471 473.744 178.356 475.877 177.187C476.127 177.755 476.364 178.34 476.588 178.938C474.057 183.192 475.7 184.835 475.7 184.835L475.756 186.064C474.923 186.998 474.201 187.779 473.639 188.272C471.84 189.846 476.657 202.742 480.207 211.476L479.952 215.1L477.835 245.295L477.512 249.891" fill="#3A94AD"/>
<path d="M477.484 244.78L471.827 244.287C472.806 242.307 473.548 240.304 474.107 238.346L477.484 238.62V244.78Z" fill="#A5CBC9"/>
<path d="M441.25 318.64L489.601 220.427L500.177 221.938L486.578 316.372C486.578 316.372 483.555 332.238 469.202 336.771C454.847 341.304 438.227 343.57 441.25 318.64Z" fill="#B6704B"/>
<path d="M595.877 219.714L577.694 223.999L575.023 212.668L593.207 208.384L595.877 219.714" fill="white"/>
<path d="M582.451 206.936C582.962 209.104 581.618 211.278 579.449 211.788C577.279 212.299 575.107 210.955 574.597 208.787C574.086 206.618 575.43 204.446 577.599 203.934C579.767 203.423 581.939 204.767 582.451 206.936" fill="white"/>
<path d="M592.571 203.473C593.215 206.206 591.522 208.944 588.787 209.588C586.054 210.232 583.317 208.538 582.671 205.805C582.029 203.071 583.722 200.334 586.455 199.688C589.189 199.044 591.927 200.739 592.571 203.473Z" fill="white"/>
<path d="M593.795 212.31L601.595 206.083L604.062 216.555L594.212 215.462L593.795 212.31Z" fill="white"/>
<path d="M579.316 228.654C579.247 228.876 579.144 228.938 579.076 228.911C578.712 228.763 578.267 228.708 577.756 228.811C576.904 228.98 576.64 229.587 576.746 230.118C577.04 231.578 580.196 230.704 580.65 232.955C580.894 234.176 580.27 235.175 578.76 235.479C577.93 235.646 577.132 235.567 576.623 235.314C576.543 235.268 576.523 235.127 576.602 234.892L576.647 234.758C576.715 234.579 576.823 234.483 576.89 234.512C577.402 234.732 578.058 234.787 578.49 234.702C579.31 234.535 579.879 234.007 579.731 233.263C579.386 231.543 576.27 232.564 575.84 230.434C575.588 229.172 576.394 228.25 577.524 228.024C578.104 227.907 578.871 227.942 579.336 228.192C579.408 228.23 579.398 228.387 579.348 228.554L579.316 228.654" fill="white"/>
<path d="M585.375 227.45C585.327 227.622 585.248 227.744 585.181 227.726C584.669 227.568 584.204 227.526 583.735 227.62C582.521 227.864 581.767 228.964 582.169 230.984C582.448 232.375 583.211 233.722 584.84 233.395C585.301 233.302 585.749 233.099 586.144 232.788C586.2 232.747 586.313 232.798 586.429 232.963L586.516 233.079C586.616 233.215 586.667 233.362 586.615 233.414C586.136 233.832 585.527 234.12 584.827 234.262C582.824 234.664 581.625 233.352 581.201 231.24C580.803 229.26 581.209 227.284 583.471 226.83C584.152 226.692 584.816 226.736 585.373 226.97C585.441 226.998 585.451 227.151 585.412 227.314L585.375 227.45" fill="white"/>
<path d="M588.167 229.623L589.078 229.44C590.199 229.216 590.519 228.528 590.356 227.708C590.116 226.516 589.163 226.594 588.512 226.724L587.622 226.903L588.167 229.623ZM588.208 225.983C589.738 225.676 591.002 225.851 591.328 227.479C591.539 228.522 591.164 229.304 590.275 229.858L590.943 230.692C591.447 231.34 591.916 231.862 592.544 232.443C592.611 232.512 592.466 232.626 592.176 232.683L591.986 232.722C591.675 232.784 591.495 232.717 591.418 232.637C590.916 232.165 590.632 231.784 590.202 231.247L589.352 230.179L588.322 230.386L588.891 233.227C588.907 233.308 588.763 233.368 588.503 233.42L588.392 233.443C588.112 233.499 587.958 233.499 587.94 233.418L586.518 226.323L588.208 225.983" fill="white"/>
<path d="M596.267 224.366C596.336 224.352 596.379 224.458 596.423 224.678L596.447 224.799C596.492 225.028 596.495 225.144 596.427 225.158L593.375 225.771L593.849 228.143L596.44 227.62C596.511 227.607 596.553 227.714 596.599 227.931L596.623 228.054C596.667 228.283 596.669 228.398 596.6 228.412L594.008 228.931L594.5 231.382L597.592 230.762C597.661 230.748 597.705 230.855 597.749 231.074L597.775 231.204C597.821 231.435 597.823 231.55 597.753 231.563L593.711 232.375L592.263 225.17L596.267 224.366" fill="white"/>
<path d="M601.714 223.272C601.784 223.258 601.824 223.364 601.87 223.584L601.894 223.706C601.94 223.935 601.942 224.051 601.872 224.064L598.82 224.678L599.296 227.048L601.887 226.528C601.958 226.514 601.999 226.619 602.044 226.839L602.068 226.96C602.115 227.19 602.116 227.304 602.046 227.319L599.455 227.84L599.946 230.29L603.039 229.668C603.11 229.655 603.151 229.762 603.195 229.98L603.22 230.112C603.267 230.34 603.268 230.456 603.199 230.472L599.156 231.282L597.711 224.075L601.714 223.272" fill="white"/>
<path d="M603.638 222.886C604.058 222.802 604.136 222.821 604.214 222.907L608.66 227.782L607.545 222.218C607.528 222.139 607.652 222.082 607.901 222.031L607.982 222.014C608.253 221.961 608.388 221.966 608.405 222.045L609.806 229.03C609.824 229.121 609.729 229.162 609.358 229.235L609.328 229.241C608.908 229.325 608.83 229.31 608.752 229.221L604.289 224.361L605.402 229.914C605.42 229.995 605.296 230.051 605.045 230.101L604.966 230.118C604.694 230.171 604.558 230.167 604.542 230.086L603.141 223.101C603.122 223.011 603.218 222.971 603.589 222.897L603.638 222.886" fill="white"/>
<path d="M532.66 251.526L573.983 252.976L572.773 275.932L531.452 274.482L532.66 251.526" fill="#979897"/>
<path d="M548.193 257.9C548.292 257.904 548.313 258.062 548.296 258.372L548.288 258.543C548.27 258.87 548.236 259.024 548.137 259.019L543.81 258.803L543.642 262.166L547.317 262.348C547.417 262.355 547.436 262.511 547.421 262.824L547.413 262.994C547.396 263.322 547.361 263.475 547.261 263.47L543.585 263.287L543.412 266.762L547.796 266.98C547.896 266.986 547.916 267.143 547.901 267.455L547.89 267.639C547.876 267.966 547.838 268.12 547.74 268.115L542.008 267.83L542.517 257.616L548.193 257.9" fill="#40464A"/>
<path d="M550.767 257.458C551.218 257.48 551.317 257.528 551.337 257.672C551.389 258.074 551.318 259.776 551.213 261.875L550.978 266.584C550.952 267.11 551.014 267.299 551.484 267.322L551.625 267.328C551.696 267.331 551.706 267.39 551.69 267.715L551.687 267.758C551.669 268.126 551.666 268.183 551.581 268.207C551.378 268.27 551.119 268.298 550.907 268.288C550.509 268.268 550.118 268.148 549.882 267.754C549.711 267.475 549.677 267.003 549.715 266.252L549.953 261.499C550.028 260.01 550.104 258.164 550.061 257.608C550.053 257.466 550.2 257.43 550.681 257.454L550.767 257.458" fill="#40464A"/>
<path d="M554.399 257.641C554.854 257.662 554.951 257.71 554.973 257.854C555.025 258.255 554.952 259.958 554.848 262.058L554.612 266.766C554.587 267.291 554.649 267.479 555.117 267.503L555.258 267.51C555.329 267.513 555.341 267.571 555.323 267.897V267.939C555.303 268.309 555.301 268.365 555.214 268.39C555.011 268.451 554.755 268.479 554.542 268.47C554.145 268.45 553.754 268.33 553.517 267.934C553.345 267.657 553.313 267.185 553.35 266.434L553.587 261.681C553.66 260.191 553.738 258.346 553.697 257.79C553.687 257.647 553.833 257.611 554.317 257.637L554.399 257.641" fill="#40464A"/>
<path d="M561.814 263.286C561.513 262.759 560.897 262.274 560.232 262.24C558.925 262.174 558.105 263.23 558.021 264.931C557.955 266.264 558.353 267.65 559.816 267.723C560.284 267.747 560.857 267.632 561.263 267.24C561.577 266.928 561.653 266.534 561.713 265.3L561.814 263.286ZM562.664 261.352C563.202 261.379 563.212 261.435 563.208 261.548C563.192 261.89 563.118 262.796 563.073 263.703L562.974 265.691C562.909 266.995 562.919 267.92 562.924 268.702C562.917 268.815 562.843 268.868 562.404 268.847L562.348 268.844C561.908 268.822 561.824 268.775 561.816 268.647L561.765 267.991C561.283 268.523 560.453 268.892 559.532 268.847C557.46 268.744 556.581 266.978 556.684 264.936C556.805 262.51 558.275 260.99 560.147 261.084C560.997 261.126 561.644 261.556 562.017 262.088L562.116 261.495C562.137 261.326 562.209 261.33 562.636 261.351L562.664 261.352Z" fill="#40464A"/>
<path d="M519.721 178.201L550.518 247.127L568.995 170.575C568.995 170.575 569.583 170.282 572.222 171.162L552.865 249.179L547.586 248.887L514.442 177.321C514.442 177.321 513.855 175.854 519.721 178.201" fill="#102232"/>
<path d="M546.998 251.526L547.586 243.607H553.745L554.038 251.819L546.998 251.526" fill="#102232"/>
<path d="M490.48 182.084C490.48 182.084 488.761 168.336 489.449 165.242C490.137 162.148 492.885 161.462 494.604 162.148C496.323 162.836 496.323 170.742 496.667 175.21C497.011 179.679 502.167 195.147 502.167 195.147C502.167 195.147 509.729 199.271 508.699 210.271C507.667 221.27 500.105 231.238 493.229 228.488C486.356 225.738 482.575 219.894 480.856 211.646C479.137 203.395 490.48 182.084 490.48 182.084Z" fill="#B6704B"/>
<path d="M459.544 150.806C459.544 150.806 509.043 180.366 521.416 195.147C533.79 209.927 558.539 215.426 561.976 208.552C565.414 201.676 539.29 194.459 526.916 189.303C514.542 184.147 475.7 156.306 475.7 156.306C475.7 156.306 452.327 140.494 459.544 150.806Z" fill="#777B7D"/>
<path d="M492.656 208.827H508.432V201.793H492.656V208.827Z" fill="#915131"/>
<path d="M476.043 192.396L475.7 184.835C475.7 184.835 473.295 182.429 478.794 175.898C484.294 169.367 486.013 167.993 489.45 167.993C492.886 167.993 501.48 170.742 500.792 173.835C500.106 176.928 497.011 176.929 494.948 175.898C492.886 174.866 489.45 174.523 487.731 178.647C486.012 182.772 476.043 192.396 476.043 192.396Z" fill="#B6704B"/>
<path d="M489.841 176.254C489.696 176.245 489.552 176.237 489.412 176.23C489.543 176.122 489.675 176.023 489.811 175.934C489.82 176.042 489.831 176.147 489.841 176.254" fill="#45695E"/>
<path d="M497.072 177.508C497.059 177.504 497.045 177.5 497.032 177.498C496.957 177.135 496.891 176.792 496.836 176.474C497.044 176.5 497.252 176.514 497.459 176.514C497.804 176.514 498.143 176.476 498.467 176.394C498.145 176.852 497.653 177.218 497.072 177.508Z" fill="#415245"/>
<path d="M497.032 177.498C494.617 176.846 491.975 176.388 489.841 176.254C489.831 176.147 489.82 176.042 489.811 175.934C490.581 175.426 491.423 175.227 492.241 175.227C493.228 175.227 494.183 175.515 494.948 175.898C495.523 176.184 496.176 176.391 496.836 176.474C496.891 176.792 496.957 177.135 497.032 177.498Z" fill="#915131"/>
<path d="M479.604 181.802C481.16 179.702 484.115 176.159 487.387 174.523C488.548 173.942 489.81 173.722 491.056 173.722C494.971 173.722 498.73 175.898 498.73 175.898C498.664 176.074 498.575 176.239 498.467 176.394C498.143 176.476 497.804 176.514 497.459 176.514C497.252 176.514 497.044 176.5 496.836 176.474C496.176 176.391 495.523 176.184 494.948 175.898C494.183 175.515 493.228 175.227 492.242 175.227C491.423 175.227 490.582 175.426 489.811 175.934C489.675 176.023 489.543 176.122 489.412 176.23C489.136 176.218 488.871 176.212 488.618 176.212C488.303 176.212 488.006 176.222 487.731 176.242C485.228 176.42 482.263 179.014 479.604 181.802" fill="#915131"/>
<path d="M483.606 219.551C483.606 219.551 470.889 190.678 473.64 188.273C476.388 185.866 482.92 176.585 487.732 176.242C492.544 175.898 503.886 178.647 503.886 181.398C503.886 184.147 506.637 184.491 506.637 184.491C506.637 184.491 511.448 186.554 511.448 191.022C511.448 195.49 509.044 196.522 509.044 196.522C509.044 196.522 511.448 202.709 509.73 204.427C508.012 206.146 504.23 204.771 503.886 202.709C503.544 200.647 496.324 202.709 496.324 202.709L491.513 208.895L483.606 219.551" fill="#B6704B"/>
<path d="M492.168 197.258C491.066 197.258 489.336 196.889 491.857 194.115C493.161 192.679 495.46 192.037 497.994 192.037C502.136 192.037 506.912 193.75 509.044 196.522C509.044 196.522 505.382 194.268 500.854 194.268C498.306 194.268 495.486 194.982 492.886 197.208C492.886 197.208 492.569 197.258 492.168 197.258" fill="#915131"/>
<path d="M484.802 187.004C484.458 187.004 484.32 186.712 484.638 185.866C485.335 184.007 490.588 180.262 496.361 180.262C499.127 180.262 502.012 181.122 504.573 183.459C504.573 183.459 500.363 181.822 495.899 181.822C492.711 181.822 489.392 182.658 487.387 185.522C487.387 185.522 485.575 187.004 484.802 187.004Z" fill="#915131"/>
<path d="M557.617 209.682C551.87 209.682 536.427 208.155 523.823 193.084C523.823 193.084 537.915 207.52 559.914 209.583C559.914 209.583 559.078 209.682 557.617 209.682" fill="#B5B7B5"/>
<path d="M491.773 22.4554L563.539 26.5394C563.539 26.5394 571.973 20.6487 574.04 23.2327C576.107 25.8167 582.065 40.8007 587.233 38.2167C592.401 35.6327 601.704 30.466 600.153 36.15C598.601 41.834 586.2 51.6526 593.435 52.686C600.669 53.7193 613.072 53.202 608.421 58.37C603.769 63.538 600.153 67.1554 604.287 70.7727C608.421 74.39 619.272 75.4233 619.272 75.4233C619.272 75.4233 605.837 70.7727 608.937 66.6381C612.039 62.5047 615.139 59.4033 616.172 52.686C617.207 45.9686 603.769 44.934 603.769 44.934C603.769 44.934 611.004 36.6659 609.972 29.9486C608.937 23.2299 589.819 25.814 589.819 25.814C589.819 25.814 583.616 9.27802 574.315 4.11136C565.013 -1.05664 519.161 -6.4833 491.773 22.4554Z" fill="#170F0D"/>
<path d="M505.069 22.1977L561.983 26.3444L513.855 94.543L506.241 129.103C506.241 129.103 463.996 96.1617 465.279 59.403C466.828 14.9617 505.069 22.1977 505.069 22.1977Z" fill="#170F0D"/>
<path d="M529.111 71.9097C529.111 71.9097 516.698 64.1884 512.314 75.519C507.928 86.8497 509.82 105.092 530.866 99.4271L529.111 71.9097" fill="#874329"/>
<path d="M529.327 71.7285C529.327 71.7285 516.26 64.1605 512.418 74.7538C508.574 85.3471 512.418 102.751 530.866 97.4538L529.327 71.7285Z" fill="#B6704B"/>
<path d="M528.751 76.4563C528.751 76.4563 520.101 70.9229 516.643 78.1589C513.183 85.3949 522.265 95.611 527.021 93.0563C531.777 90.503 532.643 84.5443 527.453 86.6723C522.265 88.8003 518.373 78.5856 522.265 79.4363C526.156 80.2869 530.912 81.139 528.751 76.4563Z" fill="#874329"/>
<path d="M470.446 36.6659C470.446 36.6659 457.528 18.5805 446.675 30.9818C435.823 43.3845 435.307 47.0019 435.307 47.0019C435.307 47.0019 420.838 44.4179 419.288 61.4713C417.738 78.5246 437.375 76.9739 437.375 76.9739C437.375 76.9739 427.555 83.6913 437.375 95.0606C447.192 106.429 461.662 87.3085 461.662 87.3085C461.662 87.3085 457.011 97.6446 470.963 94.0273C484.916 90.4099 488.016 45.9686 470.446 36.6659" fill="#170F0D"/>
<path d="M594.381 112.867L595.193 122.671L591.185 125.342L592.521 127.012L591.853 132.02C591.853 132.02 590.183 131.019 587.846 135.36C585.508 139.702 576.491 124.007 576.491 124.007L594.381 112.867" fill="#B6704B"/>
<path d="M595.192 122.671C595.192 122.671 593.005 120.39 589.244 121.699C585.484 123.007 578.124 122.352 578.124 122.352L591.184 125.342C591.184 125.342 594.761 123.809 595.192 122.671" fill="#773C1F"/>
<path d="M591.862 131.51C591.862 131.51 585.811 131.346 581.232 126.931C581.232 126.931 584.828 131.837 587.936 133.799L591.862 131.51" fill="#773C1F"/>
<path d="M571.037 121.578C569.825 121.578 570.502 119.922 571.421 118.429C571.682 118.003 571.931 117.833 572.161 117.833C573.082 117.833 573.711 120.554 573.711 120.554C572.399 121.283 571.549 121.578 571.037 121.578Z" fill="#965535"/>
<path d="M607.24 54.1565C606.414 53.3765 605.356 52.9833 604.304 52.8326C603.256 52.6846 602.132 52.8233 601.158 53.2326C600.191 53.6273 599.324 54.1952 598.544 54.8219C596.978 56.0712 595.707 57.5552 594.227 58.6645C592.966 59.6232 591.49 60.3712 590.008 60.3899C591.018 57.6179 593.071 55.2618 595.018 52.8818C595.179 52.6845 595.335 52.4792 595.496 52.2792C595.572 52.4419 595.646 52.6059 595.738 52.7619L596.036 53.2726L596.53 52.9525C598.071 51.9552 599.607 50.9765 601.272 50.4299C602.924 49.8565 604.707 49.8645 606.219 50.6299C606.963 51.0005 607.6 51.5512 607.998 52.2312C608.379 52.9125 608.51 53.7445 608.402 54.5245C608.355 54.8445 608.258 55.1578 608.139 55.4645C607.935 54.9672 607.639 54.5072 607.24 54.1565V54.1565ZM596.3 47.2578C596.747 45.5885 597.58 44.0071 598.544 42.5205C598.598 42.9338 598.611 43.3553 598.586 43.7659C598.52 45.3339 597.928 46.8445 597.096 48.2245C596.767 48.7752 596.398 49.3072 596.014 49.8312C595.959 48.9818 596.07 48.1045 596.3 47.2578ZM597.538 38.9512C596.694 38.4405 595.636 38.3966 594.751 38.6272C593.859 38.8686 593.067 39.2992 592.359 39.8059C591.651 40.3126 591 40.8965 590.414 41.5151C589.842 42.1058 589.256 42.6792 588.623 43.1752C587.487 44.0912 586.058 44.7872 584.754 44.4192L586.774 34.2365C591.635 32.5712 596.867 32.0231 601.958 32.6205C601.967 34.2191 601.436 35.7965 600.66 37.2485C600.119 38.2685 599.476 39.2432 598.812 40.2179C598.498 39.7099 598.087 39.2499 597.538 38.9512V38.9512ZM584.459 28.5179C584.118 26.5832 584.028 24.5765 583.612 22.5871C583.244 20.5911 582.326 18.6392 580.907 17.1592L580.695 16.9619C582.295 17.4806 583.783 18.3166 584.878 19.5726C586.311 21.1526 586.979 23.2792 587.106 25.4006C587.239 27.5379 586.943 29.6925 586.546 31.8192L586.314 32.9299C585.291 31.7232 584.739 30.1405 584.459 28.5179ZM609.74 71.2418C609.055 71.2885 608.362 71.2179 607.711 71.0166C606.043 70.5366 604.774 69.1232 604.335 67.4272C604.107 66.5912 604.07 65.6926 604.259 64.8552C604.422 64.0112 604.87 63.2593 605.408 62.4993C605.954 61.7446 606.588 61.0178 607.172 60.1925C607.698 59.4511 608.198 58.5739 608.364 57.5552C608.927 56.7192 609.388 55.7939 609.568 54.6952C609.71 53.6592 609.538 52.5752 609.01 51.6459C608.47 50.7299 607.643 50.0405 606.736 49.5925C604.927 48.6672 602.736 48.7005 600.916 49.3459C599.271 49.8965 597.828 50.7818 596.443 51.6752C596.387 51.5445 596.342 51.4085 596.298 51.2739C596.914 50.4779 597.51 49.6619 598.034 48.7792C598.912 47.3032 599.568 45.5978 599.626 43.8085C599.61 43.3632 599.604 42.9205 599.576 42.4752C599.531 42.0938 599.443 41.7151 599.326 41.3431C600.107 40.1791 600.895 38.9978 601.559 37.7192C602.428 36.0525 603.075 34.1352 602.923 32.1578L602.892 31.7619L602.504 31.7166C597.275 31.0912 591.923 31.6645 586.948 33.3538L587.228 31.9446C587.603 29.7872 587.902 27.5792 587.712 25.3552C587.543 23.1512 586.792 20.8926 585.239 19.2446C583.882 17.7486 582.016 16.8725 580.102 16.4072C578.848 15.3019 577.382 14.4472 575.82 13.8952C573.916 13.1966 571.878 12.9206 569.864 13.0046C567.847 13.1299 565.876 13.6166 564.015 14.3606C560.28 15.8566 557.02 18.2752 554.054 20.9245C557.07 18.3298 560.372 15.9805 564.096 14.5698C565.95 13.8672 567.907 13.4259 569.878 13.3405C571.847 13.2952 573.831 13.6032 575.663 14.3166C576.854 14.7606 577.97 15.3953 578.972 16.1659C576.946 15.8179 574.888 15.7965 572.855 15.8858C570.679 15.9738 568.47 16.1645 566.383 16.8578C565.352 17.2098 564.331 17.6712 563.503 18.3978C562.672 19.1112 562.067 20.0926 561.878 21.1726C562.088 20.0966 562.71 19.1339 563.543 18.4446C564.375 17.7406 565.394 17.3032 566.422 16.9739C568.502 16.3259 570.691 16.1766 572.864 16.1286C575.035 16.0739 577.224 16.1325 579.335 16.5912L579.587 16.6592C579.903 16.9392 580.211 17.2272 580.494 17.5392C581.82 18.9779 582.618 20.7912 582.966 22.7179C583.347 24.6419 583.418 26.6419 583.746 28.6405C584.046 30.4992 584.683 32.4792 586.11 33.9006L583.868 44.6192L583.798 44.9512L584.112 45.0858C584.983 45.4552 585.999 45.4565 586.856 45.1578C587.731 44.8832 588.476 44.3939 589.166 43.8713C589.854 43.3446 590.471 42.7511 591.066 42.1485C591.636 41.5618 592.242 41.0313 592.896 40.5713C594.167 39.6686 595.819 39.0405 597.043 39.8072C597.56 40.1059 597.926 40.5871 598.175 41.1538C598.015 41.3858 597.856 41.6179 597.698 41.8512C596.65 43.4125 595.748 45.1058 595.235 46.9752C594.878 48.2552 594.767 49.6938 595.079 51.0525C594.778 51.4285 594.472 51.8046 594.163 52.1779C592.074 54.7339 589.699 57.3325 588.672 60.7525L588.486 61.3752L589.136 61.4726C591.328 61.8019 593.354 60.7738 594.926 59.5925C596.544 58.3765 597.814 56.8992 599.28 55.7459C600.728 54.5845 602.403 53.7325 604.142 54.0232C604.99 54.1445 605.827 54.4778 606.407 55.0365C607.004 55.5738 607.264 56.3418 607.203 57.1365C606.766 57.7485 606.263 58.3446 605.767 58.9339C604.596 60.3366 603.268 61.7499 602.524 63.6286C601.728 65.5192 601.986 67.7325 602.951 69.4871C603.898 71.2738 605.778 72.5832 607.796 72.8339C609.034 73.0032 610.316 72.8472 611.479 72.3752C610.795 72.1085 610.218 71.7205 609.74 71.2418" fill="#371F18"/>
<path d="M536.826 15.2991C537.96 12.4978 539.834 10.0124 542.096 7.96436C544.398 5.95636 547.077 4.39242 549.94 3.29509C552.813 2.22842 555.861 1.58971 558.978 1.64704C560.532 1.69371 562.101 1.92968 563.598 2.49235C565.085 3.05768 566.497 3.9911 567.485 5.3111L568.622 6.83376L566.805 6.3111C564.169 5.55377 561.373 5.36174 558.633 5.67907C555.889 5.9924 553.212 6.82306 550.705 8.00706C545.718 10.4151 541.445 14.5218 539.194 19.7378C540.065 17.0351 541.59 14.5498 543.482 12.4004C545.401 10.2671 547.722 8.49637 550.268 7.1417C555.35 4.43503 561.493 3.55101 567.148 5.08167L566.468 6.08167C564.789 3.84967 561.813 2.92442 558.937 2.82842C556.024 2.70975 553.083 3.35243 550.279 4.24443C547.482 5.18977 544.826 6.59638 542.512 8.45772C541.356 9.38838 540.273 10.4177 539.309 11.559C538.37 12.719 537.537 13.9685 536.826 15.2991" fill="#371F18"/>
<path d="M524.168 16.0698C525.18 12.7752 527.653 9.96855 530.635 8.16188C533.621 6.36588 537.26 5.48725 540.647 6.13259C537.253 6.52325 534.101 7.56449 531.299 9.26449C528.488 10.9485 526.095 13.2512 524.168 16.0698" fill="#371F18"/>
<path d="M554.405 33.5114C550.509 38.9554 545.937 43.9247 540.917 48.3887C535.897 52.8567 530.371 56.7501 524.563 60.1394C518.706 63.4394 512.551 66.2354 506.159 68.3127L501.329 69.7407L496.438 70.9274L491.49 71.8167L486.506 72.4287L491.429 71.4807L496.294 70.3127L501.103 68.958L505.839 67.374C512.101 65.126 518.181 62.3714 523.925 59.0234C529.718 55.7634 535.165 51.9047 540.271 47.6407C545.379 43.3727 550.093 38.6247 554.405 33.5114" fill="#371F18"/>
<path d="M546.702 32.9939C542.491 38.0966 537.627 42.6671 532.343 46.6871C527.059 50.7125 521.309 54.1139 515.313 56.9792C509.27 59.7485 502.973 61.9806 496.497 63.4606L491.615 64.4352L486.695 65.1578L481.743 65.5739L476.783 65.7046L481.713 65.2326L486.607 64.5326L491.462 63.6352L496.262 62.4978C502.619 60.8352 508.839 58.6405 514.767 55.8125C520.737 53.0779 526.406 49.7058 531.759 45.8925C537.111 42.0751 542.101 37.7379 546.702 32.9939" fill="#371F18"/>
<path d="M533.483 29.3964C530.826 30.2351 528.15 30.9938 525.485 31.7951L517.465 34.091C512.133 35.6484 506.81 37.2244 501.667 39.2671C496.506 41.2324 491.458 43.5657 486.875 46.615C484.581 48.131 482.425 49.8698 480.535 51.8724C478.602 53.8404 477.013 56.1311 475.779 58.6284C476.746 56.0111 478.257 53.5978 480.066 51.4498C481.899 49.3164 484.035 47.4511 486.309 45.8004C488.573 44.1284 491.037 42.751 493.534 41.4857C496.035 40.2217 498.601 39.0898 501.205 38.0658C506.446 36.1005 511.802 34.4964 517.206 33.1391C522.611 31.7871 528.033 30.5444 533.483 29.3964" fill="#371F18"/>
<path d="M473.061 54.0645C473.99 51.8658 475.17 49.7739 476.454 47.7499C477.767 45.7459 479.221 43.8339 480.745 41.9832C483.81 38.3072 487.139 34.8258 490.922 31.8191C494.713 28.8578 499.045 26.4046 503.787 25.3046C506.146 24.7566 508.559 24.4619 510.967 24.4832C513.375 24.5299 515.771 24.8378 518.071 25.4805C515.713 25.1231 513.338 24.9484 510.982 25.1151C508.626 25.2204 506.291 25.6178 504.039 26.2632C499.526 27.5485 495.402 29.9232 491.717 32.8326C488.014 35.7326 484.699 39.1458 481.49 42.6298C478.315 46.1418 475.407 49.9085 473.061 54.0645Z" fill="#371F18"/>
<path d="M506.225 15.7713C502.855 17.1419 499.441 18.3792 496.105 19.7685C492.776 21.1699 489.489 22.6512 486.395 24.4632C483.289 26.2472 480.384 28.3698 477.779 30.8245C476.476 32.0525 475.268 33.3858 474.187 34.8192C473.067 36.2298 472.116 37.7686 471.259 39.3726C471.849 37.6486 472.705 36.0179 473.668 34.4565C474.669 32.9179 475.823 31.4751 477.076 30.1258C479.592 27.4298 482.577 25.2031 485.749 23.3485C488.939 21.5205 492.307 20.0405 495.753 18.8472C499.196 17.6378 502.692 16.6366 506.225 15.7713" fill="#371F18"/>
<path d="M502.95 114.562C502.905 114.874 502.69 115.174 502.381 115.323C502.074 115.473 501.729 115.501 501.399 115.485C500.738 115.441 500.098 115.234 499.51 114.899C498.431 114.247 497.365 113.562 496.353 112.801C494.313 111.299 492.434 109.575 490.713 107.711C487.31 103.957 484.565 99.5578 482.958 94.7818C485.493 99.1245 488.321 103.198 491.665 106.843C493.323 108.676 495.109 110.39 496.978 112.018C497.915 112.83 498.881 113.611 499.862 114.379C500.314 114.741 500.865 115.019 501.442 115.147C501.995 115.277 502.71 115.201 502.95 114.562" fill="#371F18"/>
<path d="M508.572 95.6072C507.46 96.1339 506.137 95.9779 504.96 95.7365C503.777 95.4539 502.629 95.1059 501.485 94.7085C499.201 93.9165 497.007 92.8713 494.905 91.6713C490.723 89.2446 486.948 86.0606 484.051 82.2219C487.689 85.3539 491.451 88.2125 495.551 90.5579C497.587 91.7485 499.695 92.8126 501.855 93.7779C502.937 94.2446 504.036 94.7179 505.138 95.1339C506.226 95.5593 507.383 95.8432 508.572 95.6072" fill="#371F18"/>
<path d="M453.539 72.6256C454.633 70.4242 454.049 67.591 452.3 65.9123C450.532 64.187 447.623 64.0803 445.561 65.3123C444.537 65.923 443.649 66.8697 443.323 68.027C443.163 68.6017 443.235 69.2282 443.519 69.7482C443.801 70.2709 444.261 70.6856 444.775 70.9856C445.815 71.6163 447.068 71.6896 448.265 71.567C449.468 71.463 450.672 71.2017 451.909 71.255C454.369 71.3523 456.781 72.5762 458.249 74.5762C458.981 75.5709 459.453 76.7777 459.52 78.0217C459.593 79.2643 459.3 80.515 458.728 81.6176C458.151 82.7163 457.271 83.6723 456.161 84.2657C455.605 84.5603 454.997 84.7443 454.373 84.8323C453.744 84.899 453.112 84.8402 452.5 84.6976C451.283 84.3802 450.181 83.6857 449.364 82.727C448.968 82.2377 448.641 81.691 448.421 81.095C448.22 80.4923 448.139 79.8522 448.181 79.2149L448.549 79.3377L444.532 85.899C444.205 86.4483 443.84 86.9922 443.553 87.5362C443.272 88.0762 443.067 88.6829 443.229 89.2016C443.377 89.7283 443.911 90.059 444.48 90.255C445.067 90.4243 445.681 90.591 446.303 90.6377C448.791 90.9123 451.335 90.1589 453.432 88.7869C455.535 87.4149 457.272 85.4737 458.363 83.2163L459.303 81.267L458.935 83.4016C458.759 84.4363 459.1 85.4937 459.781 86.299C460.48 87.095 461.444 87.6562 462.469 87.9749C463.495 88.2909 464.612 88.367 465.641 88.099C466.664 87.8443 467.592 87.2203 468.373 86.4736C469.927 84.9376 470.815 82.8189 471.309 80.6696C471.795 78.5029 471.916 76.2455 471.873 74.0095C471.791 71.7895 471.604 69.499 470.988 67.4043C470.659 66.371 470.136 65.3922 469.311 64.7696C468.492 64.1376 467.407 63.9537 466.32 63.9657C461.868 64.2577 457.323 64.723 452.828 65.0937L450.849 65.2563L452.629 64.3736C456.765 62.3229 460.233 58.9883 462.527 54.9843C463.693 52.9923 464.521 50.8123 465.043 48.571C465.281 47.4523 465.511 46.2922 465.507 45.1869C465.517 44.0749 465.137 43.0576 464.401 42.2296C464.041 41.8243 463.636 41.4243 463.161 41.1416C462.721 40.8016 462.215 40.5777 461.711 40.3497C460.669 39.9683 459.549 39.8149 458.432 39.8589C456.197 40.0056 453.993 40.9297 452.371 42.471C450.739 43.9883 449.788 46.2309 450.051 48.4243C450.179 49.4883 450.671 50.5416 451.524 51.067C452.375 51.607 453.585 51.6537 454.268 51.011L454.847 51.6896L448.471 56.7283C446.349 58.3883 444.047 60.1096 441.225 60.7003C439.82 60.979 438.348 60.9123 436.975 60.4576C435.608 60.0109 434.319 59.0963 433.603 57.767C432.863 56.387 432.993 54.7389 433.645 53.4149C433.975 52.7482 434.451 52.1363 435.087 51.6896C435.713 51.239 436.527 50.991 437.317 51.0616L437.183 52.0176L431.848 50.9523C430.963 50.7869 430.055 50.5669 429.216 50.4629C428.375 50.3616 427.56 50.4483 427.023 50.9283C426.467 51.4043 426.161 52.223 425.883 53.067L425.027 55.6482L423.315 60.8069C422.76 62.5109 422.311 64.2296 422.439 65.9456C422.548 67.663 423.128 69.3497 424.045 70.8163C424.983 72.271 426.248 73.4989 427.751 74.3736C429.256 75.2349 430.947 75.775 432.673 75.9603C436.12 76.327 439.769 75.1016 441.915 72.367C443.017 71.0416 443.748 69.419 444.127 67.7323C444.512 66.0457 444.524 64.2669 444.097 62.6016C443.685 60.9376 442.859 59.3683 441.613 58.2003C440.383 57.0256 438.835 56.1549 437.16 55.7429C435.491 55.3189 433.72 55.2523 432.041 55.6176C430.369 55.9936 428.797 56.7883 427.579 57.9683L424.78 60.6762L426.653 57.2683C428.212 54.4269 430.22 51.691 433.016 49.8163C435.785 47.9683 439.391 47.1256 442.699 48.1922C446.023 49.2296 448.464 52.6097 448.216 56.1603C448.145 57.0443 447.899 57.9136 447.443 58.7016C446.985 59.4909 446.327 60.139 445.581 60.6176C444.088 61.563 442.227 61.935 440.465 61.4497C439.592 61.203 438.76 60.7042 438.156 59.9976C437.544 59.3082 437.173 58.4936 436.883 57.7083C436.587 56.9243 436.433 56.1162 436.204 55.3202C436.024 54.5149 435.921 53.6936 435.796 52.879C435.471 49.591 435.891 46.2603 436.905 43.139C438.9 36.8923 443.509 31.4363 449.571 28.751L450.001 28.5616L450.295 28.9336C453.8 33.3883 456.781 38.2523 459.16 43.395L458.035 43.7016C457.604 39.3483 457.669 34.9456 458.231 30.6069L458.959 31.2349C454.824 32.3923 450.835 34.0722 447.119 36.2256C445.296 37.2816 443.475 38.531 442.72 40.3603C441.96 42.175 442.545 44.3337 443.629 46.0603C445.851 49.5763 449.933 51.8029 454.097 52.0349C456.16 52.1323 458.337 51.8282 460.093 50.8096C460.972 50.3002 461.772 49.6256 462.309 48.8056C462.868 47.995 463.077 47.027 462.856 46.1176L463.48 46.4909L450.104 49.8083L443.417 51.467C441.209 52.051 438.905 52.5003 436.808 53.211C435.771 53.591 434.785 54.091 434.037 54.8443C433.269 55.5777 432.741 56.5336 432.492 57.5723C431.989 59.671 432.499 61.9576 433.428 63.9563C434.359 65.9803 435.777 67.755 437.509 69.179C439.229 70.595 441.237 71.7096 443.395 72.1736C444.471 72.4056 445.581 72.4536 446.653 72.2696C447.732 72.0909 448.723 71.6656 449.712 71.1016C450.708 70.5589 451.717 69.9163 452.94 69.6136C454.159 69.2816 455.589 69.611 456.549 70.4323C457.521 71.2403 458.148 72.2909 458.689 73.3243L460.196 76.4362C460.688 77.4816 461.204 78.4816 461.676 79.5723C462.137 80.6403 462.447 81.9856 462.011 83.2123C461.619 84.427 460.833 85.339 460.055 86.2323C459.669 86.6843 459.188 87.043 458.757 87.451C458.291 87.815 457.785 88.1309 457.3 88.4696C455.255 89.6736 452.92 90.3243 450.572 90.4603C445.916 90.7497 440.931 88.931 438.133 84.999L438.801 84.9256C436.504 90.4229 439.767 97.4616 445.327 99.5069C448.107 100.532 451.288 100.052 453.856 98.595C456.433 97.1496 458.528 94.7483 459.376 91.911C459.843 90.4896 459.768 89.0216 459.779 87.4576C459.8 86.6803 459.883 85.867 460.195 85.099C460.524 84.3097 461.123 83.6723 461.877 83.2843C462.609 82.8816 463.675 82.8456 464.388 83.4403C465.071 84.0283 465.385 84.7256 465.796 85.3856C466.564 86.7336 467.167 88.1843 467.533 89.7003C468.279 92.6936 468.059 96.1083 466.247 98.7349C464.524 101.312 461.417 103.192 458.208 102.73L458.145 102.722L458.095 102.684C456.925 101.834 456.041 100.619 455.533 99.2816C455.017 97.9429 454.848 96.4962 454.933 95.0816C455.12 92.2549 456.268 89.4869 458.229 87.4296C460.187 85.3829 462.691 83.959 465.291 82.9443C467.901 81.923 470.625 81.267 473.344 80.667L473.256 80.7336C474.048 79.279 474.6 77.7003 474.905 76.0683C475.193 74.4323 475.188 72.7563 474.996 71.1069C474.559 67.8176 473.219 64.6216 471.049 62.0922C469.991 60.8069 468.688 59.7269 467.252 58.8909C465.835 58.0176 464.232 57.4322 462.58 57.2256C460.935 57.0256 459.181 57.3043 457.804 58.2683C456.435 59.1923 455.385 60.7322 455.383 62.4309C455.375 60.7322 456.415 59.1776 457.784 58.2403C459.163 57.2603 460.931 56.9669 462.588 57.1576C464.253 57.3536 465.871 57.9309 467.303 58.8016C468.756 59.6336 470.079 60.7136 471.155 62.0029C473.36 64.5402 474.736 67.7549 475.203 71.0803C475.407 72.7469 475.424 74.4455 475.144 76.1095C474.844 77.7682 474.295 79.3789 473.495 80.8683L473.467 80.9217L473.405 80.9362C470.695 81.5536 467.988 82.2256 465.413 83.2536C462.848 84.2749 460.404 85.6923 458.512 87.699C456.635 89.6923 455.54 92.3869 455.38 95.1082C455.203 97.8069 456.156 100.694 458.391 102.276L458.277 102.23C461.241 102.644 464.164 100.867 465.775 98.4202C467.457 95.9469 467.656 92.719 466.921 89.851C466.559 88.4016 465.973 87.0069 465.231 85.7069C464.848 85.0776 464.475 84.3602 463.98 83.9536C463.484 83.5509 462.779 83.5589 462.176 83.8736C461.575 84.1803 461.067 84.7269 460.813 85.3482C460.548 86.0002 460.468 86.7322 460.451 87.4762C460.444 88.9495 460.527 90.5909 460.031 92.1029C459.128 95.1416 456.921 97.6735 454.201 99.2095C451.493 100.755 448.091 101.29 445.081 100.191C442.085 99.1043 439.735 96.667 438.439 93.8217C437.135 90.9843 436.851 87.5802 438.095 84.6256L438.361 83.9909L438.763 84.5536C441.373 88.2149 446.092 89.947 450.524 89.6603C452.753 89.5257 454.964 88.9016 456.88 87.767C457.332 87.447 457.807 87.1509 458.241 86.8095C458.64 86.4255 459.092 86.0937 459.449 85.671C460.171 84.843 460.908 83.9577 461.216 82.955C461.561 81.9723 461.331 80.9136 460.897 79.8963C460.455 78.8803 459.919 77.8376 459.431 76.8056C458.379 74.787 457.619 72.4843 456.003 71.1056C455.2 70.443 454.156 70.2017 453.141 70.4657C452.119 70.715 451.152 71.3123 450.143 71.8736C449.144 72.4496 447.996 72.9537 446.801 73.1497C445.607 73.3563 444.38 73.3043 443.211 73.0563C440.865 72.555 438.744 71.3723 436.925 69.8843C435.104 68.3963 433.576 66.503 432.583 64.3497C431.595 62.2203 431.005 59.7656 431.571 57.3482C431.852 56.1549 432.476 55.0162 433.369 54.1589C434.248 53.2749 435.368 52.715 436.476 52.3043C438.729 51.5377 440.952 51.1122 443.18 50.5149L449.864 48.8403L463.231 45.4909L463.727 45.367L463.855 45.8642C464.165 47.0776 463.852 48.4003 463.176 49.3749C462.521 50.3749 461.608 51.1336 460.619 51.7136C458.597 52.8803 456.275 53.1883 454.037 53.0937C449.547 52.847 445.159 50.4922 442.703 46.6362C442.101 45.6696 441.628 44.6042 441.403 43.4536C441.175 42.3109 441.235 41.0589 441.696 39.9429C442.649 37.6736 444.696 36.355 446.555 35.255C450.348 33.0457 454.421 31.3176 458.647 30.1243L459.485 29.8883L459.375 30.7536C458.835 35.0069 458.781 39.3203 459.212 43.5843L459.565 47.0696L458.087 43.8937C455.735 38.8403 452.789 34.0629 449.333 29.6922L450.057 29.8749C444.373 32.4069 439.989 37.591 438.112 43.5336C437.153 46.499 436.775 49.6536 437.075 52.7456C437.192 53.511 437.285 54.2843 437.453 55.0403C437.668 55.7829 437.811 56.5563 438.081 57.2736C438.571 58.7229 439.437 59.8736 440.813 60.2349C442.153 60.6176 443.711 60.3256 444.907 59.5629C446.131 58.8109 446.876 57.5083 446.98 56.0629C447.204 53.1643 445.135 50.2056 442.317 49.3482C439.472 48.4122 436.192 49.1323 433.677 50.8123C431.113 52.5176 429.193 55.0897 427.681 57.8323L426.756 57.1323C428.151 55.7843 429.933 54.8963 431.796 54.483C433.664 54.083 435.612 54.1616 437.452 54.6336C439.297 55.095 441.021 56.0576 442.405 57.3869C443.808 58.7149 444.733 60.4857 445.185 62.3323C445.653 64.1843 445.633 66.1309 445.209 67.9762C444.789 69.8189 443.987 71.5922 442.764 73.0589C441.555 74.5269 439.959 75.7149 438.16 76.3482C436.372 76.9976 434.443 77.2202 432.565 77.0256C430.688 76.8189 428.856 76.2309 427.216 75.2869C425.583 74.3336 424.179 72.9682 423.16 71.3696C422.16 69.7629 421.527 67.9162 421.408 66.0096C421.272 64.0842 421.78 62.2189 422.345 60.4922L424.072 55.3296L424.935 52.751C425.231 51.899 425.54 50.9123 426.375 50.1749C427.231 49.4256 428.403 49.3642 429.328 49.4816C430.289 49.6056 431.147 49.8229 432.043 49.9909L437.375 51.0683L437.24 52.0256C436.093 51.9096 435.029 52.7483 434.504 53.8403C433.961 54.9243 433.876 56.2843 434.437 57.3163C435.629 59.5163 438.591 60.2883 441.043 59.7883C443.587 59.2683 445.803 57.6603 447.908 56.011L454.295 50.9896L454.873 51.667C453.767 52.6536 452.156 52.5083 451.056 51.8176C449.884 51.0763 449.335 49.7657 449.183 48.5323C448.883 46.031 449.984 43.5056 451.779 41.8482C453.569 40.1629 455.941 39.1736 458.387 39.0176C459.611 38.971 460.849 39.1416 462.012 39.5723C462.58 39.8256 463.144 40.0829 463.64 40.4629C464.171 40.7883 464.613 41.2242 465.029 41.6922C465.869 42.6162 466.353 43.9363 466.324 45.179C466.323 46.423 466.081 47.5816 465.831 48.751C465.285 51.0723 464.423 53.3243 463.213 55.3803C460.833 59.5096 457.249 62.943 452.963 65.0563L452.764 64.3362C457.284 63.9762 461.744 63.5243 466.317 63.2377C467.468 63.2283 468.749 63.4242 469.745 64.1976C470.741 64.9549 471.315 66.0816 471.664 67.1869C472.32 69.4402 472.485 71.707 472.568 73.995C472.605 76.275 472.481 78.571 471.972 80.8217C471.452 83.047 470.527 85.2829 468.836 86.9482C467.989 87.7536 466.98 88.4416 465.8 88.7349C464.633 89.0336 463.407 88.943 462.279 88.5937C461.155 88.2417 460.091 87.6229 459.3 86.7069C458.523 85.7883 458.112 84.5043 458.337 83.2937L458.911 83.479C457.752 85.839 455.931 87.8403 453.731 89.255C451.541 90.667 448.872 91.4457 446.245 91.1377C445.588 91.0803 444.953 90.9083 444.315 90.7176C443.704 90.5043 442.991 90.0936 442.773 89.3403C442.559 88.6003 442.845 87.8963 443.141 87.3217C443.459 86.7337 443.815 86.2149 444.148 85.6629L448.211 79.1283L448.663 78.4016L448.579 79.2523C448.343 81.6283 450.329 83.7883 452.588 84.3603C453.731 84.663 454.961 84.535 456.011 83.979C457.057 83.4283 457.904 82.527 458.464 81.479C459.019 80.4256 459.309 79.2269 459.247 78.0362C459.192 76.8482 458.748 75.6896 458.047 74.723C456.645 72.779 454.299 71.5629 451.901 71.4523C450.699 71.3923 449.496 71.6429 448.279 71.7403C447.073 71.8563 445.768 71.7736 444.699 71.1149C444.168 70.8002 443.693 70.367 443.397 69.8123C443.1 69.263 443.032 68.5936 443.201 67.995C443.551 66.7936 444.464 65.843 445.512 65.227C447.616 63.9883 450.559 64.1202 452.333 65.8762C454.088 67.5842 454.648 70.4309 453.539 72.6256" fill="#371F18"/>
<path d="M564.36 144.563C564.36 144.563 547.501 145.708 546.927 147.77C546.351 149.831 546.521 151.53 546.521 151.53L532.42 133.351C532.42 133.351 546.691 141.336 564.36 144.563Z" fill="#A76540"/>
<path d="M21.8838 404.431L826.262 404.278L670.846 317.003L142.127 318.335L21.8838 404.431" fill="#472F24"/>
<path d="M21.8838 479.454H826.262V404.43H21.8838V479.454Z" fill="#291A13"/>
<path d="M389.021 368.811C389.021 368.811 389.79 299.156 391.158 296.419C392.526 293.682 400.107 289.003 400.107 289.003L402.021 257.964H412.968L413.654 288.755C413.654 288.755 423.917 294.228 423.917 296.282C423.917 298.334 424.6 366.758 424.6 366.758C424.6 366.758 412.284 374.968 410.232 374.284C408.179 373.599 389.021 368.811 389.021 368.811" fill="#EF3821"/>
<path d="M399.284 247.7H415.706V260.016H399.284V247.7Z" fill="#78A329"/>
<path d="M422.866 309.204L414.427 312.272L413.991 346.058L423.122 339.89L422.866 309.204Z" fill="#F5AB26"/>
<path d="M411.442 371.09C411.341 371.09 411.297 370.878 411.359 370.318V299.998L408.29 290.026C408.29 290.026 408.813 289.374 409.39 289.374C409.621 289.374 409.862 289.478 410.081 289.771C410.847 290.794 412.893 299.743 412.893 299.743L412.637 369.039C412.637 369.039 411.758 371.09 411.442 371.09Z" fill="#F78F83"/>
<path d="M389.336 367.426L409.754 372.035L413.486 371.487L424.572 365.779L424.6 366.758L414.363 373.243C414.363 373.243 412.168 374.89 409.095 374.013C406.02 373.134 389.021 368.811 389.021 368.811L389.336 367.426" fill="#CD1D28"/>
<path d="M401.961 259.85L413.046 259.96V264.351L401.63 264.242L401.961 259.85" fill="#CD1D28"/>
<path d="M361.542 324.612C361.542 324.612 348.828 324.404 347.37 327.323C345.91 330.24 350.079 332.116 349.662 333.575C349.244 335.034 345.91 344.412 344.243 364.212C344.243 364.212 355.081 370.882 370.921 364.838C370.921 364.838 368.211 343.579 364.459 333.575C364.459 333.575 373.422 326.28 361.542 324.612" fill="#98632F"/>
<path d="M356.724 331.121C354.501 331.121 352.093 330.589 349.869 328.99C349.869 328.99 352.741 330.194 357.188 330.194C359.41 330.194 362.026 329.893 364.876 328.99C364.876 328.99 361.17 331.121 356.724 331.121Z" fill="#CDB090"/>
<path d="M354.039 327.323C354.039 327.668 353.526 327.948 352.893 327.948C352.259 327.948 351.746 327.668 351.746 327.323C351.746 326.978 352.259 326.698 352.893 326.698C353.526 326.698 354.039 326.978 354.039 327.323Z" fill="#291A13"/>
<path d="M363.626 327.739C363.626 327.97 363.206 328.156 362.689 328.156C362.17 328.156 361.75 327.97 361.75 327.739C361.75 327.509 362.17 327.323 362.689 327.323C363.206 327.323 363.626 327.509 363.626 327.739Z" fill="#291A13"/>
<path d="M358.415 326.488C358.415 326.719 358.043 326.906 357.581 326.906C357.121 326.906 356.748 326.719 356.748 326.488C356.748 326.258 357.121 326.072 357.581 326.072C358.043 326.072 358.415 326.258 358.415 326.488Z" fill="#291A13"/>
<path d="M357.79 328.572C357.79 328.803 357.416 328.99 356.956 328.99C356.496 328.99 356.123 328.803 356.123 328.572C356.123 328.343 356.496 328.156 356.956 328.156C357.416 328.156 357.79 328.343 357.79 328.572Z" fill="#291A13"/>
<path d="M382.801 340.662C382.801 340.662 370.087 340.452 368.629 343.371C367.169 346.288 371.338 348.164 370.921 349.623C370.505 351.083 367.169 360.462 365.502 380.262C365.502 380.262 376.339 386.93 392.179 380.886C392.179 380.886 389.47 359.627 385.718 349.623C385.718 349.623 394.681 342.328 382.801 340.662Z" fill="#AC7941"/>
<path d="M378.169 347.354C375.946 347.354 373.492 346.775 371.129 345.038C371.129 345.038 374.001 346.243 378.448 346.243C380.67 346.243 383.286 345.942 386.136 345.038C386.136 345.038 382.616 347.354 378.169 347.354" fill="#D7BC9B"/>
<path d="M375.297 343.371C375.297 343.717 374.784 343.997 374.151 343.997C373.517 343.997 373.004 343.717 373.004 343.371C373.004 343.026 373.517 342.746 374.151 342.746C374.784 342.746 375.297 343.026 375.297 343.371Z" fill="#291A13"/>
<path d="M384.884 343.787C384.884 344.018 384.464 344.205 383.946 344.205C383.428 344.205 383.008 344.018 383.008 343.787C383.008 343.558 383.428 343.371 383.946 343.371C384.464 343.371 384.884 343.558 384.884 343.787Z" fill="#291A13"/>
<path d="M379.674 342.537C379.674 342.767 379.3 342.954 378.84 342.954C378.38 342.954 378.007 342.767 378.007 342.537C378.007 342.307 378.38 342.121 378.84 342.121C379.3 342.121 379.674 342.307 379.674 342.537Z" fill="#291A13"/>
<path d="M379.049 344.621C379.049 344.851 378.677 345.038 378.215 345.038C377.755 345.038 377.382 344.851 377.382 344.621C377.382 344.391 377.755 344.205 378.215 344.205C378.677 344.205 379.049 344.391 379.049 344.621Z" fill="#291A13"/>
<path d="M642.292 332.91C642.292 343.787 602.782 352.606 554.044 352.606C505.306 352.606 465.795 343.787 465.795 332.91C465.795 322.031 505.306 313.214 554.044 313.214C602.782 313.214 642.292 322.031 642.292 332.91Z" fill="#D7D9E7"/>
<path d="M625.42 332.013C625.42 340.315 593.464 347.046 554.044 347.046C514.623 347.046 482.667 340.315 482.667 332.013C482.667 323.71 514.623 316.979 554.044 316.979C593.464 316.979 625.42 323.71 625.42 332.013Z" fill="#C2C4D9"/>
<path d="M550.949 351.234C549.873 351.234 548.797 351.223 547.723 351.187C535.419 350.906 523.199 349.883 511.485 348.153C505.616 347.305 499.937 346.197 494.381 344.995C488.933 343.691 483.543 342.313 478.708 340.571C488.987 343.637 500.337 345.827 511.985 347.407C523.655 348.955 535.681 349.977 547.825 350.17C549.18 350.221 550.536 350.231 551.895 350.231C552.489 350.231 553.084 350.23 553.679 350.227C554.263 350.225 554.845 350.223 555.429 350.223C555.929 350.223 556.428 350.225 556.928 350.229L561.483 350.231L566.023 350.067L575.104 349.715L584.107 349.039L588.617 348.711C590.105 348.567 591.575 348.382 593.055 348.219L601.933 347.21C607.82 346.483 613.535 345.478 619.404 344.666L610.867 346.221C607.989 346.702 605.2 347.315 602.243 347.69L593.385 348.844C591.905 349.031 590.436 349.242 588.944 349.41L584.421 349.81L575.353 350.589L566.168 350.993L561.572 351.182L556.956 351.203C556.769 351.202 556.583 351.202 556.396 351.202C555.492 351.202 554.588 351.21 553.684 351.218C552.772 351.226 551.86 351.234 550.949 351.234" fill="#F0F1F5"/>
<path d="M549.429 345.195C544.822 345.195 534.295 344.248 534.295 344.248C534.295 344.248 527.717 344.511 522.259 344.511C519.53 344.511 517.081 344.446 515.875 344.248C512.257 343.656 510.939 341.527 510.939 341.527L498.111 337.267L575.743 326.736L601.731 325.198C601.731 325.198 599.758 328.63 600.086 329.103C600.415 329.576 607.982 329.339 611.271 329.812C614.559 330.286 610.941 330.286 608.31 331.114C605.678 331.943 607.653 332.534 608.969 333.007C609.099 333.055 609.254 333.076 609.426 333.076C610.971 333.076 613.902 331.351 613.902 331.351C613.902 331.351 617.521 337.031 615.547 337.976C613.574 338.923 611.927 339.042 610.283 340.224C609.109 341.07 606.09 341.191 604.459 341.191C603.806 341.191 603.377 341.171 603.377 341.171L598.113 341.644C598.113 341.644 595.829 341.234 593.735 341.234C593.315 341.234 592.905 341.251 592.521 341.29C590.217 341.527 584.954 342.236 580.678 343.302C579.005 343.718 576.727 343.846 574.573 343.846C571.225 343.846 568.178 343.538 568.178 343.538C568.178 343.538 567.333 343.474 566.133 343.474C564.533 343.474 562.303 343.59 560.611 344.13C557.653 345.076 554.034 345.195 549.429 345.195" fill="#85808D"/>
<path d="M495.044 335.298C495.044 335.298 491.368 330.386 496.619 329.063C501.872 327.742 502.396 325.286 503.447 324.53C504.497 323.774 509.224 321.886 512.376 321.318C515.527 320.751 512.9 319.996 522.355 319.428C531.808 318.863 537.585 318.107 543.887 317.162C550.191 316.218 554.917 317.351 558.068 317.73C561.219 318.107 572.773 318.107 576.976 318.674C581.177 319.24 583.803 317.918 587.48 319.618C591.156 321.318 590.105 321.507 592.731 322.263C595.357 323.019 596.933 321.507 599.559 322.83C602.185 324.152 604.285 326.04 600.084 327.552C595.883 329.063 589.58 328.498 587.48 330.008C585.377 331.52 583.803 331.898 578.025 332.275C572.249 332.654 568.047 333.031 569.623 334.354C571.199 335.675 575.4 337.187 571.723 338.51C568.047 339.832 570.672 337.943 563.32 340.776C555.967 343.611 559.119 344.555 553.867 344.744C548.615 344.932 538.636 343.611 538.636 343.611C538.636 343.611 533.383 343.799 528.132 344.176C522.879 344.555 515.001 343.799 515.001 342.288C515.001 340.776 494.519 337.943 495.044 335.298" fill="#892D22"/>
<path d="M528.656 341.722L533.383 339.266L538.11 340.776L536.01 341.91L528.656 341.722Z" fill="#EF3821"/>
<path d="M560.695 330.575L566.997 330.198V331.898L560.695 330.575Z" fill="#EF3821"/>
<path d="M536.01 327.174L542.838 327.93L540.736 329.252L537.06 329.631L536.01 327.174Z" fill="#EF3821"/>
<path d="M509.75 328.875L513.951 329.063L515.002 330.765L510.801 331.521L509.75 328.875Z" fill="#EF3821"/>
<path d="M524.98 322.263L530.232 321.696L529.708 323.586L524.98 322.263Z" fill="#EF3821"/>
<path d="M560.695 319.24L552.291 321.318L558.068 321.886L560.695 319.24Z" fill="#EF3821"/>
<path d="M536.535 324.53L545.99 323.586L543.887 324.719L536.535 324.53Z" fill="#EF3821"/>
<path d="M510.273 325.286L511.851 323.586L516.051 324.34L515.527 325.475L510.273 325.286Z" fill="#EF3821"/>
<path d="M528.656 333.787L531.808 332.842L533.91 333.787L533.383 334.731L528.656 333.787" fill="#EF3821"/>
<path d="M511.852 338.32L515.002 336.054L517.628 337.376L516.052 338.32H511.852Z" fill="#EF3821"/>
<path d="M552.816 336.621L555.967 338.133L551.24 338.887L552.816 336.621Z" fill="#EF3821"/>
<path d="M588.531 325.663L594.309 324.907V326.986L588.531 325.663Z" fill="#EF3821"/>
<path d="M573.824 322.451V320.94L578.026 321.507L573.824 322.451Z" fill="#EF3821"/>
<path d="M509.225 333.882C509.225 334.351 508.166 334.731 506.862 334.731C505.555 334.731 504.498 334.351 504.498 333.882C504.498 333.413 505.555 333.031 506.862 333.031C508.166 333.031 509.225 333.413 509.225 333.882Z" fill="#78A329"/>
<path d="M521.829 333.22C521.829 333.428 521.359 333.598 520.779 333.598C520.199 333.598 519.729 333.428 519.729 333.22C519.729 333.011 520.199 332.842 520.779 332.842C521.359 332.842 521.829 333.011 521.829 333.22Z" fill="#78A329"/>
<path d="M524.98 326.04C524.98 326.354 524.275 326.608 523.404 326.608C522.535 326.608 521.828 326.354 521.828 326.04C521.828 325.728 522.535 325.475 523.404 325.475C524.275 325.475 524.98 325.728 524.98 326.04Z" fill="#78A329"/>
<path d="M545.463 333.22C545.463 333.428 544.993 333.598 544.414 333.598C543.833 333.598 543.363 333.428 543.363 333.22C543.363 333.011 543.833 332.842 544.414 332.842C544.993 332.842 545.463 333.011 545.463 333.22Z" fill="#78A329"/>
<path d="M559.119 323.963C559.119 324.276 558.413 324.53 557.544 324.53C556.672 324.53 555.967 324.276 555.967 323.963C555.967 323.65 556.672 323.396 557.544 323.396C558.413 323.396 559.119 323.65 559.119 323.963Z" fill="#78A329"/>
<path d="M565.422 328.875C565.422 329.084 564.951 329.252 564.371 329.252C563.791 329.252 563.32 329.084 563.32 328.875C563.32 328.667 563.791 328.498 564.371 328.498C564.951 328.498 565.422 328.667 565.422 328.875Z" fill="#78A329"/>
<path d="M579.602 326.514C579.602 326.774 579.014 326.986 578.289 326.986C577.563 326.986 576.977 326.774 576.977 326.514C576.977 326.253 577.563 326.041 578.289 326.041C579.014 326.041 579.602 326.253 579.602 326.514Z" fill="#78A329"/>
<path d="M564.896 335.582C564.896 335.842 564.308 336.054 563.583 336.054C562.858 336.054 562.27 335.842 562.27 335.582C562.27 335.32 562.858 335.11 563.583 335.11C564.308 335.11 564.896 335.32 564.896 335.582Z" fill="#78A329"/>
<path d="M550.191 341.91C550.191 342.223 549.486 342.478 548.615 342.478C547.744 342.478 547.039 342.223 547.039 341.91C547.039 341.596 547.744 341.343 548.615 341.343C549.486 341.343 550.191 341.596 550.191 341.91Z" fill="#78A329"/>
<path d="M546.514 337.092C546.514 337.563 545.455 337.943 544.151 337.943C542.846 337.943 541.787 337.563 541.787 337.092C541.787 336.623 542.846 336.243 544.151 336.243C545.455 336.243 546.514 336.623 546.514 337.092Z" fill="#78A329"/>
<path d="M524.455 340.682C524.455 340.943 523.868 341.155 523.143 341.155C522.417 341.155 521.828 340.943 521.828 340.682C521.828 340.422 522.417 340.21 523.143 340.21C523.868 340.21 524.455 340.422 524.455 340.682Z" fill="#78A329"/>
<path d="M543.887 321.035C543.887 321.504 542.829 321.886 541.524 321.886C540.219 321.886 539.16 321.504 539.16 321.035C539.16 320.566 540.219 320.184 541.524 320.184C542.829 320.184 543.887 320.566 543.887 321.035Z" fill="#78A329"/>
<path d="M570.672 321.696C570.672 321.904 570.203 322.074 569.623 322.074C569.043 322.074 568.572 321.904 568.572 321.696C568.572 321.487 569.043 321.318 569.623 321.318C570.203 321.318 570.672 321.487 570.672 321.696Z" fill="#78A329"/>
<path d="M586.955 322.546C586.955 322.807 586.367 323.019 585.641 323.019C584.916 323.019 584.328 322.807 584.328 322.546C584.328 322.284 584.916 322.074 585.641 322.074C586.367 322.074 586.955 322.284 586.955 322.546Z" fill="#78A329"/>
<path d="M583.803 329.536C583.803 329.796 583.215 330.008 582.49 330.008C581.766 330.008 581.178 329.796 581.178 329.536C581.178 329.275 581.766 329.063 582.49 329.063C583.215 329.063 583.803 329.275 583.803 329.536Z" fill="#78A329"/>
<path d="M599.035 323.302C599.035 323.667 598.211 323.963 597.196 323.963C596.18 323.963 595.357 323.667 595.357 323.302C595.357 322.936 596.18 322.64 597.196 322.64C598.211 322.64 599.035 322.936 599.035 323.302Z" fill="#78A329"/>
<path d="M504.498 328.875C504.498 329.189 503.792 329.442 502.922 329.442C502.051 329.442 501.346 329.189 501.346 328.875C501.346 328.562 502.051 328.309 502.922 328.309C503.792 328.309 504.498 328.562 504.498 328.875Z" fill="#78A329"/>
<path d="M519.728 321.224C519.728 321.59 518.905 321.886 517.889 321.886C516.875 321.886 516.051 321.59 516.051 321.224C516.051 320.859 516.875 320.563 517.889 320.563C518.905 320.563 519.728 320.859 519.728 321.224Z" fill="#78A329"/>
<path d="M562.99 341.774C562.99 341.774 562.534 342.84 557.051 343.299C551.57 343.756 547.917 344.366 552.027 344.366C556.138 344.366 564.361 342.536 564.361 342.536C564.361 342.536 570.755 343.603 575.779 343.146C580.805 342.688 578.521 342.688 580.347 341.926C582.174 341.164 584.459 341.468 586.286 341.164C588.113 340.859 594.507 339.944 592.681 339.182C590.854 338.419 591.767 338.724 594.507 336.895C597.249 335.064 599.075 332.624 597.249 333.235C595.422 333.844 594.051 329.88 592.681 330.948C591.311 332.015 590.397 334.302 589.483 333.692C588.57 333.083 587.657 333.387 585.829 334.607C584.002 335.827 583.545 334.455 581.262 336.132C578.978 337.81 579.434 339.03 576.237 338.267C573.039 337.504 573.953 336.436 572.126 338.115C570.298 339.791 569.842 339.182 568.014 339.944C566.187 340.706 562.99 341.774 562.99 341.774" fill="#316E2F"/>
<path d="M582.227 333.22C582.227 333.22 576.449 327.742 578.025 328.875C579.601 330.008 582.753 332.275 584.328 332.275C585.904 332.275 597.459 331.52 594.832 333.031C592.207 334.542 592.731 334.542 595.357 335.11C597.984 335.675 601.66 336.431 599.559 336.999C597.459 337.564 598.508 337.943 599.035 339.076C599.559 340.21 598.508 341.532 595.357 340.588C592.207 339.643 590.631 338.51 588.004 338.699C585.377 338.887 585.904 336.999 585.904 336.431C585.904 335.866 581.261 336.132 581.261 336.132C581.261 336.132 579.076 335.298 582.227 333.22Z" fill="#418534"/>
<path d="M591.156 330.198C591.156 330.198 597.459 327.174 597.984 328.119C598.508 329.063 601.135 328.875 604.286 328.308C607.436 327.742 607.963 329.252 610.063 330.008C612.164 330.764 604.812 329.819 605.336 331.142C605.862 332.464 605.862 334.92 603.762 333.598C601.66 332.275 600.084 329.819 597.984 330.952C595.883 332.087 591.156 330.198 591.156 330.198Z" fill="#418534"/>
<path d="M562.91 335.451C562.91 335.451 564.925 331.743 566.541 332.511C568.157 333.279 570.292 332.698 572.442 331.695C574.594 330.691 576.896 331.968 579.702 332.32C582.508 332.672 574.745 332.972 576.82 334.08C578.892 335.19 581.865 337.4 578.373 336.538C574.881 335.676 570.49 333.712 569.972 335.063C569.452 336.412 562.91 335.451 562.91 335.451" fill="#418534"/>
<path d="M611.114 333.598C611.114 333.598 598.509 334.542 602.186 335.298C605.862 336.054 605.337 336.243 603.237 336.81C601.135 337.376 607.437 337.943 605.337 338.699C603.237 339.454 596.934 340.588 599.035 340.966C601.135 341.343 608.489 340.399 610.59 339.076C612.69 337.754 612.165 337.943 614.266 337.564C616.366 337.187 616.366 336.999 615.317 335.675C614.266 334.354 613.741 331.708 613.741 331.708C613.741 331.708 610.59 331.142 611.114 333.598Z" fill="#418534"/>
</svg>
