<svg width="849" height="471" viewBox="0 0 849 471" fill="none" xmlns="http://www.w3.org/2000/svg">
<path d="M656.099 426.582H192.047C85.981 426.582 0 340.602 0 234.537C0 128.472 85.981 42.489 192.047 42.489H656.099C762.161 42.489 848.145 128.472 848.145 234.536V234.537C848.145 340.601 762.161 426.583 656.099 426.583" fill="#6A8ACF"/>
<path d="M324.198 470.128L261.057 426.583H387.185L324.198 470.128" fill="black" fill-opacity="0.25"/>
<path d="M387.185 426.582H261.057L148.178 348.735L159.396 337.547L212.921 328.504L637.531 216.9L651.961 243.528L387.185 426.583" fill="black" fill-opacity="0.25"/>
<path d="M557.277 455.351L539.987 450.031C539.987 450.031 541.383 440.261 543.371 426.583H562.253L557.277 455.351Z" fill="black" fill-opacity="0.25"/>
<path d="M562.253 426.582H543.372C547.82 395.969 555.234 345.769 556.613 341.633C558.608 335.648 555.948 332.988 555.948 332.988C552.838 314.947 563.696 314.365 565.109 314.365C565.206 314.365 565.259 314.368 565.259 314.368C566.348 314.142 567.456 314.023 568.568 314.015C581.418 314.015 578.558 332.323 578.558 332.323L562.254 426.583L562.253 426.582ZM627.345 404.567C623.957 404.565 620.989 403.829 619.124 402.149C612.474 396.165 619.789 389.515 619.789 389.515L746.141 321.017L752.791 330.993C752.791 330.993 654.369 384.859 650.379 393.504C647.509 399.724 636.036 404.567 627.345 404.567" fill="black" fill-opacity="0.25"/>
<path d="M159.396 206.282V337.547L329.552 451.795L635.833 235.452L643.125 121.204L458.383 19.1121L159.396 206.282Z" fill="#F5F5F2"/>
<path d="M181.272 211.145L341.705 320.532L623.679 130.929L455.953 33.697L181.272 211.146" fill="#999C9B"/>
<path d="M241.122 186.762L384.22 84.844L393.417 93.74L248.525 196.595L241.123 186.763" fill="#DACC9D"/>
<path d="M241.122 186.762L248.525 196.595C248.525 196.595 239.069 226.615 226.284 219.588C213.497 212.56 220.449 195.251 241.123 186.763" fill="#432015"/>
<path d="M273.439 186.762L416.536 84.844L425.733 93.74L280.842 196.595L273.44 186.763" fill="#DACC9D"/>
<path d="M273.439 186.762L280.841 196.595C280.841 196.595 271.385 226.615 258.6 219.588C245.813 212.56 252.767 195.251 273.439 186.763" fill="#432015"/>
<path d="M276.799 217.592L419.896 115.672L429.095 124.568L284.202 227.423L276.798 217.593" fill="#DACC9D"/>
<path d="M276.8 217.592L284.204 227.422C284.204 227.422 274.748 257.442 261.962 250.416C249.176 243.388 256.128 226.079 276.8 217.592" fill="#432015"/>
<path d="M309.22 220.779L452.317 118.859L461.513 127.755L316.623 230.609L309.22 220.779" fill="#DACC9D"/>
<path d="M309.219 220.779L316.621 230.609C316.621 230.609 307.165 260.629 294.379 253.603C281.593 246.575 288.545 229.265 309.219 220.779" fill="#432015"/>
<path d="M335.629 230.609L478.727 128.689L487.924 137.587L343.032 240.441L335.629 230.609" fill="#DACC9D"/>
<path d="M335.63 230.609L343.033 240.441C343.033 240.441 333.577 270.461 320.792 263.433C308.006 256.407 314.958 239.097 335.63 230.609" fill="#432015"/>
<path d="M346.266 258.345L489.364 156.427L498.561 165.323L353.669 268.177L346.266 258.345" fill="#DACC9D"/>
<path d="M346.265 258.345L353.668 268.177C353.668 268.177 344.212 298.197 331.427 291.171C318.641 284.144 325.593 266.835 346.265 258.345" fill="#432015"/>
<path d="M374.22 263.256L517.317 161.337L526.514 170.233L381.623 273.088L374.221 263.256" fill="#DACC9D"/>
<path d="M374.219 263.256L381.621 273.088C381.621 273.088 372.165 303.108 359.379 296.08C346.593 289.053 353.545 271.744 374.219 263.256" fill="#432015"/>
<path d="M248.097 133.097L437.884 253.872L435.42 379.575L649.853 226.76L657.248 110.915L472.389 0L248.096 133.097" fill="#F5AB26"/>
<path d="M291.887 133.017L452.58 227.535L621.057 118.387L467.469 23.871L291.887 133.017ZM452.763 235.837L278.247 133.177L467.448 15.567L634.283 118.227L452.763 235.837" fill="#EF3821"/>
<path d="M487.179 170.069C487.179 170.069 452.672 182.393 440.348 142.956C428.024 103.52 437.883 56.689 437.883 56.689C437.883 56.689 452.672 86.267 477.32 91.197C501.967 96.125 499.503 123.239 499.503 123.239L511.825 96.1249C511.825 96.1249 570.981 140.492 487.179 170.069Z" fill="#EF3821"/>
<path d="M637.594 140.428L457.601 253.872L460.066 337.675L637.53 216.9L637.594 140.428" fill="#9A2320"/>
<path d="M545.502 446.947L561.935 336.857H574.259L557.005 450.232L545.503 446.946" fill="#DACC9D"/>
<path d="M561.935 336.856H574.259C574.259 336.856 586.583 323.711 582.475 314.675C578.367 305.636 554.541 305.636 561.935 336.856Z" fill="#432015"/>
<path d="M742.68 314.675L638.34 376.291L645.735 386.151L749.253 326.176L742.68 314.675Z" fill="#DACC9D"/>
<path d="M638.34 376.291L644.913 390.259C644.913 390.259 631.768 407.511 621.088 399.295C610.408 391.08 618.623 377.935 638.34 376.291" fill="#432015"/>
</svg>
